SplineFontDB: 1.0
FontName: ArialNarrow-Bold
FullName: Arial Narrow Bold
FamilyName: Arial Narrow
Weight: Bold
Copyright: Typeface © The Monotype Corporation plc. Data © The Monotype Corporation plc / Type Solutions Inc. 1990-91 All Rights Reserved.
Version: 2.30
ItalicAngle: 0
UnderlinePosition: -217
UnderlineWidth: 150
Ascent: 800
Descent: 200
NeedsXUIDChange: 1
FSType: 0
PfmFamily: 17
TTFWeight: 700
TTFWidth: 3
Panose: 2 11 6 6 2 2 2 3 2 4
LineGap: 0
VLineGap: 0
ScriptLang: 5
 1 latn 1 dflt 
 1 DFLT 1 dflt 
 1 grek 1 dflt 
 1 thai 1 dflt 
 1 arab 1 dflt 

StartChar: .notdef
Encoding: 0 -1 0
Width: 228
VWidth: 2048
Flags: W
HStem: 0 26<44 211> 604 21<21 189>
VStem: 21 23<0 604> 189 22<26 625>
Fore
21 0 m 1
 21 625 l 1
 211 625 l 1
 211 0 l 1
 21 0 l 1
44 26 m 1
 189 26 l 1
 189 604 l 1
 44 604 l 1
 44 26 l 1
EndSplineSet
EndChar
StartChar: exclam
Encoding: 33 33 4
Width: 272
VWidth: 2048
Flags: W
HStem: 0 21G<78 190> 696 20G<73 195>
VStem: 78 112<0 137>
Fore
103 185 m 1
 73 548 l 1
 73 716 l 1
 195 716 l 1
 195 548 l 1
 166 185 l 1
 103 185 l 1
78 0 m 1
 78 137 l 1
 190 137 l 1
 190 0 l 1
 78 0 l 1
EndSplineSet
EndChar
StartChar: quotedbl
Encoding: 34 34 5
Width: 389
VWidth: 2048
Flags: W
HStem: 696 20G<45 167 226 348>
VStem: 45 122<594 716> 226 122<594 716>
Fore
66 461 m 1
 45 595 l 1
 45 716 l 1
 167 716 l 1
 167 595 l 1
 149 461 l 1
 66 461 l 1
247 461 m 1
 226 595 l 1
 226 716 l 1
 348 716 l 1
 348 595 l 1
 330 461 l 1
 247 461 l 1
EndSplineSet
EndChar
StartChar: numbersign
Encoding: 35 35 6
Width: 456
VWidth: 2048
Flags: W
HStem: -12 21G<30 121 210 299> 178 108<7 62 170 241 349 447> 430 108<7 104 211 282 391 447> 708 20G<153 243 331 423>
DStem: 62 178 152 178 30 -12 121 -12 104 430 193 430 80 286 170 286 153 728 243 728 122 538 211 538 241 178 332 178 210 -12 299 -12 282 430 374 430 259 286 349 286 331 728 423 728 299 538 391 538
Fore
62 178 m 1
 7 178 l 1
 7 286 l 1
 80 286 l 1
 104 430 l 1
 7 430 l 1
 7 538 l 1
 122 538 l 1
 153 728 l 1
 243 728 l 1
 211 538 l 1
 299 538 l 1
 331 728 l 1
 423 728 l 1
 391 538 l 1
 447 538 l 1
 447 430 l 1
 374 430 l 1
 349 286 l 1
 447 286 l 1
 447 178 l 1
 332 178 l 1
 299 -12 l 1
 210 -12 l 1
 241 178 l 1
 152 178 l 1
 121 -12 l 1
 30 -12 l 1
 62 178 l 1
193 430 m 1
 170 286 l 1
 259 286 l 1
 282 430 l 1
 193 430 l 1
EndSplineSet
EndChar
StartChar: dollar
Encoding: 36 36 7
Width: 456
VWidth: 2048
Flags: W
VStem: 44 101<523 540> 196 58<-100 -9 106 290 450 617 724 773> 322 98<187 214>
Fore
196 106 m 1
 196 311 l 1
 94.6667 345.667 44 418 44 528 c 0
 44 584 58.3333 629.667 87 665 c 128
 115.667 699.667 152 719.667 196 725 c 1
 196 773 l 1
 254 773 l 1
 254 725 l 1
 295.333 719 328.667 701.667 354 673 c 128
 380 644.333 396.333 605 403 555 c 1
 302 539 l 1
 296 577.667 280 603.667 254 617 c 1
 254 426 l 1
 316 406 358 381 380 351 c 0
 406.667 315 420 269.333 420 214 c 0
 420 153.333 405 103 375 63 c 128
 345 23.6667 304.667 -0.333333 254 -9 c 1
 254 -100 l 1
 196 -100 l 1
 196 -11 l 1
 100 3 44 73.6667 28 201 c 1
 133 214 l 1
 137 188.667 145 166.333 157 147 c 128
 168.333 128.333 181.333 114.667 196 106 c 1
196 619 m 1
 181.333 612.333 169 601.333 159 586 c 128
 149.667 570.667 145 554 145 536 c 0
 145 496.667 162 468 196 450 c 1
 196 619 l 1
254 99 m 1
 273.333 103 289.333 114 302 132 c 128
 315.333 150 322 171.333 322 196 c 0
 322 242.667 299.333 274 254 290 c 1
 254 99 l 1
EndSplineSet
EndChar
StartChar: percent
Encoding: 37 37 8
Width: 729
VWidth: 2048
Flags: W
HStem: -29 79<558 564> 272 78<561 565> 350 79<162 170> 651 77<162 169>
VStem: 36 88<514 564> 205 89<514 564> 432 88<161 180> 601 89<161 180>
DStem: 479 728 560 728 167 -27 250 -27
Fore
36 539 m 0
 36 604.333 47.6667 652.333 71 683 c 128
 94.3333 713 125.333 728 164 728 c 0
 204 728 235.667 713 259 683 c 128
 282.333 652.333 294 604.333 294 539 c 0
 294 473.667 282.333 426 259 396 c 128
 235.667 365.333 204.667 350 166 350 c 0
 126 350 94.3333 365 71 395 c 128
 47.6667 425 36 473 36 539 c 0
124 540 m 0
 124 494.667 127.667 464.667 135 450 c 128
 142.333 436 152 429 164 429 c 0
 176.667 429 186.667 436 194 450 c 128
 201.333 464.667 205 494.667 205 540 c 0
 205 585.333 201.333 615.333 194 630 c 128
 186.667 644 177 651 165 651 c 0
 152.333 651 142.333 644 135 630 c 128
 127.667 615.333 124 585.333 124 540 c 0
250 -27 m 1
 167 -27 l 1
 479 728 l 1
 560 728 l 1
 250 -27 l 1
432 161 m 0
 432 226.333 443.667 274 467 304 c 128
 490.333 334.667 521.667 350 561 350 c 0
 600.333 350 631.667 334.667 655 304 c 128
 678.333 274 690 226.333 690 161 c 0
 690 95 678.333 47 655 17 c 128
 631.667 -13.6667 600.667 -29 562 -29 c 0
 522 -29 490.333 -13.6667 467 17 c 128
 443.667 47 432 95 432 161 c 0
520 161 m 0
 520 115.667 523.667 85.6667 531 71 c 128
 538.333 57 548 50 560 50 c 0
 572.667 50 582.667 57 590 71 c 128
 597.333 85.6667 601 115.667 601 161 c 0
 601 206.333 597.333 236.333 590 251 c 128
 582.667 265 573 272 561 272 c 0
 548.333 272 538.333 265 531 251 c 128
 523.667 236.333 520 206.333 520 161 c 0
EndSplineSet
EndChar
StartChar: ampersand
Encoding: 38 38 9
Width: 591
VWidth: 2048
Flags: W
HStem: -13 114<227 248> 631 97<271 279>
VStem: 36 115<188 206> 110 110<567 580> 337 99<556 580>
DStem: 229 328 329 394 343 155 411 263
Fore
579 87 m 1xd8
 511 -19 l 1
 477.667 1 445.667 28.3333 415 63 c 1
 390.333 36.3333 364.667 17 338 5 c 128
 310.667 -7 279.333 -13 244 -13 c 0
 173.333 -13 121 8.66667 87 52 c 128
 53 94.6667 36 142.667 36 196 c 0xe8
 36 288 80.6667 361.333 170 416 c 1
 130 472.667 110 525 110 573 c 0
 110 619 125 656.333 155 685 c 128
 185 713.667 224.667 728 274 728 c 0
 322 728 361 713 391 683 c 128
 421 653 436 613.667 436 565 c 0
 436 534.333 428.333 506 413 480 c 128
 398.333 454 370.333 425.333 329 394 c 1
 411 263 l 1
 419.667 283 428 310 436 344 c 1
 537 316 l 1
 521.667 246 504.667 196.667 486 168 c 1
 498.667 154 515 138.667 535 122 c 128
 555 104.667 569.667 93 579 87 c 1xd8
273 477 m 1
 303 505 l 2
 325.667 526.333 337 547 337 567 c 0
 337 586.333 331.333 602 320 614 c 128
 308.667 625.333 294.333 631 277 631 c 0
 259.667 631 246 626 236 616 c 128
 225.333 605.333 220 592.667 220 578 c 0xd8
 220 560.667 228.333 540 245 516 c 2
 273 477 l 1
229 328 m 1
 177 295.158 151 252.825 151 201 c 0xe8
 151 170.333 159.333 146 176 128 c 128
 192.667 110 213.667 101 239 101 c 0
 273 101 307.667 119 343 155 c 1
 229 328 l 1
EndSplineSet
EndChar
StartChar: quotesingle
Encoding: 39 39 10
Width: 194
VWidth: 2048
Flags: W
HStem: 696 20G<37 159>
VStem: 37 122<594 716>
Fore
58 461 m 1
 37 595 l 1
 37 716 l 1
 159 716 l 1
 159 595 l 1
 141 461 l 1
 58 461 l 1
EndSplineSet
EndChar
StartChar: parenleft
Encoding: 40 40 11
Width: 272
VWidth: 2048
Flags: W
HStem: 708 20G<169 246>
Fore
42 260 m 0
 42 424.874 84.3333 580.874 169 728 c 1
 246 728 l 1
 208.667 626.667 183.333 541.667 170 473 c 128
 156.667 405 150 332.667 150 256 c 0
 150 177.333 159.333 94 178 6 c 0
 191.333 -55.3333 213.667 -127.333 245 -210 c 1
 168 -210 l 1
 127.333 -137.333 96.3333 -60 75 22 c 128
 53 104 42 183.333 42 260 c 0
EndSplineSet
EndChar
StartChar: parenright
Encoding: 41 41 12
Width: 272
VWidth: 2048
Flags: W
HStem: 708 20G<27 104>
Fore
230 267 m 0
 230 99.5377 188.333 -59.4623 105 -210 c 1
 28 -210 l 1
 91.3333 -44.2553 123 111.078 123 256 c 0
 123 332.667 116.333 405 103 473 c 128
 89.6667 541.667 64.3333 626.667 27 728 c 1
 104 728 l 1
 146 654.667 177.333 578.667 198 500 c 128
 219.333 422 230 344.333 230 267 c 0
EndSplineSet
EndChar
StartChar: asterisk
Encoding: 42 42 13
Width: 318
VWidth: 2048
Flags: W
HStem: 708 20G<119 190>
Fore
98 387 m 1
 38 444 l 1
 50.6667 461.333 63 477.333 75 492 c 2
 113 538 l 1
 107 539.333 88 544.667 56 554 c 0
 33.3333 560.667 18.3333 565.667 11 569 c 1
 35 655 l 1
 68.3333 638.333 99.3333 619.333 128 598 c 1
 122 650.667 119 694 119 728 c 1
 190 728 l 1
 190 704.667 186.333 661 179 597 c 1
 214 616 l 2
 238 629.333 260 640.667 280 650 c 1
 302 562 l 1
 272 554 237.667 546 199 538 c 1
 270 439 l 1
 208 390 l 1
 154 499 l 1
 138.667 465.667 120 428.333 98 387 c 1
EndSplineSet
EndChar
StartChar: plus
Encoding: 43 43 14
Width: 479
VWidth: 2048
Flags: W
HStem: 289 128<34 188 290 444>
VStem: 188 102<103 289 417 604>
Fore
188 103 m 1
 188 289 l 1
 34 289 l 1
 34 417 l 1
 188 417 l 1
 188 604 l 1
 290 604 l 1
 290 417 l 1
 444 417 l 1
 444 289 l 1
 290 289 l 1
 290 103 l 1
 188 103 l 1
EndSplineSet
EndChar
StartChar: comma
Encoding: 44 44 15
Width: 228
VWidth: 2048
Flags: W
HStem: -20 20G<56 110>
VStem: 56 112<0 137>
Fore
56 137 m 1
 168 137 l 1
 168 39 l 2
 168 -16.3333 161.667 -57.6667 149 -85 c 0
 133 -118.333 106.333 -143.333 69 -160 c 1
 47 -103 l 1
 69 -93.6667 85 -81.3333 95 -66 c 128
 104.333 -50.6667 109.333 -28.6667 110 0 c 1
 56 0 l 1
 56 137 l 1
EndSplineSet
EndChar
StartChar: hyphen
Encoding: 45 45 16
Width: 272
VWidth: 2048
Flags: W
HStem: 191 137<26 247>
Fore
26 191 m 1
 26 328 l 1
 247 328 l 1
 247 191 l 1
 26 191 l 1
EndSplineSet
EndChar
StartChar: period
Encoding: 46 46 17
Width: 228
VWidth: 2048
Flags: W
HStem: 0 21G<59 172>
VStem: 59 113<0 137>
Fore
59 0 m 1
 59 137 l 1
 172 137 l 1
 172 0 l 1
 59 0 l 1
EndSplineSet
EndChar
StartChar: slash
Encoding: 47 47 18
Width: 228
VWidth: 2048
Flags: W
HStem: -12 21G<-1 82> 708 20G<145 229>
DStem: 145 728 229 728 -1 -12 82 -12
Fore
-1 -12 m 1
 145 728 l 1
 229 728 l 1
 82 -12 l 1
 -1 -12 l 1
EndSplineSet
EndChar
StartChar: zero
Encoding: 48 48 19
Width: 456
VWidth: 2048
Flags: W
HStem: -12 114<215.194 228> 605 114<215.313 228>
VStem: 35 117<307 405> 298 118<353 405>
Fore
225 719 m 0
 282.333 719 328.333 691.667 363 637 c 128
 398.333 583 416 488.333 416 353 c 0
 416 217.667 398.333 123 363 69 c 128
 328.333 15 282.667 -12 226 -12 c 0
 168.667 -12 122.333 14.6667 87 68 c 128
 52.3333 122 35 217.333 35 354 c 0
 35 488.667 52.3333 583 87 637 c 128
 122.333 691.667 168.333 719 225 719 c 0
225 605 m 0
 203 605 185.333 590.333 172 561 c 128
 158.667 531.667 152 462.333 152 353 c 0
 152 243.667 158.667 174.333 172 145 c 128
 185.333 116.333 203 102 225 102 c 0
 247.667 102 265.333 116.667 278 146 c 128
 291.333 174.667 298 243.667 298 353 c 0
 298 462.333 291.333 531.667 278 561 c 128
 265.333 590.333 247.667 605 225 605 c 0
EndSplineSet
EndChar
StartChar: one
Encoding: 49 49 20
Width: 456
VWidth: 2048
Flags: W
HStem: 0 21G<210 323> 699 20G<232 323>
VStem: 210 113<0 719>
Fore
323 0 m 1
 210 0 l 1
 210 517 l 1
 168 469.667 119.667 435 65 413 c 1
 65 538 l 1
 96.3333 550.667 128.667 573.333 162 606 c 128
 195.333 638.667 218.667 676.333 232 719 c 1
 323 719 l 1
 323 0 l 1
EndSplineSet
KernsSLIF: 49 -45 0 0
EndChar
StartChar: two
Encoding: 50 50 21
Width: 456
VWidth: 2048
Flags: W
HStem: 0 127<191 415> 605 114<212 231>
VStem: 302 113<505 529>
Fore
415 127 m 1
 415 0 l 1
 21 0 l 1
 25 48 37.6667 93.6667 59 137 c 128
 81 181 123.333 238.333 186 309 c 0
 235.333 365 265.667 403 277 423 c 0
 293.667 451.667 302 480.667 302 510 c 0
 302 541.333 295 565 281 581 c 128
 267 597 248.667 605 226 605 c 0
 176 605 149.333 567.667 146 493 c 1
 34 507 l 1
 40.6667 579.667 60.6667 633 94 667 c 128
 128 701.667 173 719 229 719 c 0
 290.333 719 336.667 699 368 659 c 128
 399.333 619 415 573 415 521 c 0
 415 463.88 398.667 407.88 366 353 c 128
 349.333 325 321.667 289.333 283 246 c 0
 247 205.333 224.333 178.667 215 166 c 128
 205 152.667 197 139.667 191 127 c 1
 415 127 l 1
EndSplineSet
EndChar
StartChar: three
Encoding: 51 51 22
Width: 456
VWidth: 2048
Flags: W
HStem: -12 114<215 230> 333 102<188 227> 606 113<206 228>
VStem: 281 114<515 537> 305 116<204 229>
Fore
395 535 m 0xf0
 395 472.778 366.667 422.778 310 385 c 1
 342.667 376.333 369.333 357 390 327 c 128
 410.667 297 421 259.333 421 214 c 0xe8
 421 148.667 401.667 94.6667 363 52 c 128
 323.667 9.33333 277.333 -12 224 -12 c 0
 172 -12 128.333 6 93 42 c 128
 57.6667 78 37 127.333 31 190 c 1
 140 206 l 1
 142.667 172 151.667 146 167 128 c 128
 183 110.667 201.667 102 223 102 c 0
 245.667 102 265 112.333 281 133 c 128xf0
 297 154.333 305 183.667 305 221 c 0xe8
 305 255.667 297.333 283 282 303 c 128
 266.667 323 248.333 333 227 333 c 0
 212.333 333 195 329.667 175 323 c 1
 188 435 l 1
 216.667 434.333 239.333 442 256 458 c 0
 272.667 474 281 497 281 527 c 0
 281 551.667 275 571 263 585 c 128
 251 599 235.667 606 217 606 c 0
 197.667 606 181.333 598 168 582 c 128
 154 566 145.667 542 143 510 c 1
 39 532 l 1
 49.6667 597.333 70.6667 644.667 102 674 c 128
 133.333 704 172.667 719 220 719 c 0
 273.333 719 315.667 700 347 662 c 128
 379 623.333 395 581 395 535 c 0xf0
EndSplineSet
EndChar
StartChar: four
Encoding: 52 52 23
Width: 456
VWidth: 2048
Flags: W
HStem: 0 21G<255 364> 144 121<121 255 364 437> 699 20G<270 364>
VStem: 255 109<0 144 265 719>
DStem: 270 719 255 509 15 264 121 265
Fore
255 0 m 1
 255 144 l 1
 15 144 l 1
 15 264 l 1
 270 719 l 1
 364 719 l 1
 364 265 l 1
 437 265 l 1
 437 144 l 1
 364 144 l 1
 364 0 l 1
 255 0 l 1
255 265 m 1
 255 509 l 1
 121 265 l 1
 255 265 l 1
EndSplineSet
EndChar
StartChar: five
Encoding: 53 53 24
Width: 456
VWidth: 2048
Flags: W
HStem: -12 110<227 233> 370 109<229 252> 578 128<108 405>
VStem: 316 115<227 261>
DStem: 108 706 193 578 50 333 175 456
Fore
37 184 m 1
 149 198 l 1
 151.667 166.667 161.333 142.333 178 125 c 128
 194 107 211.667 98 231 98 c 0
 254.333 98 274.333 109.333 291 132 c 128
 307.667 155.333 316 190.667 316 238 c 0
 316 282.667 307.667 315.667 291 337 c 128
 275 359 254.333 370 229 370 c 0
 196.333 370 167.333 352.333 142 317 c 1
 50 333 l 1
 108 706 l 1
 405 706 l 1
 405 578 l 1
 193 578 l 1
 175 456 l 1
 200.333 471.333 226 479 252 479 c 0
 298.667 479 338 460.667 370 424 c 0
 410.667 377.333 431 316 431 240 c 0
 431 177.333 413.667 119.667 379 67 c 128
 344.333 14.3333 294.667 -12 230 -12 c 0
 178 -12 134.667 5 100 39 c 128
 64.6667 73 43.6667 121.333 37 184 c 1
EndSplineSet
EndChar
StartChar: six
Encoding: 54 54 25
Width: 456
VWidth: 2048
Flags: W
HStem: -12 114<237 256> 364 101<239 256> 606 113<237 252>
VStem: 35 127<241 349> 317 110<211 245>
Fore
416 541 m 1
 307 526 l 1
 301.667 579.333 280.333 606 243 606 c 0
 219 606 198.667 592.667 182 566 c 128
 166 539.333 156 485.333 152 404 c 1
 179.549 444.667 214.215 465 256 465 c 0
 302 465 342 443.667 376 401 c 128
 410 357.667 427 300.667 427 230 c 0
 427 154.667 409 95.3333 373 52 c 128
 337 9.33333 292.333 -12 239 -12 c 0
 180.333 -12 131.667 16 93 72 c 128
 54.3333 127.333 35 219.667 35 349 c 0
 35 480.333 55 574.667 95 632 c 128
 135 690 186.667 719 250 719 c 0
 292.667 719 329 704.333 359 675 c 128
 389 645 408 600.333 416 541 c 1
162 241 m 0
 162 195.667 170.333 161 187 137 c 128
 203.667 113.667 222.667 102 244 102 c 0
 264.667 102 282 111.667 296 131 c 128
 310 151 317 183.667 317 229 c 0
 317 275.667 309.333 310 294 332 c 128
 279.333 353.333 261 364 239 364 c 0
 217.667 364 199.333 353.667 184 333 c 128
 169.333 312.333 162 281.667 162 241 c 0
EndSplineSet
EndChar
StartChar: seven
Encoding: 55 55 26
Width: 456
VWidth: 2048
Flags: W
HStem: 0 21G<113 222> 579 127<35 291>
Fore
35 579 m 1
 35 706 l 1
 419 706 l 1
 419 606 l 1
 387.667 568 355.667 514 323 444 c 128
 291 374 266 299 248 219 c 128
 230.667 138.333 222 65.3333 222 0 c 1
 113 0 l 1
 115.667 101.333 132.667 202.667 164 304 c 128
 195.333 405.333 237.667 497 291 579 c 1
 35 579 l 1
EndSplineSet
EndChar
StartChar: eight
Encoding: 56 56 27
Width: 456
VWidth: 2048
Flags: W
HStem: -13 111<223 231> 328 110<223 232> 610 109<213.434 232>
VStem: 34 111<203 228> 48 107<514 538> 295 106<514 537> 308 112<194 228>
Fore
132 386 m 1xf2
 76 415.333 48 464.667 48 534 c 0
 48 590.667 64 635.667 96 669 c 128
 128 702.333 171 719 225 719 c 0
 282.333 719 326 701 356 665 c 128
 386 629.667 401 586.333 401 535 c 0xec
 401 500.333 393.667 470.333 379 445 c 128
 364.333 419 344.667 399.333 320 386 c 1
 386.667 354 420 295 420 209 c 0
 420 165 411.667 126 395 92 c 128
 379 58 356.333 32 327 14 c 128
 298.333 -4 265.667 -13 229 -13 c 0
 173 -13 126.333 6.66667 89 46 c 128
 52.3333 85.3333 34 138.333 34 205 c 0
 34 247.667 42.3333 284.333 59 315 c 128
 75.6667 346.333 100 370 132 386 c 1xf2
155 524 m 0
 155 496 161.667 474.667 175 460 c 128
 187.667 445.333 204.333 438 225 438 c 0
 245 438 261.667 445.333 275 460 c 128
 288.333 474.667 295 496 295 524 c 0
 295 551.333 288.667 572.333 276 587 c 128
 262.667 602.333 246 610 226 610 c 0
 205.333 610 188.333 602.333 175 587 c 128
 161.667 571.667 155 550.667 155 524 c 0
145 218 m 0xf2
 145 179.333 153 149.667 169 129 c 128
 185 108.333 204.667 98 228 98 c 0
 250.667 98 269.667 107.667 285 127 c 128
 300.333 147 308 177 308 217 c 0
 308 251 300 278 284 298 c 128
 268.667 318 249.333 328 226 328 c 0
 203.333 328 184 318 168 298 c 128
 152.667 278 145 251.333 145 218 c 0xf2
EndSplineSet
EndChar
StartChar: nine
Encoding: 57 57 28
Width: 456
VWidth: 2048
Flags: W
HStem: -13 114<197 218> 242 100<196 215> 605 114<200 218>
VStem: 26 110<476 500> 292 126<357 465>
Fore
37 166 m 1
 146 180 l 1
 151.333 127.333 172.333 101 209 101 c 0
 234.333 101 255 114 271 140 c 128
 287 166.667 297.333 220.667 302 302 c 1
 274 262 238.667 242 196 242 c 0
 151.333 242 111.667 263.333 77 306 c 128
 43 348.667 26 405.333 26 476 c 0
 26 551.333 44 610.667 80 654 c 128
 116 697.333 160.667 719 214 719 c 0
 273.333 719 322 691 360 635 c 128
 398.667 579 418 486.333 418 357 c 0
 418 225.667 398 131.333 358 74 c 128
 318 16 266 -13 202 -13 c 0
 158 -13 121.667 1.66667 93 31 c 128
 63.6667 60.3333 45 105.333 37 166 c 1
292 465 m 0
 292 510.333 283.667 545 267 569 c 128
 249.667 593 230.333 605 209 605 c 0
 188.333 605 171 595 157 575 c 128
 143 555 136 522 136 476 c 0
 136 430 143.667 396.333 159 375 c 128
 174.333 353 193 342 215 342 c 0
 236.333 342 254.333 352.333 269 373 c 128
 284.333 393.667 292 424.333 292 465 c 0
EndSplineSet
EndChar
StartChar: colon
Encoding: 58 58 29
Width: 272
VWidth: 2048
Flags: W
HStem: 0 21G<80 193> 499 20G<80 193>
VStem: 80 113<0 137 381 519>
Fore
80 381 m 1
 80 519 l 1
 193 519 l 1
 193 381 l 1
 80 381 l 1
80 0 m 1
 80 137 l 1
 193 137 l 1
 193 0 l 1
 80 0 l 1
EndSplineSet
EndChar
StartChar: semicolon
Encoding: 59 59 30
Width: 272
VWidth: 2048
Flags: W
HStem: -20 20G<77 131> 499 20G<77 189>
VStem: 77 112<0 137 381 519>
Fore
77 381 m 1
 77 519 l 1
 189 519 l 1
 189 381 l 1
 77 381 l 1
77 137 m 1
 189 137 l 1
 189 39 l 2
 189 -16.3333 182.667 -57.6667 170 -85 c 0
 154 -118.333 127.333 -143.333 90 -160 c 1
 68 -103 l 1
 90 -93.6667 106 -81.3333 116 -66 c 128
 125.333 -50 130.333 -28 131 0 c 1
 77 0 l 1
 77 137 l 1
EndSplineSet
EndChar
StartChar: less
Encoding: 60 60 31
Width: 479
VWidth: 2048
Flags: W
Fore
440 82 m 1
 38 295 l 1
 38 413 l 1
 440 625 l 1
 440 486 l 1
 160 355 l 1
 440 220 l 1
 440 82 l 1
EndSplineSet
EndChar
StartChar: equal
Encoding: 61 61 32
Width: 479
VWidth: 2048
Flags: W
HStem: 182 126<34 444> 398 126<34 444>
Fore
34 398 m 1
 34 524 l 1
 444 524 l 1
 444 398 l 1
 34 398 l 1
34 182 m 1
 34 308 l 1
 444 308 l 1
 444 182 l 1
 34 182 l 1
EndSplineSet
EndChar
StartChar: greater
Encoding: 62 62 33
Width: 479
VWidth: 2048
Flags: W
Fore
38 81 m 1
 38 219 l 1
 319 354 l 1
 38 487 l 1
 38 625 l 1
 440 412 l 1
 440 295 l 1
 38 81 l 1
EndSplineSet
EndChar
StartChar: question
Encoding: 63 63 34
Width: 500
VWidth: 2048
Flags: W
HStem: 0 21G<199 312> 619 104<249 267>
VStem: 199 113<0 137> 354 110<511 529>
Fore
301 185 m 1
 199 185 l 1
 198 216 l 1
 198 258 203.667 292 215 318 c 128
 225.667 344 247 372.667 279 404 c 0
 315 439.333 336.333 463.333 343 476 c 128
 350.333 489.333 354 504.333 354 521 c 0
 354 549.667 344.667 573 326 591 c 128
 308 609.667 285 619 257 619 c 0
 197 619 160 578.667 146 498 c 1
 42 514 l 1
 45.3333 574.667 66.6667 624.667 106 664 c 128
 145.333 703.333 194.333 723 253 723 c 0
 313.667 723 364 703.333 404 664 c 128
 444 624.667 464 575.667 464 517 c 0
 464 487 457 458.333 443 431 c 128
 429 404.333 399 367.667 353 321 c 0
 329 297 314 277.667 308 263 c 128
 302.667 248.333 300.333 222.333 301 185 c 1
199 0 m 1
 199 137 l 1
 312 137 l 1
 312 0 l 1
 199 0 l 1
EndSplineSet
EndChar
StartChar: at
Encoding: 64 64 35
Width: 799
VWidth: 2048
Flags: W
HStem: -210 89<407 463> 0 89<329 352> 441 88<390 409> 639 90<407 461>
VStem: 24 73<198 255> 175 104<189 232> 704 72<329 383>
Fore
436 -121 m 0
 563.333 -121 655 -77.6667 711 9 c 1
 796 9 l 1
 768 -61 724 -115 664 -153 c 128
 604 -191 530.667 -210 444 -210 c 0
 267.677 -210 145.01 -141.667 76 -5 c 128
 41.3333 62.3333 24 143 24 237 c 0
 24 333.667 43 420.667 81 498 c 128
 118.333 575.333 167.333 633 228 671 c 128
 288.667 709.667 357.667 729 435 729 c 0
 501 729 559.667 713.333 611 682 c 128
 662.333 651.333 702.667 607.333 732 550 c 128
 761.333 492 776 426 776 352 c 0
 776 267.333 753.667 190.333 709 121 c 0
 657 40.3333 591 3.46945e-18 511 0 c 0
 489.667 0 473 4.33333 461 13 c 128
 449.667 21.6667 442 36 438 56 c 1
 406.667 18.6667 370.333 1.73472e-18 329 0 c 0
 286.333 0 250 18.3333 220 55 c 128
 190 91 175 140.667 175 204 c 0
 175 265.333 186.333 323 209 377 c 128
 252.786 478.333 313.786 529 392 529 c 0
 438.667 529 474 507 498 463 c 1
 507 517 l 1
 613 517 l 1
 553 167 l 2
 549 144.333 547 129.667 547 123 c 0
 547 115.667 548.667 110 552 106 c 128
 554.667 102 558 100 562 100 c 0
 574.667 100 591 109 611 127 c 0
 638.333 151 660.667 184 678 226 c 128
 695.333 268 704 311.333 704 356 c 0
 704 410.667 692 460.333 668 505 c 128
 621.333 594.333 543 639 433 639 c 0
 299.695 639 202.695 575.667 142 449 c 128
 112 385 97 311.667 97 229 c 0
 97 158.333 111.333 96 140 42 c 128
 196.346 -66.6667 295.013 -121 436 -121 c 0
279 210 m 0
 279 168 286 137.333 300 118 c 128
 314 98.6667 331.333 89 352 89 c 0
 394.563 89 428.563 126 454 200 c 128
 468.667 242 476 284.667 476 328 c 0
 476 364.667 468.667 392.667 454 412 c 128
 440 431.333 422.667 441 402 441 c 0
 369.333 441 342.667 422.667 322 386 c 0
 293.333 334 279 275.333 279 210 c 0
EndSplineSet
EndChar
StartChar: A
Encoding: 65 65 36
Width: 591
VWidth: 2048
Flags: W
HStem: 0 21G<0 126 460 589> 163 120<210 409> 696 20G<229 354>
DStem: 229 716 290 549 0 0 210 283 229 716 174 163 0 0 126 0
Fore
589 0 m 1
 460 0 l 1
 409 163 l 1
 174 163 l 1
 126 0 l 1
 0 0 l 1
 229 716 l 1
 354 716 l 1
 589 0 l 1
371 283 m 1
 290 549 l 1
 210 283 l 1
 371 283 l 1
EndSplineSet
KernsSLIF: 356 -60 0 0 354 -60 0 0 8217 -45 0 0 121 -30 0 0 119 -14 0 0 118 -30 0 0 89 -75 0 0 87 -45 0 0 86 -60 0 0 84 -60 0 0 32 -30 0 0
EndChar
StartChar: B
Encoding: 66 66 37
Width: 591
VWidth: 2048
Flags: W
HStem: 0 121<178 333> 312 119<178 317> 597 119<60 301>
VStem: 60 118<0 312 0 597> 407 115<514 536> 429 122<206 225>
Fore
60 716 m 1xf4
 294 716 l 2
 358.667 716 404 710 430 698 c 128
 456 686.667 478 666 496 636 c 128
 513.333 606.667 522 573.333 522 536 c 0
 522 501.333 514.667 470 500 442 c 128
 484.667 414 464.667 393.333 440 380 c 1
 474.667 368 502 347 522 317 c 128xf8
 541.333 287 551 250.667 551 208 c 0
 551 155.333 538.667 111 514 75 c 128
 488.667 39 459 17 425 9 c 0
 401 3 345.667 0 259 0 c 2
 60 0 l 1
 60 716 l 1xf4
178 597 m 1
 178 431 l 1
 256 431 l 2
 302.667 431 331.667 432 343 434 c 0
 363 436.667 378.667 445 390 459 c 128
 401.333 473 407 492 407 516 c 0
 407 536.667 402.333 553.667 393 567 c 128
 383.667 580.333 372.667 588.667 360 592 c 128
 346.667 595.333 308.667 597 246 597 c 2
 178 597 l 1
178 312 m 1
 178 121 l 1
 288 121 l 2
 336 121 366.667 123.333 380 128 c 128
 394 133.333 405.667 143.333 415 158 c 128
 424.333 172.667 429 191.333 429 214 c 0xf4
 429 238 424 257.333 414 272 c 128
 404 287.333 390.667 297.667 374 303 c 128
 358 309 324.333 312 273 312 c 2
 178 312 l 1
EndSplineSet
EndChar
StartChar: C
Encoding: 67 67 38
Width: 591
VWidth: 2048
Flags: W
HStem: -12 123<294 316> 604 124<294 316>
VStem: 39 122<323 389>
Fore
436 263 m 1
 550 219 l 1
 515.35 65 434.35 -12 307 -12 c 0
 230.333 -12 168.333 17.3333 121 76 c 0
 66.3333 144 39 236 39 352 c 0
 39 474 66.6667 569.333 122 638 c 0
 169.333 698 233.333 728 314 728 c 0
 380 728 435 705.667 479 661 c 0
 511 629 534.333 581.667 549 519 c 1
 432 484 l 1
 424 522.667 409 552.333 387 573 c 128
 365 593.667 338.667 604 308 604 c 0
 264.667 604 229.333 585.333 202 548 c 128
 174.667 510 161 447.667 161 361 c 0
 161 271 174.333 206.667 201 168 c 128
 227.667 130 262.333 111 305 111 c 0
 336.333 111 363.333 123.333 386 148 c 128
 408.667 172 425.333 210.333 436 263 c 1
EndSplineSet
EndChar
StartChar: D
Encoding: 68 68 39
Width: 591
VWidth: 2048
Flags: W
HStem: 0 21G<59 282> 595 121<59 277>
VStem: 59 118<0 595> 429 122<319 385>
Fore
59 716 m 1
 275 716 l 2
 329.667 716 371 710 399 698 c 128
 461.361 669.789 505.361 611.456 531 523 c 128
 544.333 477 551 419.667 551 351 c 0
 551 289 544 235 530 189 c 128
 516 143.667 498.333 107.667 477 81 c 128
 455.667 54.3333 429.667 34 399 20 c 128
 369 6.66667 330 4.33681e-19 282 0 c 2
 59 0 l 1
 59 716 l 1
177 595 m 1
 177 121 l 1
 266 121 l 2
 304 121 331.667 124.333 349 131 c 128
 366.333 138.333 380.333 149.333 391 164 c 128
 416.333 198.833 429 262.833 429 356 c 0
 429 452.783 414 518.783 384 554 c 129
 368 571.333 349 582.667 327 588 c 0
 310.333 592.667 278.333 595 231 595 c 2
 177 595 l 1
EndSplineSet
EndChar
StartChar: E
Encoding: 69 69 40
Width: 546
VWidth: 2048
Flags: W
HStem: 0 121<178 506> 315 121<178 473> 595 121<60 496>
VStem: 60 118<0 315 0 595>
Fore
60 0 m 1
 60 716 l 1
 496 716 l 1
 496 595 l 1
 178 595 l 1
 178 436 l 1
 473 436 l 1
 473 315 l 1
 178 315 l 1
 178 121 l 1
 506 121 l 1
 506 0 l 1
 60 0 l 1
EndSplineSet
EndChar
StartChar: F
Encoding: 70 70 41
Width: 500
VWidth: 2048
Flags: W
HStem: 0 21G<61 179> 304 121<179 424> 595 121<61 463>
VStem: 61 118<0 304 0 595>
Fore
61 0 m 1
 61 716 l 1
 463 716 l 1
 463 595 l 1
 179 595 l 1
 179 425 l 1
 424 425 l 1
 424 304 l 1
 179 304 l 1
 179 0 l 1
 61 0 l 1
EndSplineSet
KernsSLIF: 260 -45 0 0 65 -45 0 0 46 -91 0 0 44 -91 0 0
EndChar
StartChar: G
Encoding: 71 71 42
Width: 638
VWidth: 2048
Flags: W
HStem: -12 123<311 345> 263 121<333 469> 604 124<331 345>
VStem: 40 122<339 389> 469 119<171 384>
Fore
331 728 m 0
 471.841 728 555.175 658 581 518 c 1
 463 491 l 1
 454.333 527.667 438.333 555.667 415 575 c 128
 391.667 594.333 363.667 604 331 604 c 0
 280.333 604 239.333 584.667 208 546 c 128
 177.333 506.667 162 446.667 162 366 c 0
 162 280 178.667 214.333 212 169 c 0
 241.333 130.333 280.667 111 330 111 c 0
 353.333 111 377.333 116.667 402 128 c 128
 426.667 138.667 449 153.333 469 172 c 1
 469 263 l 1
 333 263 l 1
 333 384 l 1
 588 384 l 1
 588 99 l 1
 562.667 68.3333 526.333 42.3333 479 21 c 128
 431.667 -1 384.333 -12 337 -12 c 0
 279 -12 228 2.33333 184 31 c 128
 139.333 59 104 101.333 78 158 c 128
 52.6667 215.333 40 282.333 40 359 c 0
 40 437.667 53 505 79 561 c 128
 130.691 672.333 214.691 728 331 728 c 0
EndSplineSet
EndChar
StartChar: H
Encoding: 72 72 43
Width: 591
VWidth: 2048
Flags: W
HStem: 0 21G<60 178 411 529> 313 121<178 411> 696 20G<60 178 411 529>
VStem: 60 118<0 313 0 716> 411 118<0 716>
Fore
60 0 m 1
 60 716 l 1
 178 716 l 1
 178 434 l 1
 411 434 l 1
 411 716 l 1
 529 716 l 1
 529 0 l 1
 411 0 l 1
 411 313 l 1
 178 313 l 1
 178 0 l 1
 60 0 l 1
EndSplineSet
EndChar
StartChar: I
Encoding: 73 73 44
Width: 228
VWidth: 2048
Flags: W
HStem: 0 21G<56 174> 696 20G<56 174>
VStem: 56 118<0 716>
Fore
56 0 m 1
 56 716 l 1
 174 716 l 1
 174 0 l 1
 56 0 l 1
EndSplineSet
EndChar
StartChar: J
Encoding: 74 74 45
Width: 456
VWidth: 2048
Flags: W
HStem: -12 123<189 207> 696 20G<271 390>
VStem: 271 119<219 716>
Fore
271 716 m 1
 390 716 l 1
 390 263 l 2
 390 189.667 382.667 135 368 99 c 128
 353.333 63 331.333 35.6667 302 17 c 128
 273.333 -2.33333 237.667 -12 195 -12 c 0
 138.333 -12 94 7.33333 62 46 c 128
 30.6667 84.6667 14.6667 143 14 221 c 1
 126 237 l 1
 127.333 195 132.667 165 142 147 c 0
 154.667 123 173.667 111 199 111 c 0
 223.667 111 242 119.667 254 137 c 128
 265.333 155 271 193.667 271 253 c 2
 271 716 l 1
EndSplineSet
EndChar
StartChar: K
Encoding: 75 75 46
Width: 591
VWidth: 2048
Flags: W
HStem: 0 21G<61 179 437 590> 696 20G<61 179 419 579>
VStem: 61 118<0 216 0 716>
Fore
61 0 m 1
 61 716 l 1
 179 716 l 1
 179 398 l 1
 419 716 l 1
 579 716 l 1
 357 437 l 1
 590 0 l 1
 437 0 l 1
 275 336 l 1
 179 216 l 1
 179 0 l 1
 61 0 l 1
EndSplineSet
EndChar
StartChar: L
Encoding: 76 76 47
Width: 500
VWidth: 2048
Flags: W
HStem: 0 121<180 476>
VStem: 63 118<0 710>
Fore
63 0 m 1
 63 710 l 1
 181 710 l 1
 181 121 l 1
 476 121 l 1
 476 0 l 1
 63 0 l 1
EndSplineSet
KernsSLIF: 356 -60 0 0 354 -60 0 0 8217 -45 0 0 121 -30 0 0 89 -75 0 0 87 -45 0 0 86 -60 0 0 84 -60 0 0 32 -14 0 0
EndChar
StartChar: M
Encoding: 77 77 48
Width: 683
VWidth: 2048
Flags: W
HStem: 0 21G<58 168 284 398 515 625> 696 20G<58 235 447 625>
VStem: 58 110<0 563> 515 110<0 716>
DStem: 168 563 235 716 284 0 342 228 447 716 515 563 342 228 398 0
Fore
58 0 m 1
 58 716 l 1
 235 716 l 1
 342 228 l 1
 447 716 l 1
 625 716 l 1
 625 0 l 1
 515 0 l 1
 515 563 l 1
 398 0 l 1
 284 0 l 1
 168 563 l 1
 168 0 l 1
 58 0 l 1
EndSplineSet
EndChar
StartChar: N
Encoding: 78 78 49
Width: 591
VWidth: 2048
Flags: W
HStem: 0 21G<61 171 408 527> 696 20G<61 176 417 527>
VStem: 61 110<0 467> 417 110<238 716>
DStem: 171 467 176 716 408 0 417 238
Fore
61 0 m 1
 61 716 l 1
 176 716 l 1
 417 238 l 1
 417 716 l 1
 527 716 l 1
 527 0 l 1
 408 0 l 1
 171 467 l 1
 171 0 l 1
 61 0 l 1
EndSplineSet
EndChar
StartChar: O
Encoding: 79 79 50
Width: 638
VWidth: 2048
Flags: W
HStem: -12 123<321 325> 604 124<321 325>
VStem: 36 122<323 389> 483 122<339 389>
Fore
36 354 m 0
 36 438.667 48.6667 508.667 74 564 c 128
 99.3333 619.333 132.333 660.667 173 688 c 128
 213.667 714.667 263 728 321 728 c 0
 405 728 473.333 696 526 632 c 128
 578.667 568 605 476.667 605 358 c 0
 605 238 577 144.333 521 77 c 0
 472.333 17.6667 405.667 -12 321 -12 c 0
 236.333 -12 169.333 17.3333 120 76 c 0
 64 143.333 36 236 36 354 c 0
158 358 m 0
 158 276 173.667 214.333 205 173 c 128
 236.333 131.667 275 111 321 111 c 0
 367.667 111 406.333 131.667 437 173 c 128
 467.667 213.667 483 276.333 483 361 c 0
 483 443.667 468 505 438 545 c 128
 408.667 584.333 369.667 604 321 604 c 0
 273 604 234 584 204 544 c 128
 173.333 504 158 442 158 358 c 0
EndSplineSet
EndChar
StartChar: P
Encoding: 80 80 51
Width: 546
VWidth: 2048
Flags: W
HStem: 0 21G<60 178> 595 121<60 269>
VStem: 60 118<0 270 0 595> 387 122<479 497>
Fore
60 0 m 1
 60 716 l 1
 250 716 l 2
 320.667 716 367 712.667 389 706 c 0
 423.667 694.667 452.333 671 475 635 c 128
 497.667 599 509 552.333 509 495 c 0
 509 443 499.333 399.667 480 365 c 128
 460.667 329.667 436.333 305 407 291 c 128
 377.667 277 327 270 255 270 c 2
 178 270 l 1
 178 0 l 1
 60 0 l 1
178 595 m 1
 178 392 l 1
 243 392 l 2
 287 392 317 395 333 401 c 128
 348.333 407 361.333 418 372 434 c 128
 382 450 387 470 387 494 c 0
 387 517.333 381.667 537.333 371 554 c 128
 360.333 570 347.667 580.667 333 586 c 128
 317.667 592 285 595 235 595 c 2
 178 595 l 1
EndSplineSet
KernsSLIF: 260 -60 0 0 65 -60 0 0 46 -105 0 0 44 -105 0 0 32 -14 0 0
EndChar
StartChar: Q
Encoding: 81 81 52
Width: 638
VWidth: 2048
Flags: W
HStem: -12 120<307 327> 604 124<307 327>
VStem: 36 122<358 393> 482 122<327 393>
Fore
532 91 m 1
 561.333 65.6667 593 45.3333 627 30 c 1
 583 -72 l 1
 565.667 -65.3333 548.667 -56.3333 532 -45 c 0
 528 -43 501.333 -21.6667 452 19 c 1
 413.333 -1.66667 369 -12 319 -12 c 0
 234.333 -12 166 19.6667 114 83 c 128
 62 146.333 36 238 36 358 c 0
 36 478.667 62.3333 570.333 115 633 c 128
 167 696.333 235.667 728 321 728 c 0
 405.667 728 474 696.333 526 633 c 128
 578 569.667 604 478 604 358 c 0
 604 300 598.333 250 587 208 c 128
 575.667 166 557.333 127 532 91 c 1
437 172 m 1
 467 214.667 482 276.333 482 357 c 0
 482 441 467 503.333 437 544 c 128
 407 584 368 604 320 604 c 0
 272.667 604 233.667 584 203 544 c 128
 173 503.333 158 441.333 158 358 c 0
 158 272.667 173 209.667 203 169 c 128
 233.667 128.333 271.667 108 317 108 c 0
 333.667 108 349.667 111.333 365 118 c 1
 340.333 137.333 316 152.333 292 163 c 1
 325 246 l 1
 364.333 229.333 401.667 204.667 437 172 c 1
EndSplineSet
EndChar
StartChar: R
Encoding: 82 82 53
Width: 591
VWidth: 2048
Flags: W
HStem: 0 21G<60 178 446 587> 595 121<60 317>
VStem: 60 118<0 299 0 595> 418 122<495 518>
DStem: 360 156 516 140 446 0 587 0
Fore
60 0 m 1
 60 716 l 1
 310 716 l 2
 373.333 716 418.667 709.667 446 697 c 128
 473.333 683.667 496 661.333 514 630 c 128
 531.333 598 540 560 540 516 c 0
 540 460 526.667 414.667 500 380 c 128
 472.667 346 434.333 324.667 385 316 c 1
 410.333 298 431.333 278 448 256 c 128
 464.667 234.667 487.333 196 516 140 c 2
 587 0 l 1
 446 0 l 1
 360 156 l 2
 329.333 212 308.333 247 297 261 c 128
 286.333 275.667 274.667 285.667 262 291 c 128
 250 296.333 230.333 299 203 299 c 2
 178 299 l 1
 178 0 l 1
 60 0 l 1
178 413 m 1
 266 413 l 2
 320 413 354.333 415.333 369 420 c 128
 383.667 424.667 395.333 434.333 404 449 c 128
 413.333 463 418 482 418 506 c 0
 418 528.667 413.333 547 404 561 c 128
 395.333 575 383 584.333 367 589 c 0
 356.333 593 324.333 595 271 595 c 2
 178 595 l 1
 178 413 l 1
EndSplineSet
KernsSLIF: 89 -30 0 0 87 -14 0 0 86 -14 0 0
EndChar
StartChar: S
Encoding: 83 83 54
Width: 546
VWidth: 2048
Flags: W
HStem: -13 122<262 287> 608 120<253 275>
VStem: 51 114<526 548> 389 118<194 212>
Fore
30 233 m 1
 146 247 l 1
 158.667 155 201 109 273 109 c 0
 309 109 337.333 118.333 358 137 c 128
 378.667 156.333 389 179.667 389 207 c 0
 389 239 374.333 262.333 345 277 c 128
 330.333 284.333 295 296.333 239 313 c 0
 188.333 328.333 151.333 345 128 363 c 128
 104.667 381 86 404.667 72 434 c 128
 58 463.333 51 494.667 51 528 c 0
 51 566.667 60 601.667 78 633 c 128
 113.035 696.333 176.035 728 267 728 c 0
 336.333 728 390.333 709.333 429 672 c 128
 467.667 634.667 488 581 490 511 c 1
 372 505 l 1
 366.667 543 355.333 569.667 338 585 c 128
 320.667 600.333 296 608 264 608 c 0
 232 608 207.333 601.333 190 588 c 128
 173.333 574.667 165 558.333 165 539 c 0
 165 519 172.667 502.333 188 489 c 0
 203.333 475.667 239.333 461 296 445 c 0
 355.333 427.667 398.333 409.667 425 391 c 128
 479.667 351.367 507 290.367 507 208 c 0
 507 145.333 487.667 93 449 51 c 128
 411 8.33333 351.333 -13 270 -13 c 0
 126 -13 46 69 30 233 c 1
EndSplineSet
EndChar
StartChar: T
Encoding: 84 84 55
Width: 500
VWidth: 2048
Flags: W
HStem: 0 21G<192 310> 595 121<18 192 18 484>
VStem: 192 118<0 595>
Fore
192 0 m 1
 192 595 l 1
 18 595 l 1
 18 716 l 1
 484 716 l 1
 484 595 l 1
 310 595 l 1
 310 0 l 1
 192 0 l 1
EndSplineSet
KernsSLIF: 336 -14 0 0 281 -60 0 0 261 -60 0 0 260 -60 0 0 121 -60 0 0 119 -60 0 0 117 -60 0 0 115 -60 0 0 114 -45 0 0 111 -60 0 0 105 -14 0 0 101 -60 0 0 99 -60 0 0 97 -60 0 0 79 -14 0 0 65 -60 0 0 59 -91 0 0 58 -91 0 0 46 -91 0 0 45 -45 0 0 44 -91 0 0
EndChar
StartChar: U
Encoding: 85 85 56
Width: 591
VWidth: 2048
Flags: W
HStem: -12 123<282 302> 696 20G<59 177 408 527>
VStem: 59 118<275 716> 408 119<275 716>
Fore
59 716 m 1
 177 716 l 1
 177 328 l 2
 177 268 178.333 228.667 181 210 c 0
 186.333 178.667 199 154.333 219 137 c 128
 238.333 119.667 264 111 296 111 c 0
 323.333 111 345.667 117.333 363 130 c 128
 380.333 142 392.333 158.667 399 180 c 128
 405 202 408 248.667 408 320 c 2
 408 716 l 1
 527 716 l 1
 527 340 l 2
 527 244 521.667 174.667 511 132 c 128
 501 88.6667 478 54 442 28 c 128
 406 1.33333 358.667 -12 300 -12 c 0
 238.667 -12 190.667 -1 156 21 c 128
 122 43 97.3333 74 82 114 c 128
 66.6667 153.333 59 226.667 59 334 c 2
 59 716 l 1
EndSplineSet
EndChar
StartChar: V
Encoding: 86 86 57
Width: 546
VWidth: 2048
Flags: W
HStem: 0 21G<209 336> 696 20G<0 128 420 546>
DStem: 0 716 128 716 209 0 277 186
Fore
209 0 m 1
 0 716 l 1
 128 716 l 1
 277 186 l 1
 420 716 l 1
 546 716 l 1
 336 0 l 1
 209 0 l 1
EndSplineSet
KernsSLIF: 281 -45 0 0 261 -45 0 0 260 -60 0 0 121 -30 0 0 117 -30 0 0 114 -45 0 0 111 -60 0 0 105 -14 0 0 101 -45 0 0 97 -45 0 0 65 -60 0 0 59 -45 0 0 58 -45 0 0 46 -75 0 0 45 -45 0 0 44 -75 0 0
EndChar
StartChar: W
Encoding: 87 87 58
Width: 773
VWidth: 2048
Flags: W
HStem: 0 21G<143 271 504 630> 696 20G<2 124 319 460 654 773>
DStem: 2 716 124 716 143 0 212 224 319 716 387 535 212 224 271 0 387 535 460 716 504 0 563 216
Fore
143 0 m 1
 2 716 l 1
 124 716 l 1
 212 224 l 1
 319 716 l 1
 460 716 l 1
 563 216 l 1
 654 716 l 1
 773 716 l 1
 630 0 l 1
 504 0 l 1
 387 535 l 1
 271 0 l 1
 143 0 l 1
EndSplineSet
KernsSLIF: 281 -14 0 0 261 -30 0 0 260 -45 0 0 121 -14 0 0 117 -14 0 0 114 -14 0 0 111 -14 0 0 105 -7 0 0 101 -14 0 0 97 -30 0 0 65 -45 0 0 59 -14 0 0 58 -14 0 0 46 -45 0 0 45 -16 0 0 44 -45 0 0
EndChar
StartChar: X
Encoding: 88 88 59
Width: 546
VWidth: 2048
Flags: W
HStem: 0 21G<0 143 403 546> 696 20G<19 158 391 528>
DStem: 19 716 158 716 201 374 275 486 201 374 273 248 0 0 143 0 273 248 346 368 403 0 546 0 391 716 528 716 275 486 346 368
Fore
0 0 m 1
 201 374 l 1
 19 716 l 1
 158 716 l 1
 275 486 l 1
 391 716 l 1
 528 716 l 1
 346 368 l 1
 546 0 l 1
 403 0 l 1
 273 248 l 1
 143 0 l 1
 0 0 l 1
EndSplineSet
EndChar
StartChar: Y
Encoding: 89 89 60
Width: 546
VWidth: 2048
Flags: W
HStem: 0 21G<214 332> 696 20G<-1 138 412 548>
VStem: 214 118<0 300>
DStem: -1 716 138 716 214 301 276 433
Fore
214 0 m 1
 214 301 l 1
 -1 716 l 1
 138 716 l 1
 276 433 l 1
 412 716 l 1
 548 716 l 1
 332 300 l 1
 332 0 l 1
 214 0 l 1
EndSplineSet
KernsSLIF: 281 -45 0 0 261 -45 0 0 260 -75 0 0 118 -45 0 0 117 -45 0 0 113 -60 0 0 112 -45 0 0 111 -60 0 0 105 -30 0 0 101 -45 0 0 97 -45 0 0 65 -75 0 0 59 -60 0 0 58 -60 0 0 46 -91 0 0 45 -45 0 0 44 -91 0 0 32 -14 0 0
EndChar
StartChar: Z
Encoding: 90 90 61
Width: 500
VWidth: 2048
Flags: W
HStem: 0 121<152 486> 595 121<43 317>
DStem: 317 595 473 604 9 130 152 121
Fore
9 0 m 1
 9 130 l 1
 317 595 l 1
 43 595 l 1
 43 716 l 1
 473 716 l 1
 473 604 l 1
 152 121 l 1
 486 121 l 1
 486 0 l 1
 9 0 l 1
EndSplineSet
EndChar
StartChar: bracketleft
Encoding: 91 91 62
Width: 272
VWidth: 2048
Flags: W
HStem: 608 108<58 257>
VStem: 58 107<-202 608>
Fore
58 -202 m 1
 58 716 l 1
 257 716 l 1
 257 608 l 1
 165 608 l 1
 165 -94 l 1
 257 -94 l 1
 257 -202 l 1
 58 -202 l 1
EndSplineSet
EndChar
StartChar: backslash
Encoding: 92 92 63
Width: 228
VWidth: 2048
Flags: W
HStem: -12 21G<145 229> 708 20G<-1 82>
DStem: -1 728 82 728 145 -12 229 -12
Fore
-1 728 m 1
 82 728 l 1
 229 -12 l 1
 145 -12 l 1
 -1 728 l 1
EndSplineSet
EndChar
StartChar: bracketright
Encoding: 93 93 64
Width: 272
VWidth: 2048
Flags: W
HStem: -202 108<15 214> 696 20G<15 214>
VStem: 107 107<-94 716>
Fore
214 716 m 1
 214 -202 l 1
 15 -202 l 1
 15 -94 l 1
 107 -94 l 1
 107 609 l 1
 15 609 l 1
 15 716 l 1
 214 716 l 1
EndSplineSet
EndChar
StartChar: asciicircum
Encoding: 94 94 65
Width: 479
VWidth: 2048
Flags: W
HStem: 708 20G<197 286>
Fore
46 338 m 1
 197 728 l 1
 286 728 l 1
 433 338 l 1
 319 338 l 1
 240 577 l 1
 161 338 l 1
 46 338 l 1
EndSplineSet
EndChar
StartChar: underscore
Encoding: 95 95 66
Width: 456
VWidth: 2048
Flags: W
HStem: -125 50<-6 462>
Fore
-6 -75 m 1
 462 -75 l 1
 462 -125 l 1
 -6 -125 l 1
 -6 -75 l 1
EndSplineSet
EndChar
StartChar: grave
Encoding: 96 96 67
Width: 272
VWidth: 2048
Flags: W
HStem: 582 146<17 199>
Fore
199 582 m 1
 127 582 l 1
 17 728 l 1
 143 728 l 1
 199 582 l 1
EndSplineSet
EndChar
StartChar: a
Encoding: 97 97 68
Width: 456
VWidth: 2048
Flags: W
HStem: -12 97<170 205> 0 21G<317 428> 425 105<203 238>
VStem: 29 113<141 157> 293 110<195 368.283>
Fore
143 360 m 1xb8
 41 383 l 1
 53.6667 435 74 472.667 102 496 c 128
 130.667 518.667 171.667 530 225 530 c 0
 310.451 530 364.784 505.333 388 456 c 128
 398.667 432.667 404 391 404 331 c 1
 403 170 l 1
 403 125.333 404.667 92 408 70 c 128
 412 48 418.667 24.6667 428 0 c 1
 317 0 l 1x78
 302 57 l 1
 263.886 11 219.886 -12 170 -12 c 0
 128.667 -12 95 2 69 30 c 128
 42.3333 58 29 95 29 141 c 0
 29 198.494 49.6667 241.494 91 270 c 128
 110.333 283.333 141.667 295 185 305 c 0
 237 317 273 328 293 338 c 1
 293 366.667 291 385.667 287 395 c 128
 277.769 415 255.103 425 219 425 c 0
 198.333 425 182.333 420.667 171 412 c 128
 159.667 402.667 150.333 385.333 143 360 c 1xb8
293 249 m 1
 279 243 257 236.333 227 229 c 0
 191.667 219.667 168.667 209.333 158 198 c 0
 147.333 187.333 142 173 142 155 c 0
 142 135 148 118.333 160 105 c 128
 172 91.6667 187 85 205 85 c 0xb8
 221 85 236.667 90.3333 252 101 c 128
 267.333 112.333 278 125.333 284 140 c 128
 290 155.333 293 182.667 293 222 c 2
 293 249 l 1
EndSplineSet
EndChar
StartChar: b
Encoding: 98 98 69
Width: 500
VWidth: 2048
Flags: W
HStem: -12 109<264 291> 0 21G<54 158> 425 105<259 290> 696 20G<54 167>
VStem: 54 112<0 293 0 716> 354 115<227 277>
Fore
54 0 m 1x7c
 54 716 l 1
 167 716 l 1
 167 458 l 1
 200.333 506 241.333 530 290 530 c 0
 340 530 382.333 507.333 417 462 c 128
 451.667 417.333 469 350.667 469 262 c 0
 469 174 451.333 106.333 416 59 c 128
 380.667 11.6667 339 -12 291 -12 c 0xbc
 266.333 -12 242.333 -4.33333 219 11 c 128
 195 25.6667 174.667 47.3333 158 76 c 1
 158 0 l 1
 54 0 l 1x7c
166 271 m 0
 166 226.333 170 192 178 168 c 128
 186.667 144.667 198.667 127 214 115 c 128
 230 103 246.667 97 264 97 c 0
 288.667 97 309.667 109.667 327 135 c 128
 345 161 354 202 354 258 c 0
 354 317.333 345 360 327 386 c 128
 309 412 286.333 425 259 425 c 0
 233 425 211 412.333 193 387 c 128
 175 361.667 166 323 166 271 c 0
EndSplineSet
EndChar
StartChar: c
Encoding: 99 99 70
Width: 456
VWidth: 2048
Flags: W
HStem: -12 112<237 245> 422 108<237 246>
VStem: 34 116<243 293>
Fore
150 269 m 0
 150 156.333 181 100 243 100 c 0
 264.333 100 281.667 107.333 295 122 c 128
 309 136.667 319 162.333 325 199 c 1
 436 176 l 1
 412.667 50.6667 347 -12 239 -12 c 0
 169.667 -12 118 14.3333 84 67 c 128
 50.6667 119.667 34 183.333 34 258 c 0
 34 346.667 53 414.333 91 461 c 128
 129 507 178.667 530 240 530 c 0
 290 530 330.667 517 362 491 c 128
 393.333 464.333 416 422.333 430 365 c 1
 319 341 l 1
 311 395 285.333 422 242 422 c 0
 214.667 422 192.333 410.333 175 387 c 128
 158.333 363.667 150 324.333 150 269 c 0
EndSplineSet
EndChar
StartChar: d
Encoding: 100 100 71
Width: 500
VWidth: 2048
Flags: W
HStem: -12 109<211 245> 0 21G<344 449> 425 105<213 243> 696 20G<336 449>
VStem: 34 115<243 293> 344 105<0 716>
Fore
213 530 m 0xbc
 261.667 530 302.667 506 336 458 c 1
 336 716 l 1
 449 716 l 1
 449 0 l 1
 344 0 l 1x7c
 344 76 l 1
 326.667 46.6667 306.333 24.6667 283 10 c 128
 259.667 -4.66667 235.667 -12 211 -12 c 0
 163.667 -12 122.333 11.6667 87 59 c 128
 51.6667 106.333 34 174 34 262 c 0
 34 350.667 51 417.667 85 463 c 128
 119.667 507.667 162.333 530 213 530 c 0xbc
149 271 m 0
 149 223.667 153 188.667 161 166 c 128
 176.771 120 204.771 97 245 97 c 0xbc
 269.667 97 291.333 110.333 310 137 c 128
 328 163.667 337 203.667 337 257 c 0
 337 317 328 360 310 386 c 128
 292.667 412 270.333 425 243 425 c 0
 217 425 194.667 412.333 176 387 c 128
 158 361 149 322.333 149 271 c 0
EndSplineSet
EndChar
StartChar: e
Encoding: 101 101 72
Width: 456
VWidth: 2048
Flags: W
HStem: -12 103<220 235> 220 84<144 423> 425 105<217 236>
Fore
306 165 m 1
 417 142 l 1
 388.043 39.3334 326.376 -11.9999 232 -12 c 0
 169.333 -12 121 9 87 51 c 0
 46.3333 100.333 26 168.667 26 256 c 0
 26 342.667 46.3333 412 87 464 c 0
 121.667 508 166.333 530 221 530 c 0
 281.667 530 329.333 507.667 364 463 c 0
 404 411.667 424 335.667 424 235 c 1
 423 220 l 1
 142 220 l 1
 142.667 178.667 151.667 147 169 125 c 128
 187 102.333 208.333 91 233 91 c 0
 269.667 91 294 115.667 306 165 c 1
312 304 m 1
 311.333 344 302.667 374.333 286 395 c 128
 270 415 250.667 425 228 425 c 0
 204 425 184 414.667 168 394 c 0
 151.333 372 143.333 342 144 304 c 1
 312 304 l 1
EndSplineSet
EndChar
StartChar: f
Encoding: 102 102 73
Width: 272
VWidth: 2048
Flags: W
HStem: 0 21G<72 185> 411 108<10 72 185 269> 623 105<203 230>
VStem: 72 113<0 411 519 577>
Fore
10 519 m 1
 72 519 l 1
 72 558 l 2
 72 604.667 76.6667 638.667 86 660 c 128
 94.6667 681.333 109 698 129 710 c 128
 149 722 173.667 728 203 728 c 0
 235 728 266.333 722 297 710 c 1
 282 615 l 1
 264 620.333 246.667 623 230 623 c 0
 214 623 202.333 618.333 195 609 c 128
 188.333 599.667 185 581.667 185 555 c 2
 185 519 l 1
 269 519 l 1
 269 411 l 1
 185 411 l 1
 185 0 l 1
 72 0 l 1
 72 411 l 1
 10 411 l 1
 10 519 l 1
EndSplineSet
KernsSLIF: 8217 14 0 0
EndChar
StartChar: g
Encoding: 103 103 74
Width: 500
VWidth: 2048
Flags: W
HStem: -210 105<225 259> 0 111<208 240> 425 105<213 242> 499 20G<343 449>
VStem: 34 115<253 287> 336 113<7 84 253 519>
Fore
213 530 m 0xec
 266.333 530 309.667 502 343 446 c 1
 343 519 l 1
 449 519 l 1xdc
 449 53 l 2
 449 -21.6667 442 -75.6667 428 -109 c 128
 414.667 -142.333 393.667 -167.667 365 -185 c 128
 336.333 -201.667 297 -210 247 -210 c 0
 200.333 -210 163 -204 135 -192 c 128
 107 -179.333 85.6667 -160.667 71 -136 c 128
 55.6667 -112 48 -83.6667 48 -51 c 2
 48 -34 l 1
 177 -53 l 1
 179 -72.3333 185 -86 195 -94 c 128
 205 -101.333 220.667 -105 242 -105 c 0
 266.667 -105 286.667 -101 302 -93 c 0
 312.667 -87 321 -77.3333 327 -64 c 128
 333 -50 336 -26 336 8 c 2
 336 84 l 1
 302.667 28 260 0 208 0 c 0
 161.333 0 121.667 21.3333 89 64 c 0
 52.3333 112.667 34 178.667 34 262 c 0
 34 350.667 51.3333 417.667 86 463 c 128
 121.333 507.667 163.667 530 213 530 c 0xec
149 270 m 0
 149 214.667 158 174.333 176 149 c 128
 193.333 123.667 214.667 111 240 111 c 0
 266.667 111 289.667 123.667 309 149 c 128
 328.333 175 338 214.333 338 267 c 0
 338 321 328.667 360.667 310 386 c 128
 292 412 269.333 425 242 425 c 0xec
 215.333 425 193.333 412.333 176 387 c 128
 158 361.667 149 322.667 149 270 c 0
EndSplineSet
EndChar
StartChar: h
Encoding: 104 104 75
Width: 500
VWidth: 2048
Flags: W
HStem: 0 21G<59 171 333 446> 425 105<263 301> 696 20G<59 171>
VStem: 59 112<0 289 0 716> 333 113<0 321>
Fore
171 716 m 1
 171 453 l 1
 206.539 504.333 249.872 530 301 530 c 0
 335 530 363.333 521 386 503 c 128
 408.667 485.667 425 460.333 435 427 c 0
 442.333 403 446 362 446 304 c 2
 446 0 l 1
 333 0 l 1
 333 274 l 2
 333 337.333 329 377 321 393 c 0
 309.667 414.333 290.333 425 263 425 c 0
 234.333 425 212 413.333 196 390 c 128
 179.333 366.667 171 323.333 171 260 c 2
 171 0 l 1
 59 0 l 1
 59 716 l 1
 171 716 l 1
EndSplineSet
EndChar
StartChar: i
Encoding: 105 105 76
Width: 228
VWidth: 2048
Flags: W
HStem: 0 21G<59 172> 499 20G<59 172> 696 20G<59 172>
VStem: 59 113<0 519 589 716>
Fore
59 589 m 1
 59 716 l 1
 172 716 l 1
 172 589 l 1
 59 589 l 1
59 0 m 1
 59 519 l 1
 172 519 l 1
 172 0 l 1
 59 0 l 1
EndSplineSet
EndChar
StartChar: j
Encoding: 106 106 77
Width: 228
VWidth: 2048
Flags: W
HStem: -210 127<10 41> 499 20G<57 169> 696 20G<57 169>
VStem: 57 112<-19 519 589 716>
Fore
57 589 m 1
 57 716 l 1
 169 716 l 1
 169 589 l 1
 57 589 l 1
169 519 m 1
 169 16 l 2
 169 -54.6667 165.333 -103 158 -129 c 128
 141.385 -183 102.385 -210 41 -210 c 0
 18.3333 -210 -7.66667 -205.333 -37 -196 c 1
 -18 -79 l 1
 -6.66667 -81.6667 2.66667 -83 10 -83 c 0
 30 -83 43.6667 -75.3333 51 -60 c 0
 55 -51.3333 57 -23.3333 57 24 c 2
 57 519 l 1
 169 519 l 1
EndSplineSet
EndChar
StartChar: k
Encoding: 107 107 78
Width: 456
VWidth: 2048
Flags: W
HStem: 0 21G<55 168 327 448> 499 20G<299 438> 696 20G<55 168>
VStem: 55 113<0 166 0 716>
DStem: 220 233 292 329 327 0 448 0 299 519 438 519 168 336 292 329
Fore
55 0 m 1
 55 716 l 1
 168 716 l 1
 168 336 l 1
 299 519 l 1
 438 519 l 1
 292 329 l 1
 448 0 l 1
 327 0 l 1
 220 233 l 1
 168 166 l 1
 168 0 l 1
 55 0 l 1
EndSplineSet
EndChar
StartChar: l
Encoding: 108 108 79
Width: 228
VWidth: 2048
Flags: W
HStem: 0 21G<59 172> 696 20G<59 172>
VStem: 59 113<0 716>
Fore
59 0 m 1
 59 716 l 1
 172 716 l 1
 172 0 l 1
 59 0 l 1
EndSplineSet
EndChar
StartChar: m
Encoding: 109 109 80
Width: 729
VWidth: 2048
Flags: W
HStem: 0 21G<50 163 307 420 563 676> 425 105<249 287 503 537> 499 20G<50 154>
VStem: 50 104<0 519> 50 113<0 298> 307 113<0 289> 563 113<0 334>
Fore
287 530 m 0xd6
 341.667 530 381.667 502.667 407 448 c 1
 444.333 502.667 487.667 530 537 530 c 0
 596.453 530 637.12 503.333 659 450 c 128
 670.333 424.667 676 385.333 676 332 c 2
 676 0 l 1
 563 0 l 1
 563 296 l 2
 563 348 558.333 382.667 549 400 c 128
 540.333 416.667 525 425 503 425 c 0
 478.333 425 458.333 413 443 389 c 128
 427.667 365.667 420 319 420 249 c 2
 420 0 l 1
 307 0 l 1
 307 284 l 2
 307 340.667 304 377 298 393 c 0
 290 414.333 273.667 425 249 425 c 0
 232.333 425 217 419.667 203 409 c 128
 189 397.667 178.667 381.333 172 360 c 128
 166 338.667 163 302.667 163 252 c 2
 163 0 l 1xce
 50 0 l 1
 50 519 l 1
 154 519 l 1xb6
 154 448 l 1
 191.333 502.667 235.667 530 287 530 c 0xd6
EndSplineSet
EndChar
StartChar: n
Encoding: 110 110 81
Width: 500
VWidth: 2048
Flags: W
HStem: 0 21G<58 171 333 446> 425 105<264 303> 499 20G<58 163>
VStem: 58 105<0 519> 58 113<0 289> 333 113<0 322>
Fore
446 0 m 1xd4
 333 0 l 1
 333 265 l 2
 333 317.667 331 353 327 371 c 128
 322.333 388.333 314.333 401.667 303 411 c 128
 291.667 420.333 278.667 425 264 425 c 0
 244.667 425 227.333 419 212 407 c 128
 196.667 395 186 378 180 356 c 128
 174 334.667 171 294.333 171 235 c 2
 171 0 l 1xcc
 58 0 l 1
 58 519 l 1
 163 519 l 1xb4
 163 442 l 1
 199 500.667 245.667 530 303 530 c 0
 335.667 530 363.333 521.667 386 505 c 128
 408.667 487.667 424.333 465.667 433 439 c 128
 441.667 411.667 446 372.667 446 322 c 2
 446 0 l 1xd4
EndSplineSet
EndChar
StartChar: o
Encoding: 111 111 82
Width: 500
VWidth: 2048
Flags: W
HStem: -12 112<240 258> 418 112<240 258>
VStem: 33 115<243 277> 356 116<243 277>
Fore
33 267 m 0
 33 317.667 43 363.667 63 405 c 128
 83 447 109.333 478.333 142 499 c 128
 174.667 519.667 211.333 530 252 530 c 0
 320 530 373.667 503.333 413 450 c 128
 452.333 396.667 472 334 472 262 c 0
 472 208.667 461.667 160.667 441 118 c 128
 421 74.6667 394.333 42.3333 361 21 c 128
 328.333 -1 292 -12 252 -12 c 0
 189.333 -12 137 12.3333 95 61 c 128
 53.6667 109 33 177.667 33 267 c 0
148 259 m 0
 148 207 158.333 167.333 179 140 c 128
 199 113.333 223.667 100 253 100 c 0
 281 100 305.333 113.667 326 141 c 128
 346 167.667 356 207.333 356 260 c 0
 356 311.333 345.667 350.667 325 378 c 128
 304.333 404.667 279.667 418 251 418 c 0
 223 418 198.667 404.667 178 378 c 128
 158 350.667 148 311 148 259 c 0
EndSplineSet
EndChar
StartChar: p
Encoding: 112 112 83
Width: 500
VWidth: 2048
Flags: W
HStem: -197 21G<56 168> -12 109<265 292> 422 108<263 293> 499 20G<56 161>
VStem: 56 105<-197 519> 56 112<-197 64 -197 284> 356 115<234 284>
Fore
56 519 m 1xda
 161 519 l 1
 161 442 l 1xda
 175 469.333 193.667 491 217 507 c 128
 240.333 522.333 265.667 530 293 530 c 0
 341.667 530 383.333 507 418 461 c 128
 453.333 415 471 349.333 471 264 c 0
 471 174.667 453.333 106.333 418 59 c 128
 382.667 11.6667 340.667 -12 292 -12 c 0
 270 -12 249.333 -6.33333 230 5 c 128
 210.667 15.6667 190 35.3333 168 64 c 1
 168 -197 l 1xe6
 56 -197 l 1
 56 519 l 1xda
167 268 m 0
 167 209.333 176.667 166.333 196 139 c 128
 214.667 111 237.667 97 265 97 c 0
 290.333 97 312 109.667 330 135 c 128
 347.333 161 356 203 356 261 c 0
 356 315.667 347 356.333 329 383 c 128
 311 409 289 422 263 422 c 0xe2
 235.667 422 212.667 409.333 194 384 c 128
 176 358 167 319.333 167 268 c 0
EndSplineSet
EndChar
StartChar: q
Encoding: 113 113 84
Width: 500
VWidth: 2048
Flags: W
HStem: -197 21G<337 449> -12 109<211 243> 423 107<217 247> 499 20G<346 449>
VStem: 37 115<234 284> 337 112<-197 519> 341 108<250 519>
Fore
217 530 m 0xec
 271 530 314 500.667 346 442 c 1
 346 519 l 1
 449 519 l 1xdc
 449 -197 l 1
 337 -197 l 1
 337 63 l 1
 321.667 39 303 20.6667 281 8 c 128
 259 -5.33333 235.667 -12 211 -12 c 0
 163.667 -12 122.667 12 88 60 c 128
 54 107.333 37 175.667 37 265 c 0
 37 349.667 54.3333 415 89 461 c 128
 124.333 507 167 530 217 530 c 0xec
341 266 m 0xea
 341 319.333 332 359 314 385 c 128
 296 410.333 273.667 423 247 423 c 0
 220.333 423 197.667 410 179 384 c 128
 161 357.333 152 315 152 257 c 0
 152 200.333 160.667 159.333 178 134 c 128
 196 109.333 217.667 97 243 97 c 0
 269 97 291.667 111 311 139 c 128
 331 167 341 209.333 341 266 c 0xea
EndSplineSet
EndChar
StartChar: r
Encoding: 114 114 85
Width: 318
VWidth: 2048
Flags: W
HStem: 0 21G<54 167> 407 123<242 256> 499 20G<54 159>
VStem: 54 105<0 519>
Fore
167 0 m 1xd0
 54 0 l 1
 54 519 l 1
 159 519 l 1xb0
 159 445 l 1
 177 479.667 193 502.333 207 513 c 128
 221 524.333 237.333 530 256 530 c 0
 281.333 530 306 521.333 330 504 c 1
 294 385 l 1
 276 399.667 258.667 407 242 407 c 0
 226 407 212 401.333 200 390 c 128
 188.667 378.667 180.333 357.667 175 327 c 128
 169.667 297 167 241.333 167 160 c 2
 167 0 l 1xd0
EndSplineSet
KernsSLIF: 8217 30 0 0 46 -45 0 0 44 -45 0 0
EndChar
StartChar: s
Encoding: 115 115 86
Width: 456
VWidth: 2048
Flags: W
HStem: -12 99<223 229> 432 98<195 229>
VStem: 35 105<371 391> 304 113<142 161>
Fore
216 432 m 0
 165.333 432 140 417.667 140 389 c 0
 140 377.667 145.333 368 156 360 c 0
 166.667 352.667 200 341 256 325 c 0
 318.667 307.667 361.333 286.333 384 261 c 0
 406 236.333 417 203 417 161 c 0
 417 111 399.667 69.6667 365 37 c 128
 331 4.33333 283.667 -12 223 -12 c 0
 168.333 -12 123.333 1.66667 88 29 c 128
 53.3333 56.3333 30.6667 96 20 148 c 1
 132 169 l 1
 142 114.333 172.333 87 223 87 c 0
 250.333 87 270.667 92.3333 284 103 c 128
 297.333 113.667 304 127.333 304 144 c 0
 304 155.333 301 164 295 170 c 0
 289 176.667 276.667 182.667 258 188 c 0
 166 212 107.333 235 82 257 c 0
 50.6667 285 35 323 35 371 c 0
 35 419 50.3333 457.667 81 487 c 128
 111.667 515.667 156 530 214 530 c 0
 270 530 312.333 519.333 341 498 c 128
 370.333 476 390.667 441 402 393 c 1
 296 369 l 1
 286.667 411 260 432 216 432 c 0
EndSplineSet
EndChar
StartChar: t
Encoding: 116 116 87
Width: 272
VWidth: 2048
Flags: W
HStem: -12 114<174 208> 409 110<12 64 177 253>
VStem: 64 113<147 409 519 702>
Fore
253 519 m 1
 253 409 l 1
 177 409 l 1
 177 200 l 2
 177 154.667 178 128.667 180 122 c 0
 184.667 108.667 194 102 208 102 c 0
 218.667 102 233.667 106.333 253 115 c 1
 263 9 l 1
 237 -5 207.333 -12 174 -12 c 0
 117.641 -12 83.3077 14.6667 71 68 c 0
 66.3333 86.6667 64 125 64 183 c 2
 64 409 l 1
 12 409 l 1
 12 519 l 1
 64 519 l 1
 64 622 l 1
 177 702 l 1
 177 519 l 1
 253 519 l 1
EndSplineSet
EndChar
StartChar: u
Encoding: 117 117 88
Width: 500
VWidth: 2048
Flags: W
HStem: -12 105<197 239> 0 21G<338 443> 499 20G<56 169 331 443>
VStem: 56 113<190 519> 338 105<0 519>
Fore
338 0 m 1x78
 338 78 l 1
 322.667 50 302.333 28 277 12 c 128
 251.667 -4 225 -12 197 -12 c 0
 169 -12 144 -4.66667 122 10 c 128
 100 24.6667 83.6667 45.6667 73 73 c 128
 61.6667 99.6667 56 138.667 56 190 c 2
 56 519 l 1
 169 519 l 1
 169 280 l 2
 169 212 170.667 169 174 151 c 128
 177.333 132.333 185 118 197 108 c 128
 208.333 98 222.333 93 239 93 c 0xb8
 258.333 93 276 99.6667 292 113 c 128
 307.333 125.667 317.667 142.333 323 163 c 128
 328.333 183.667 331 229.333 331 300 c 2
 331 519 l 1
 443 519 l 1
 443 0 l 1
 338 0 l 1x78
EndSplineSet
EndChar
StartChar: v
Encoding: 118 118 89
Width: 456
VWidth: 2048
Flags: W
HStem: 0 21G<176 277> 499 20G<4 123 331 446>
DStem: 4 519 123 519 176 0 203 254
Fore
176 0 m 1
 4 519 l 1
 123 519 l 1
 203 254 l 1
 226 166 l 1
 250 254 l 1
 331 519 l 1
 446 519 l 1
 277 0 l 1
 176 0 l 1
EndSplineSet
KernsSLIF: 46 -60 0 0 44 -60 0 0
EndChar
StartChar: w
Encoding: 119 119 90
Width: 638
VWidth: 2048
Flags: W
HStem: 0 21G<139 248 393 501> 499 20G<4 113 266 375 527 638>
DStem: 4 519 113 519 139 0 193 179 266 519 320 333 193 179 248 0 320 333 375 519 393 0 445 179
Fore
139 0 m 1
 4 519 l 1
 113 519 l 1
 193 179 l 1
 266 519 l 1
 375 519 l 1
 445 179 l 1
 527 519 l 1
 638 519 l 1
 501 0 l 1
 393 0 l 1
 320 333 l 1
 248 0 l 1
 139 0 l 1
EndSplineSet
KernsSLIF: 46 -30 0 0 44 -30 0 0
EndChar
StartChar: x
Encoding: 120 120 91
Width: 456
VWidth: 2048
Flags: W
HStem: 0 21G<5 136 311 449> 499 20G<11 149 303 435>
DStem: 11 519 149 519 158 267 224 376 158 267 224 161 5 0 136 0 303 519 435 519 224 376 291 273
Fore
5 0 m 1
 158 267 l 1
 11 519 l 1
 149 519 l 1
 224 376 l 1
 303 519 l 1
 435 519 l 1
 291 273 l 1
 449 0 l 1
 311 0 l 1
 224 161 l 1
 136 0 l 1
 5 0 l 1
EndSplineSet
EndChar
StartChar: y
Encoding: 121 121 92
Width: 456
VWidth: 2048
Flags: W
HStem: -210 109<80 106> 499 20G<5 125 326 442>
Fore
5 519 m 1
 125 519 l 1
 227 150 l 1
 326 519 l 1
 442 519 l 1
 292 20 l 1
 264 -78 l 1
 251.333 -114 238.667 -140.667 226 -158 c 128
 199.653 -192.667 159.653 -210 106 -210 c 0
 84.6667 -210 63.3333 -207.333 42 -202 c 1
 33 -95 l 1
 50.3333 -99 66 -101 80 -101 c 0
 101.333 -101 119 -94 133 -80 c 128
 147 -65.3333 158.333 -39 167 -1 c 1
 5 519 l 1
EndSplineSet
KernsSLIF: 46 -60 0 0 44 -60 0 0
EndChar
StartChar: z
Encoding: 122 122 93
Width: 410
VWidth: 2048
Flags: W
HStem: 0 121<205 394> 405 114<29 218>
Fore
14 0 m 1
 14 107 l 1
 173 330 l 2
 199 366.667 218.333 392.667 231 408 c 1
 217.667 406.667 200.333 406 179 406 c 2
 29 405 l 1
 29 519 l 1
 381 519 l 1
 381 421 l 1
 218 193 l 1
 161 117 l 1
 192.333 119.667 211.667 121 219 121 c 2
 394 121 l 1
 394 0 l 1
 14 0 l 1
EndSplineSet
EndChar
StartChar: braceleft
Encoding: 123 123 94
Width: 318
VWidth: 2048
Flags: W
HStem: -210 117<274 298> 611 117<274 298>
VStem: 111 105<-35 31 489 543>
Fore
24 200 m 1
 24 317 l 1
 46.6667 318.333 63.6667 323.667 75 333 c 128
 87 343 96 359 102 381 c 128
 108.667 403 112 439.667 112 491 c 0
 112 555.667 114.333 600 119 624 c 128
 123.667 648.667 131.667 668 143 682 c 128
 167.825 712.667 212.159 728 276 728 c 2
 298 728 l 1
 298 611 l 1
 269.333 611 250.667 609.333 242 606 c 128
 233.333 602.667 226.667 596.667 222 588 c 128
 218 579.333 216 563.667 216 541 c 0
 216 501 214.333 455.667 211 405 c 0
 209 370.333 201.667 339.667 189 313 c 0
 179.667 294.333 163.667 276.333 141 259 c 1
 183.895 228.974 207.228 180.641 211 114 c 0
 214.333 66 216 20.6667 216 -22 c 0
 216 -44.6667 218.333 -60.3333 223 -69 c 128
 227.667 -77.6667 234.333 -83.6667 243 -87 c 128
 251.667 -91 270 -93 298 -93 c 1
 298 -210 l 1
 276 -210 l 2
 238.667 -210 210.667 -206.333 192 -199 c 128
 174 -191.667 158.667 -181 146 -167 c 128
 134 -152.333 125.333 -133 120 -109 c 128
 114 -85.6667 111 -46 111 10 c 0
 111 71.3333 108.333 113 103 135 c 128
 97 157 88.3333 173 77 183 c 128
 65 193 47.3333 198.667 24 200 c 1
EndSplineSet
EndChar
StartChar: bar
Encoding: 124 124 95
Width: 229
VWidth: 2048
Flags: W
HStem: 708 20G<71 160>
VStem: 71 89<-210 728>
Fore
71 -210 m 1
 71 728 l 1
 160 728 l 1
 160 -210 l 1
 71 -210 l 1
EndSplineSet
EndChar
StartChar: braceright
Encoding: 125 125 96
Width: 318
VWidth: 2048
Flags: W
HStem: -210 117<18 42> 611 117<18 51>
VStem: 100 104<-35 31 477 559>
Fore
292 200 m 1
 269.333 198.667 252 193.333 240 184 c 128
 216 164.235 204 111.902 204 27 c 0
 204 -37.6667 201.667 -82 197 -106 c 128
 191.667 -130.667 183.667 -150 173 -164 c 128
 161.667 -178 146 -189.333 126 -198 c 128
 106 -206 77.3333 -210 40 -210 c 2
 18 -210 l 1
 18 -93 l 1
 45.3333 -93 63.6667 -91 73 -87 c 128
 81.6667 -83.6667 88.3333 -77.6667 93 -69 c 128
 97.6667 -60.3333 100 -45 100 -23 c 0
 100 14.3333 101.333 59 104 111 c 0
 109.022 180.049 132.689 229.382 175 259 c 1
 152.333 276.333 136.333 294.333 127 313 c 0
 114.333 339 106.667 369.667 104 405 c 0
 101.333 452.333 100 497.667 100 541 c 0
 100 563.667 97.6667 579.333 93 588 c 128
 89 596 82.6667 602 74 606 c 128
 65.3333 609.333 46.6667 611 18 611 c 1
 18 728 l 1
 40 728 l 2
 77.3333 728 105.333 724.333 124 717 c 128
 161.776 703.009 185.776 673.009 196 627 c 128
 201.333 603.667 204 564 204 508 c 0
 204 446.667 207 405 213 383 c 128
 218.333 361 227 344.667 239 334 c 128
 251 324 268.667 318.333 292 317 c 1
 292 200 l 1
EndSplineSet
EndChar
StartChar: asciitilde
Encoding: 126 126 97
Width: 479
VWidth: 2048
Flags: W
Fore
343 381 m 0
 379.667 381 416 404.333 452 451 c 1
 452 319 l 1
 437.333 300.333 416.667 283.667 390 269 c 0
 373.333 259.667 354.333 255 333 255 c 0
 319 255 305.667 256.667 293 260 c 128
 280.333 264 260.333 273.667 233 289 c 0
 191.667 310.333 159.333 321 136 321 c 0
 98.6667 321 62.3333 298.333 27 253 c 1
 27 380 l 1
 61 424.667 100.333 447 145 447 c 0
 161.667 447 177.333 445 192 441 c 128
 206 437 229.333 427 262 411 c 0
 302.667 391 329.667 381 343 381 c 0
EndSplineSet
EndChar
StartChar: exclamdown
Encoding: 161 161 163
Width: 272
VWidth: 2048
Flags: W
HStem: 499 20G<83 195>
VStem: 83 112<381 519>
Fore
195 519 m 1
 195 381 l 1
 83 381 l 1
 83 519 l 1
 195 519 l 1
171 331 m 1
 200 -31 l 1
 200 -199 l 1
 78 -199 l 1
 78 -31 l 1
 107 331 l 1
 171 331 l 1
EndSplineSet
EndChar
StartChar: cent
Encoding: 162 162 132
Width: 456
VWidth: 2048
Flags: W
HStem: -12 112<236 253> 422 108<236 251>
VStem: 34 115<250 284>
DStem: 149 8 198 -8 103 -180 151 -197 251 422 298 396 179 131 225 102 323 711 372 694 277 527 327 513
Fore
298 396 m 1
 225 102 l 1
 231 100.667 237 100 243 100 c 0
 263.667 100 281 107.333 295 122 c 128
 308.333 136.667 318 162.333 324 199 c 1
 435 176 l 1
 412.333 50.6667 346.667 -12 238 -12 c 0
 224.667 -12 211.333 -10.6667 198 -8 c 1
 151 -197 l 1
 103 -180 l 1
 149 8 l 1
 114.333 26.6667 86.3333 57.3333 65 100 c 128
 44.3333 142.667 34 196.333 34 261 c 0
 34 348.333 54.3333 416.667 95 466 c 0
 129.667 508.667 178 530 240 530 c 0
 252 530 264.333 529 277 527 c 1
 323 711 l 1
 372 694 l 1
 327 513 l 1
 377.667 489 411.667 439.667 429 365 c 1
 318 341 l 1
 315.333 363.667 308.667 382 298 396 c 1
251 422 m 1
 242 422 l 2
 214 422 191.667 410.333 175 387 c 128
 157.667 363.667 149 324 149 268 c 0
 149 204.667 159 159 179 131 c 1
 251 422 l 1
EndSplineSet
EndChar
StartChar: sterling
Encoding: 163 163 133
Width: 456
VWidth: 2048
Flags: W
HStem: -11 123<316 333> 30 108<148 194> 303 108<5 89 181 306> 619 109<223 246>
VStem: 52 109<515 542> 90 110<259 303>
Fore
400 139 m 1xb4
 443 23 l 1
 409.667 0.333333 373 -11 333 -11 c 0xb4
 309 -11 277.333 -4.33333 238 9 c 0
 197.333 23 167.333 30 148 30 c 0
 115.333 30 82 16 48 -12 c 1
 5 106 l 1
 61.6667 155.921 90 211.921 90 274 c 0x74
 90 283.333 89.6667 293 89 303 c 1
 5 303 l 1
 5 411 l 1
 68 411 l 1
 57.3333 449.667 52 489 52 529 c 0
 52 587 69.6667 634.667 105 672 c 128
 140.333 709.333 184.667 728 238 728 c 0
 288 728 329.333 712.667 362 682 c 128
 394 650.667 413.667 603.333 421 540 c 1
 313 521 l 1
 303.667 586.333 277.667 619 235 619 c 0
 215 619 197.667 610.333 183 593 c 128
 168.333 576.333 161 554.333 161 527 c 0x78
 161 494.333 167.667 455.667 181 411 c 1
 306 411 l 1
 306 303 l 1
 199 303 l 1
 199.667 295.667 200 288.333 200 281 c 0
 200 256.333 196 233 188 211 c 128
 180 189 163.667 160.333 139 125 c 1
 153.667 133.667 172 138 194 138 c 0x74
 204 138 213.333 137.333 222 136 c 1
 270 120 302 112 318 112 c 0
 338.667 112 366 121 400 139 c 1xb4
EndSplineSet
EndChar
StartChar: currency
Encoding: 164 164 189
Width: 456
VWidth: 2048
Flags: W
HStem: 139 118<214.831 230> 454 118<214.831 230>
VStem: 49 97<355 357> 308 96<355 357>
Fore
49 355 m 0
 49 393.667 56.3333 428.333 71 459 c 1
 18 523 l 1
 84 610 l 1
 139 544 l 1
 167 562.667 196.333 572 227 572 c 0
 257 572 286 562.667 314 544 c 1
 368 609 l 1
 435 527 l 1
 381 462 l 1
 396.333 428.778 404 393.111 404 355 c 0
 404 317.555 396.333 282.222 381 249 c 1
 435 184 l 1
 369 101 l 1
 314 167 l 1
 287.333 148.333 258.333 139 227 139 c 0
 197 139 168 148.333 140 167 c 1
 88 103 l 1
 20 185 l 1
 72 249 l 1
 56.6667 283.849 49 319.182 49 355 c 0
146 355 m 0
 146 327 154 303.667 170 285 c 128
 186 266.333 205 257 227 257 c 0
 248.333 257 267 266.333 283 285 c 128
 299.667 303.667 308 327 308 355 c 0
 308 383.667 299.667 407.333 283 426 c 128
 267 444.667 248.333 454 227 454 c 0
 205 454 186 444.667 170 426 c 128
 154 407.333 146 383.667 146 355 c 0
EndSplineSet
EndChar
StartChar: yen
Encoding: 165 165 150
Width: 456
VWidth: 2048
Flags: W
HStem: 0 21G<169 282> 139 90<21 169 282 432> 300 91<21 169 319 432> 696 20G<0 124 329 452>
VStem: 169 113<0 139 229 300>
DStem: 0 716 124 716 132 391 204 508 329 716 452 716 247 508 319 391
Fore
169 139 m 1
 21 139 l 1
 21 229 l 1
 169 229 l 1
 169 300 l 1
 21 300 l 1
 21 391 l 1
 132 391 l 1
 0 716 l 1
 124 716 l 1
 204 508 l 2
 214 481.333 221.333 458.333 226 439 c 1
 230.667 461 237.667 484 247 508 c 1
 329 716 l 1
 452 716 l 1
 319 391 l 1
 432 391 l 1
 432 300 l 1
 282 300 l 1
 282 229 l 1
 432 229 l 1
 432 139 l 1
 282 139 l 1
 282 0 l 1
 169 0 l 1
 169 139 l 1
EndSplineSet
EndChar
StartChar: brokenbar
Encoding: 166 166 231
Width: 229
VWidth: 2048
Flags: W
HStem: 708 20G<71 160>
VStem: 71 89<-210 176 342 728>
Fore
71 342 m 1
 71 728 l 1
 160 728 l 1
 160 342 l 1
 71 342 l 1
71 -210 m 1
 71 176 l 1
 160 176 l 1
 160 -210 l 1
 71 -210 l 1
EndSplineSet
EndChar
StartChar: section
Encoding: 167 167 134
Width: 456
VWidth: 2048
Flags: W
HStem: -210 105<220 236> 624 104<215 237>
VStem: 24 102<304 332> 58 112<568 580> 292 111<-51 -38> 330 98<214 237>
Fore
395 563 m 1xd0
 285 549 l 1
 283 599 262.667 624 224 624 c 0
 207.333 624 194.333 619.333 185 610 c 128
 175 601.333 170 590.667 170 578 c 0
 170 564 174.667 551 184 539 c 0
 192.667 527 222.667 500.667 274 460 c 0
 324.667 420.667 358.667 391 376 371 c 128
 410.667 332.481 428 287.815 428 237 c 0xd4
 428 176.333 403.667 125 355 83 c 1
 387 47 403 6 403 -40 c 0
 403 -91.3333 387.667 -132.667 357 -164 c 128
 326.333 -194.667 284.333 -210 231 -210 c 0
 180.333 -210 138.333 -194.667 105 -164 c 128
 72.3333 -133.333 52.6667 -89.6667 46 -33 c 1
 156 -17 l 1
 165.333 -75.6667 191.333 -105 234 -105 c 0
 251.333 -105 265.333 -99.6667 276 -89 c 128
 286.667 -78.3333 292 -64.6667 292 -48 c 0
 292 -34 287.333 -20.3333 278 -7 c 1
 268 5 233.333 34 174 80 c 0
 112.667 126.667 72.3333 166 53 198 c 128
 33.6667 230 24 265.333 24 304 c 0xe8
 24 374.667 48.6667 427 98 461 c 1
 71.3333 497 58 533.333 58 570 c 0
 58 617.333 72.6667 655.333 102 684 c 128
 131.333 713.333 170.333 728 219 728 c 0
 268.333 728 308.667 713.667 340 685 c 128
 370.667 655.667 389 615 395 563 c 1xd0
294 143 m 1
 318 169 330 192.667 330 214 c 0
 330 226 326.333 238 319 250 c 128
 312.333 261.333 296 278.667 270 302 c 2
 161 398 l 1
 151 391.333 142 381 134 367 c 0
 128.667 357 126 345.333 126 332 c 0xe4
 126 299.333 144 268 180 238 c 1
 294 143 l 1
EndSplineSet
EndChar
StartChar: dieresis
Encoding: 168 168 142
Width: 272
VWidth: 2048
Flags: W
HStem: 610 118<2 99 174 271>
VStem: 2 97<610 728> 174 97<610 728>
Fore
2 610 m 1
 2 728 l 1
 99 728 l 1
 99 610 l 1
 2 610 l 1
174 610 m 1
 174 728 l 1
 271 728 l 1
 271 610 l 1
 174 610 l 1
EndSplineSet
EndChar
StartChar: copyright
Encoding: 169 169 139
Width: 604
VWidth: 2048
Flags: W
HStem: -18 74<303 317> 147 70<297 311> 494 69<297 317> 657 73<303 317>
VStem: -4 61<356 383> 152 71<333 383> 549 60<356 383>
Fore
303 730 m 0
 355 730 404.333 714.667 451 684 c 128
 497.667 653.333 535.667 608.667 565 550 c 128
 594.333 490.667 609 426 609 356 c 0
 609 286 594.333 221.667 565 163 c 128
 535.667 104.333 497.667 59.6667 451 29 c 128
 403.667 -2.33333 354.333 -18 303 -18 c 0
 251 -18 201.667 -2.33333 155 29 c 128
 107.667 59.6667 69.3333 104.333 40 163 c 128
 10.6667 221.667 -4 286 -4 356 c 0
 -4 426 10.6667 490.667 40 550 c 128
 69.3333 608.667 107.667 653.333 155 684 c 128
 201.667 714.667 251 730 303 730 c 0
303 657 m 0
 261 657 221.333 644.667 184 620 c 128
 146 595.333 115.333 559.333 92 512 c 128
 68.6667 464.667 57 412.667 57 356 c 0
 57 300 68.6667 248.333 92 201 c 128
 115.333 153.667 146 117.667 184 93 c 128
 221.333 68.3333 261 56 303 56 c 0
 344.333 56 384 68.3333 422 93 c 128
 459.333 117.667 490 153.667 514 201 c 128
 537.333 248.333 549 300 549 356 c 0
 549 412.667 537.333 464.667 514 512 c 128
 490 559.333 459.333 595.333 422 620 c 128
 384 644.667 344.333 657 303 657 c 0
377 301 m 1
 442 274 l 1
 431.333 232 414.333 200.333 391 179 c 128
 367 157.667 339 147 307 147 c 0
 263 147 226.333 165 197 201 c 128
 167 236.333 152 287.333 152 354 c 0
 152 422 166.667 474 196 510 c 128
 225.333 545.333 262.667 563 308 563 c 0
 373.333 563 418 523.667 442 445 c 1
 377 426 l 1
 363 471.333 339.333 494 306 494 c 0
 282 494 262 483 246 461 c 128
 230.667 439 223 404.333 223 357 c 0
 223 309 230.667 273.667 246 251 c 128
 261.333 228.333 279 217 299 217 c 0
 338.333 217 364.333 245 377 301 c 1
EndSplineSet
EndChar
StartChar: ordfeminine
Encoding: 170 170 157
Width: 303
VWidth: 2048
Flags: W
HStem: 363 73<112 137> 651 77<135 160>
VStem: 15 83<466 478> 190 82<502 590>
Fore
102 611 m 1
 26 630 l 1
 32.6667 664 45.3333 688.667 64 704 c 128
 83.3333 720 111.667 728 149 728 c 0
 185 728 212.667 722.333 232 711 c 0
 247.333 703 258.333 689 265 669 c 0
 269.667 655 272 628.667 272 590 c 2
 272 474 l 2
 272 440 272.667 417.333 274 406 c 128
 276 394.667 279.333 383.333 284 372 c 1
 208 372 l 1
 204 380 201 391.333 199 406 c 1
 174.429 377.333 145.429 363 112 363 c 0
 83.3333 363 60 372.333 42 391 c 128
 24 409.667 15 435.333 15 468 c 0
 15 508.7 29.3333 538.367 58 557 c 129
 72 565 99.3333 573.667 140 583 c 0
 161.333 588.333 178 594 190 600 c 1
 189.333 621.333 187.667 634 185 638 c 0
 179 646.667 167.333 651 150 651 c 0
 136 651 125.667 648.667 119 644 c 0
 113.667 640 108 629 102 611 c 1
190 535 m 1
 184.667 530.333 172.333 525.667 153 521 c 0
 129.667 515 115.333 509.333 110 504 c 0
 102 496 98 486.667 98 476 c 0
 98 464.667 101.667 455.333 109 448 c 128
 117 440 126.333 436 137 436 c 0
 152.333 436 165 442.667 175 456 c 128
 185 469.333 190 489 190 515 c 2
 190 535 l 1
EndSplineSet
EndChar
StartChar: guillemotleft
Encoding: 171 171 169
Width: 456
VWidth: 2048
Flags: W
Fore
253 480 m 1
 150 260 l 1
 253 34 l 1
 165 34 l 1
 39 260 l 1
 165 480 l 1
 253 480 l 1
411 480 m 1
 307 260 l 1
 411 34 l 1
 322 34 l 1
 196 260 l 1
 322 480 l 1
 411 480 l 1
EndSplineSet
EndChar
StartChar: logicalnot
Encoding: 172 172 164
Width: 479
VWidth: 2048
Flags: W
HStem: 399 125<34 341>
VStem: 341 103<184 524>
Fore
341 184 m 1
 341 399 l 1
 34 399 l 1
 34 524 l 1
 444 524 l 1
 444 184 l 1
 341 184 l 1
EndSplineSet
EndChar
StartChar: registered
Encoding: 174 174 138
Width: 604
VWidth: 2048
Flags: W
HStem: -18 73<303 323> 490 63<230 295> 657 73<303 323>
VStem: -4 61<356 384> 164 66<156 319 156 490> 358 70<429 447> 550 59<356 384>
Fore
303 730 m 0
 355 730 404.333 714.667 451 684 c 128
 497.667 653.333 535.667 608.667 565 550 c 128
 594.333 490.667 609 426 609 356 c 0
 609 286 594.333 221.667 565 163 c 128
 535.667 104.333 497.667 59.6667 451 29 c 128
 403.667 -2.33333 354.333 -18 303 -18 c 0
 251 -18 201.667 -2.33333 155 29 c 128
 107.667 59.6667 69.3333 104.333 40 163 c 128
 10.6667 221.667 -4 286 -4 356 c 0
 -4 426 10.6667 490.667 40 550 c 128
 69.3333 608.667 107.667 653.333 155 684 c 128
 201.667 714.667 251 730 303 730 c 0
303 657 m 0
 261.667 657 222 644.667 184 620 c 128
 146.667 595.333 116.333 559.333 93 512 c 128
 69 464.667 57 412.667 57 356 c 0
 57 300 69 248.333 93 201 c 128
 116.333 153.667 147 117.667 185 93 c 128
 222.333 67.6667 261.667 55 303 55 c 0
 345 55 384.667 67.6667 422 93 c 128
 460 117.667 490.667 153.667 514 201 c 128
 538 248.333 550 300 550 356 c 0
 550 412.667 538 464.667 514 512 c 128
 490.667 559.333 460 595.333 422 620 c 128
 384.667 644.667 345 657 303 657 c 0
164 156 m 1
 164 553 l 1
 230 553 l 2
 296.667 553 336 552.333 348 551 c 0
 371.333 547 390.667 535.333 406 516 c 128
 420.667 497.333 428 472.667 428 442 c 0
 428 411.333 420 386.333 404 367 c 128
 388 347 366.667 334.667 340 330 c 1
 353.333 324 364.333 315 373 303 c 128
 381.667 291 394 268.667 410 236 c 1
 448 156 l 1
 366 156 l 1
 339 221 l 2
 321 264.333 305.667 291.333 293 302 c 128
 281 313.333 266 319 248 319 c 2
 230 319 l 1
 230 156 l 1
 164 156 l 1
230 382 m 1
 257 382 l 2
 293 382 315 383.333 323 386 c 0
 333.667 388.667 342.333 394.667 349 404 c 128
 355 412.667 358 423.667 358 437 c 0
 358 462.375 346.333 478.708 323 486 c 0
 314.333 488.667 292.333 490 257 490 c 2
 230 490 l 1
 230 382 l 1
EndSplineSet
EndChar
StartChar: overscore
Encoding: 175 175 257
Width: 500
VWidth: 2048
Flags: W
HStem: 791 50<-6 506>
Fore
-6 841 m 1
 506 841 l 1
 506 791 l 1
 -6 791 l 1
 -6 841 l 1
EndSplineSet
EndChar
StartChar: degree
Encoding: 176 176 131
Width: 399
VWidth: 2048
Flags: W
HStem: 417 81<198 203> 647 81<198 203>
VStem: 42 81<572 578> 272 82<572 578>
Fore
42 572 m 0
 42 615.333 57.3333 652.333 88 683 c 128
 118 713 154.667 728 198 728 c 0
 240.667 728 277.333 712.667 308 682 c 128
 338.667 652 354 615.333 354 572 c 0
 354 529.333 338.667 492.667 308 462 c 128
 277.333 432 240.667 417 198 417 c 0
 154.667 417 118 432 88 462 c 128
 57.3333 492.667 42 529.333 42 572 c 0
123 572 m 0
 123 552 130.333 534.667 145 520 c 128
 159.667 505.333 177.333 498 198 498 c 0
 218.667 498 236 505.333 250 520 c 128
 264.667 534.667 272 552 272 572 c 0
 272 592.667 264.667 610.333 250 625 c 128
 236 639.667 218.667 647 198 647 c 0
 177.333 647 159.667 639.667 145 625 c 128
 130.333 610.333 123 592.667 123 572 c 0
EndSplineSet
EndChar
StartChar: plusminus
Encoding: 177 177 147
Width: 548
VWidth: 2048
Flags: W
HStem: 0 128<24 525> 360 128<24 212 337 525>
VStem: 212 125<174 360 488 674>
Fore
212 174 m 1
 212 360 l 1
 24 360 l 1
 24 488 l 1
 212 488 l 1
 212 674 l 1
 337 674 l 1
 337 488 l 1
 525 488 l 1
 525 360 l 1
 337 360 l 1
 337 174 l 1
 212 174 l 1
24 0 m 1
 24 128 l 1
 525 128 l 1
 525 0 l 1
 24 0 l 1
EndSplineSet
EndChar
StartChar: twosuperior
Encoding: 178 178 241
Width: 272
VWidth: 2048
Flags: W
HStem: 355 77<127 253> 655 70<125 140>
VStem: 177 76<604 621>
Fore
253 432 m 1
 253 355 l 1
 10 355 l 1
 12.6667 383.667 20.3333 409.333 33 432 c 128
 45.6667 454 71 483.333 109 520 c 0
 141 550 160.333 570.333 167 581 c 128
 173.667 592.333 177 603.667 177 615 c 0
 177 627.667 173.333 637.667 166 645 c 128
 158.667 651.667 148.667 655 136 655 c 0
 122.667 655 112.667 651 106 643 c 128
 99.3333 635 95.3333 620.333 94 599 c 1
 18 606 l 1
 21.3333 636 27.3333 658.667 36 674 c 128
 56.6957 708 90.6957 725 138 725 c 0
 173.333 725 201.333 715 222 695 c 128
 242.667 675 253 649.667 253 619 c 0
 253 587.667 242 557.333 220 528 c 0
 212 516.667 192 496 160 466 c 0
 144.667 451.333 133.667 440 127 432 c 1
 253 432 l 1
EndSplineSet
EndChar
StartChar: threesuperior
Encoding: 179 179 242
Width: 272
VWidth: 2048
Flags: W
HStem: 349 70<127 145> 520 21G<131 146> 655 70<127 139>
VStem: 164 77<618 627> 178 78<460 478>
Fore
241 625 m 0xf0
 241 597.491 228 574.158 202 555 c 1
 238 539 256 510 256 468 c 0
 256 434.667 244.333 406.667 221 384 c 128
 197.667 360.667 168.667 349 134 349 c 0
 101.333 349 74.3333 359 53 379 c 128
 31.6667 398.333 19.3333 426 16 462 c 1
 89 472 l 1
 93 436.667 108.333 419 135 419 c 0
 147.667 419 158 423.667 166 433 c 128
 174 443 178 456 178 472 c 0xe8
 178 486.667 174.333 498.333 167 507 c 128
 159 515.667 149 520 137 520 c 0
 129 520 117 517.667 101 513 c 1
 110 584 l 1
 146 582.667 164 595.667 164 623 c 0
 164 633 161 640.667 155 646 c 128
 149 652 141 655 131 655 c 0
 108.333 655 95 639 91 607 c 1
 20 620 l 1
 27.3333 654.667 38 679.333 52 694 c 0
 72.6667 714.667 99.6667 725 133 725 c 0
 164.333 725 190 715.333 210 696 c 128
 230.667 676.667 241 653 241 625 c 0xf0
EndSplineSet
EndChar
StartChar: acute
Encoding: 180 180 141
Width: 272
VWidth: 2048
Flags: W
HStem: 708 20G<130 256>
Fore
75 582 m 1
 130 728 l 1
 256 728 l 1
 146 582 l 1
 75 582 l 1
EndSplineSet
EndChar
StartChar: mu1
Encoding: 181 181 151
Width: 576
VWidth: 2048
Flags: W
HStem: -13 111<286 296> 0 21G<398 526> 499 20G<54 190 387 526>
VStem: 54 136<-199 62 -199 519> 398 128<0 519>
Fore
54 519 m 1xb8
 190 519 l 1
 190 284 l 2
 190 216 197 170 211 146 c 0
 228.333 114 254 98 288 98 c 0xb8
 306 98 323 104 339 116 c 128
 355.667 127.333 367.667 143.667 375 165 c 128
 383 185.667 387 224.667 387 282 c 2
 387 519 l 1
 526 519 l 1
 526 0 l 1
 398 0 l 1
 398 62 l 1
 388 44 378.667 30.3333 370 21 c 128x78
 361.333 12.3333 349.667 4.66667 335 -2 c 128
 319.667 -9.33333 306 -13 294 -13 c 0
 270.667 -13 250 -6.66667 232 6 c 0
 219.333 16 205.333 34.6667 190 62 c 1
 190 -199 l 1
 54 -199 l 1
 54 519 l 1xb8
EndSplineSet
EndChar
StartChar: paragraph
Encoding: 182 182 136
Width: 456
VWidth: 2048
Flags: W
HStem: -197 21G<157 254 312 407> 588 128<213 312 213 452>
VStem: 157 97<-197 588> 312 95<-197 588>
Fore
254 -197 m 1
 157 -197 l 1
 157 314 l 1
 108.333 318.667 70 338 42 372 c 128
 13.3333 406 -1 453.333 -1 514 c 0
 -1 551.333 5.33333 584.667 18 614 c 128
 30.6667 642.667 46 664.333 64 679 c 128
 82.6667 693.667 103 704 125 710 c 0
 140.333 714 169.667 716 213 716 c 2
 452 716 l 1
 452 588 l 1
 407 588 l 1
 407 -197 l 1
 312 -197 l 1
 312 588 l 1
 254 588 l 1
 254 -197 l 1
EndSplineSet
EndChar
StartChar: middot
Encoding: 183 183 258
Width: 272
VWidth: 2048
Flags: W
VStem: 196 113<280 417>
Fore
196 280 m 1
 196 417 l 1
 309 417 l 1
 309 280 l 1
 196 280 l 1
EndSplineSet
EndChar
StartChar: cedilla
Encoding: 184 184 221
Width: 272
VWidth: 2048
Flags: W
HStem: -205 60<62 108> -58 52<106 132>
VStem: 157 76<-108.606 -92>
Fore
15 -197 m 1
 15 -139 l 1
 42.3333 -143 67.6667 -145 91 -145 c 0
 113 -145 129.667 -140.667 141 -132 c 128
 151.667 -123.333 157 -112.333 157 -99 c 0
 157 -87 152.667 -77 144 -69 c 128
 134.667 -61.6667 122 -58 106 -58 c 0
 89.3333 -58 72 -61 54 -67 c 1
 64 -19 l 1
 84.6667 -10.3333 107.333 -6 132 -6 c 0
 162.667 -6 187.333 -14.3333 206 -31 c 128
 224 -48.3333 233 -70.6667 233 -98 c 0
 233 -129.333 221 -155 197 -175 c 128
 172.333 -195 137.667 -205 93 -205 c 0
 59 -205 33 -202.333 15 -197 c 1
EndSplineSet
EndChar
StartChar: onesuperior
Encoding: 185 185 240
Width: 272
VWidth: 2048
Flags: W
HStem: 705 20G<137 198>
VStem: 123 75<355 725>
Fore
198 355 m 1
 123 355 l 1
 123 605 l 1
 97.6667 584.333 69 568.667 37 558 c 1
 37 633 l 1
 60.3333 641 81 653.333 99 670 c 128
 117 686 129.667 704.333 137 725 c 1
 198 725 l 1
 198 355 l 1
EndSplineSet
EndChar
StartChar: ordmasculine
Encoding: 186 186 158
Width: 298
VWidth: 2048
Flags: W
HStem: 361 83<149 155> 643 85<138.094 155>
VStem: 10 85<520 554> 202 86<520 570>
Fore
10 544 m 0
 10 604 23 649.667 49 681 c 128
 75 712.333 108.333 728 149 728 c 0
 189.667 728 223 712.333 249 681 c 128
 275 649 288 603.333 288 544 c 0
 288 485.333 275 440 249 408 c 128
 223 376.667 189.667 361 149 361 c 0
 108.333 361 75 376.667 49 408 c 128
 23 440 10 485.333 10 544 c 0
95 543 m 0
 95 507.667 100 482.333 110 467 c 128
 120 451.667 133 444 149 444 c 0
 164.333 444 177 451.667 187 467 c 128
 197 482.333 202 507.667 202 543 c 0
 202 579.667 197 605.333 187 620 c 128
 176.333 635.333 163 643 147 643 c 0
 132.333 643 120 635.333 110 620 c 128
 100 604.667 95 579 95 543 c 0
EndSplineSet
EndChar
StartChar: guillemotright
Encoding: 187 187 170
Width: 456
VWidth: 2048
Flags: W
Fore
200 34 m 1
 303 255 l 1
 200 480 l 1
 288 480 l 1
 415 255 l 1
 288 34 l 1
 200 34 l 1
42 34 m 1
 146 255 l 1
 42 480 l 1
 131 480 l 1
 257 255 l 1
 131 34 l 1
 42 34 l 1
EndSplineSet
EndChar
StartChar: questiondown
Encoding: 191 191 162
Width: 500
VWidth: 2048
Flags: W
HStem: -205 105<232 253> 334 47<203 306> 499 20G<193 306>
VStem: 41 109<-14 6> 193 113<381 519> 204 102<297 334>
Fore
306 519 m 1xf8
 306 381 l 1
 193 381 l 1
 193 519 l 1
 306 519 l 1xf8
204 334 m 1xf4
 306 334 l 1
 306 299 l 1
 306 260.333 300.333 227.667 289 201 c 128
 277 174.333 255.667 145.333 225 114 c 0
 189.667 79.3333 168.333 55.3333 161 42 c 128
 153.667 28.6667 150 12.6667 150 -6 c 0
 150 -32 159.333 -54.3333 178 -73 c 128
 196.667 -91 219.667 -100 247 -100 c 0
 307 -100 344.333 -59.6667 359 21 c 1
 462 4 l 1
 455.333 -62 433 -113.333 395 -150 c 128
 356.333 -186.667 308.333 -205 251 -205 c 0
 191 -205 141 -185.333 101 -146 c 128
 61 -106.667 41 -58 41 0 c 0
 41 32.6667 48.6667 63 64 91 c 128
 80 119 109.333 154.333 152 197 c 0
 175.333 220.333 190 239.667 196 255 c 128
 202 269.667 204.667 296 204 334 c 1xf4
EndSplineSet
EndChar
StartChar: AE
Encoding: 198 198 144
Width: 819
VWidth: 2048
Flags: W
HStem: 0 121<479 780> 168 125<201 361> 314 122<479 747> 595 121<240 770> 607 109<240 362>
VStem: 361 118<0 314 293 595>
DStem: 240 716 316 607 -34 0 201 293 240 716 157 168 -34 0 97 0
Fore
-34 0 m 1xf4
 240 716 l 1
 770 716 l 1
 770 595 l 1
 479 595 l 1
 479 436 l 1
 747 436 l 1
 747 314 l 1
 479 314 l 1
 479 121 l 1
 780 121 l 1
 780 0 l 1
 361 0 l 1
 361 168 l 1
 157 168 l 1
 97 0 l 1
 -34 0 l 1xf4
201 293 m 1
 362 293 l 1
 362 607 l 1
 316 607 l 1xec
 201 293 l 1
EndSplineSet
EndChar
StartChar: Eth
Encoding: 208 208 232
Width: 591
VWidth: 2048
Flags: W
HStem: 0 21G<60 282> 312 91<-1 60 178 303> 595 121<60 278>
VStem: 60 118<0 312 403 595> 429 122<310 385>
Fore
60 716 m 1
 276 716 l 2
 330 716 371 710 399 698 c 128
 427 685.333 452.667 664.667 476 636 c 128
 526 574.571 551 479.238 551 350 c 0
 551 288.667 544 235 530 189 c 128
 516 143 498.333 106.667 477 80 c 128
 455.667 54 429.667 34 399 20 c 128
 369 6.66667 330 4.33681e-19 282 0 c 2
 60 0 l 1
 60 312 l 1
 -1 312 l 1
 -1 403 l 1
 60 403 l 1
 60 716 l 1
178 595 m 1
 178 403 l 1
 303 403 l 1
 303 312 l 1
 178 312 l 1
 178 121 l 1
 267 121 l 2
 304.333 121 331.667 124.333 349 131 c 128
 366.333 138.333 380.333 149 391 163 c 128
 416.333 197.833 429 261.167 429 353 c 0
 429 409.667 425 453.333 417 484 c 128
 401.556 543.203 370.889 578.203 325 589 c 0
 309 593 277.667 595 231 595 c 2
 178 595 l 1
EndSplineSet
EndChar
StartChar: multiply
Encoding: 215 215 239
Width: 479
VWidth: 2048
Flags: W
DStem: 43 500 118 591 165 353 239 443 165 353 238 264 44 205 117 116 238 264 312 354 360 115 434 206 360 591 433 502 239 443 312 354
Fore
44 205 m 1
 165 353 l 1
 43 500 l 1
 118 591 l 1
 239 443 l 1
 360 591 l 1
 433 502 l 1
 312 354 l 1
 434 206 l 1
 360 115 l 1
 238 264 l 1
 117 116 l 1
 44 205 l 1
EndSplineSet
EndChar
StartChar: Oslash
Encoding: 216 216 145
Width: 638
VWidth: 2048
Flags: W
HStem: -12 117<312 330> 605 123<320 330>
VStem: 35 123<327 393> 482 122<327 393>
DStem: 94 114 147 49 25 21 83 -40 422 563 466 486 176 226 220 149 559 750 615 690 496 664 548 599
Fore
496 664 m 1
 559 750 l 1
 615 690 l 1
 548 599 l 1
 585.333 536.333 604 454.333 604 353 c 0
 604 252.333 582 168.333 538 101 c 0
 488.667 25.6667 417 -12 323 -12 c 0
 250.333 -12 191.667 8.33333 147 49 c 1
 83 -40 l 1
 25 21 l 1
 94 114 l 1
 54.6667 179.555 35 262.555 35 363 c 0
 35 479 63.6667 571.333 121 640 c 0
 169.667 698.667 236 728 320 728 c 0
 390 728 448.667 706.667 496 664 c 1
422 563 m 1
 395.333 591 361.333 605 320 605 c 0
 272.667 605 233.667 585 203 545 c 128
 173 504.333 158 442.333 158 359 c 0
 158 306.333 164 262 176 226 c 1
 422 563 l 1
466 486 m 1
 220 149 l 1
 247.333 119.667 280.333 105 319 105 c 0
 366.333 105 405.333 125.667 436 167 c 128
 466.667 208.333 482 272 482 358 c 0
 482 407.333 476.667 450 466 486 c 1
EndSplineSet
EndChar
StartChar: Thorn
Encoding: 222 222 236
Width: 546
VWidth: 2048
Flags: W
HStem: 0 21G<60 178> 696 20G<60 178>
VStem: 60 118<0 135 0 460 0 716> 387 122<351 369>
Fore
60 0 m 1
 60 716 l 1
 178 716 l 1
 178 581 l 1
 250 581 l 2
 321.333 581 368 577.333 390 570 c 0
 424 559.333 452.333 536 475 500 c 128
 497.667 464 509 417.333 509 360 c 0
 509 308.667 499.333 265.333 480 230 c 128
 460.667 195.333 436.333 170.667 407 156 c 128
 377.667 142 327 135 255 135 c 2
 178 135 l 1
 178 0 l 1
 60 0 l 1
178 460 m 1
 178 256 l 1
 243 256 l 2
 291 256 322 259 336 265 c 128
 350 270.333 362 281.333 372 298 c 128
 382 314.667 387 334.667 387 358 c 0
 387 383.333 382 404.333 372 421 c 128
 361.333 437 349.333 447.667 336 453 c 128
 322.667 457.667 289 460 235 460 c 2
 178 460 l 1
EndSplineSet
EndChar
StartChar: germandbls
Encoding: 223 223 137
Width: 500
VWidth: 2048
Flags: W
HStem: -12 110<318 330> 0 21G<56 168> 621 107<223 233>
VStem: 56 112<0 517> 225 118<381 411> 278 116<563 580> 359 113<135 157>
Fore
56 0 m 1x74
 56 465 l 2
 56 528.333 59.6667 574.333 67 603 c 0
 89.4867 686.333 144.153 728 231 728 c 0
 283 728 323 714.667 351 688 c 128
 379.667 660.667 394 624.667 394 580 c 0x74
 394 552 385.667 519.667 369 483 c 0
 351.667 444.333 343 420.333 343 411 c 0
 343 401 345.667 391.333 351 382 c 128
 355.667 372.667 372.667 350 402 314 c 0
 428.667 281.333 447 253 457 229 c 128
 467 205 472 180.333 472 155 c 0
 472 105 458.333 64.6667 431 34 c 128
 403 3.33333 369.333 -12 330 -12 c 0
 303.333 -12 278 -3.66667 254 13 c 128
 230.667 30.3333 212.667 53 200 81 c 1
 279 137 l 1
 289.667 111 303.333 98 320 98 c 0
 330.667 98 340 102.667 348 112 c 128
 355.333 121.333 359 133.333 359 148 c 0
 359 160.667 356.333 172.333 351 183 c 128
 345 193.667 325.333 218.333 292 257 c 0
 247.333 309.667 225 351 225 381 c 0xba
 225 400.333 233.667 432 251 476 c 0
 264.333 510 272.333 531.667 275 541 c 128
 277 549.667 278 559 278 569 c 0
 278 583.667 273.333 596 264 606 c 128
 254.667 616 243.333 621 230 621 c 0
 216.667 621 205 616.333 195 607 c 128
 184.333 598.333 177.333 585.667 174 569 c 128
 170 551.667 168 517 168 465 c 2
 168 0 l 1
 56 0 l 1x74
EndSplineSet
EndChar
StartChar: ae
Encoding: 230 230 160
Width: 729
VWidth: 2048
Flags: W
HStem: -12 97<180 210> -12 105<482 500> 219 86<409 690> 425 105<225 243 482 500>
VStem: 35 113<139 155> 297 112<305 337>
Fore
575 166 m 1x7c
 685 142 l 1
 654.333 39.3333 592 -12 498 -12 c 0x7c
 437.333 -12 386.333 12 345 60 c 1
 325 38.6667 300 21.3333 270 8 c 128
 240 -5.33333 210 -12 180 -12 c 0xbc
 136 -12 101 2 75 30 c 128
 48.3333 58 35 95 35 141 c 0
 35 175.667 43.3333 206.333 60 233 c 0
 72 253.667 90.6667 269.667 116 281 c 0
 132 289 169.667 300.333 229 315 c 0
 255.667 322.333 278.333 329.667 297 337 c 1
 297 363 294.667 381.333 290 392 c 128
 281.2 414 260.2 425 227 425 c 0
 206.333 425 189.667 420 177 410 c 128
 164.333 400 155 383.333 149 360 c 1
 47 384 l 1
 61 436.667 82.6667 474.333 112 497 c 128
 141.333 519 184.333 530 241 530 c 0
 297 530 340.333 514 371 482 c 1
 403.667 514 442.333 530 487 530 c 0
 571.267 530 630.6 487 665 401 c 128
 681.667 357.667 690 297 690 219 c 1
 408 219 l 1
 416 135 445.333 93 496 93 c 0
 534.667 93 561 117.333 575 166 c 1x7c
580 305 m 1
 578 337 573.333 360.667 566 376 c 128
 551.028 408.667 526.361 425 492 425 c 0
 464.667 425 443.667 412.333 429 387 c 128
 415 362.333 408.333 335 409 305 c 1
 580 305 l 1
296 248 m 1
 229.333 226 193.667 214 189 212 c 0
 161.667 200.818 148 181.151 148 153 c 0
 148 133.667 154 117.333 166 104 c 128
 178 91.3333 192.667 85 210 85 c 0xbc
 227.333 85 243.667 90.6667 259 102 c 128
 273.667 113.333 283.667 127.333 289 144 c 128
 293.667 160 296 194.667 296 248 c 1
EndSplineSet
EndChar
StartChar: eth
Encoding: 240 240 233
Width: 500
VWidth: 2048
Flags: W
HStem: -12 112<250 262> 411 108<220 250> 696 20G<133 250>
VStem: 33 117<243 277> 354 117<243 277>
DStem: 220 630 250 591 133 580 150 533
Fore
133 716 m 1
 250 716 l 1
 294 672 l 1
 366 716 l 1
 384 668 l 1
 327 635 l 1
 375.667 575 411.667 513.667 435 451 c 128
 459 387.667 471 325.667 471 265 c 0
 471 179 449.667 111.333 407 62 c 128
 365 12.6667 312.667 -12 250 -12 c 0
 188.667 -12 138.667 11 100 57 c 0
 55.3333 109.667 33 177.333 33 260 c 0
 33 342 56 408.333 102 459 c 0
 137.333 499 176.667 519 220 519 c 0
 234 519 247.333 516.667 260 512 c 128
 272.667 507.333 289 498.333 309 485 c 1
 293 520.333 273.333 555.667 250 591 c 1
 150 533 l 1
 133 580 l 1
 220 630 l 1
 194 659.333 165 688 133 716 c 1
150 259 m 0
 150 207 160 167.333 180 140 c 128
 199.333 113.333 222.667 100 250 100 c 0
 278 100 302.333 113.333 323 140 c 128
 343.667 167.333 354 205.333 354 254 c 0
 354 303.333 343.333 341.667 322 369 c 128
 301.333 397 277.333 411 250 411 c 0
 222.667 411 199.333 398 180 372 c 128
 160 346 150 308.333 150 259 c 0
EndSplineSet
EndChar
StartChar: divide
Encoding: 247 247 184
Width: 548
VWidth: 2048
Flags: W
HStem: 289 128<24 524> 479 137<206 343>
VStem: 206 137<90 228 479 616>
Fore
206 479 m 1
 206 616 l 1
 343 616 l 1
 343 479 l 1
 206 479 l 1
24 289 m 1
 24 417 l 1
 524 417 l 1
 524 289 l 1
 24 289 l 1
206 90 m 1
 206 228 l 1
 343 228 l 1
 343 90 l 1
 206 90 l 1
EndSplineSet
EndChar
StartChar: oslash
Encoding: 248 248 161
Width: 500
VWidth: 2048
Flags: W
HStem: -12 107<253 260> 425 105<242 260>
VStem: 35 111<251 285> 362 112<235 269>
DStem: 86 76 130 29 41 11 84 -36 316 399 350 339 158 177 193 118 421 546 466 501 379 488 422 441
Fore
379 488 m 1
 421 546 l 1
 466 501 l 1
 422 441 l 1
 437.333 419.667 449.667 392.667 459 360 c 128
 469 328 474 294.667 474 260 c 0
 474 207.333 464 159.667 444 117 c 128
 423.333 75 396.333 43 363 21 c 128
 329 -1 292.333 -12 253 -12 c 0
 207.667 -12 166.667 1.66667 130 29 c 1
 84 -36 l 1
 41 11 l 1
 86 76 l 1
 52 127.333 35 189.667 35 263 c 0
 35 315 45 362 65 404 c 128
 105 488 168 530 254 530 c 0
 302 530 343.667 516 379 488 c 1
316 399 m 1
 298 416.333 277.667 425 255 425 c 0
 225.667 425 200.333 411 179 383 c 128
 157 355 146 315.333 146 264 c 0
 146 231.333 150 202.333 158 177 c 1
 316 399 l 1
350 339 m 1
 193 118 l 1
 211 102.667 231 95 253 95 c 0
 283.667 95 309.667 108.667 331 136 c 128
 351.667 164 362 203.667 362 255 c 0
 362 284.333 358 312.333 350 339 c 1
EndSplineSet
EndChar
StartChar: thorn
Encoding: 254 254 237
Width: 500
VWidth: 2048
Flags: W
HStem: -197 21G<56 168> -12 109<266 292> 425 105<261 293> 696 20G<56 168>
VStem: 56 112<-197 64 -197 300 -197 716> 355 116<234 284>
Fore
56 716 m 1
 168 716 l 1
 168 458 l 1
 190.667 486 211.333 505 230 515 c 128
 249.333 525 270.333 530 293 530 c 0
 341.667 530 383.333 507 418 461 c 128
 453.333 415 471 349.333 471 264 c 0
 471 174.667 453.333 106.333 418 59 c 128
 382.667 11.6667 340.667 -12 292 -12 c 0
 270 -12 249.333 -6.33333 230 5 c 128
 210.667 15.6667 190 35.3333 168 64 c 1
 168 -197 l 1
 56 -197 l 1
 56 716 l 1
167 271 m 0
 167 226.333 171.333 192 180 168 c 128
 188.667 144.667 200.667 127 216 115 c 128
 232 103 248.667 97 266 97 c 0
 290.667 97 311.667 109.667 329 135 c 128
 346.333 161 355 202 355 258 c 0
 355 317.333 346.333 360 329 386 c 128
 311 412 288.333 425 261 425 c 0
 235 425 213 412.333 195 387 c 128
 176.333 361.667 167 323 167 271 c 0
EndSplineSet
EndChar
StartChar: dmacron
Encoding: 273 273 256
Width: 503
VWidth: 2048
Flags: W
HStem: -12 109<211 245> 0 21G<344 449> 425 105<213 243> 586 65<215 336 449 493> 696 20G<336 449>
VStem: 34 115<243 293> 344 105<0 586>
Fore
213 530 m 0xbe
 261.667 530 302.667 506 336 458 c 1
 336 586 l 1
 215 586 l 1
 215 651 l 1
 336 651 l 1
 336 716 l 1
 449 716 l 1
 449 651 l 1
 493 651 l 1
 493 586 l 1
 449 586 l 1
 449 0 l 1
 344 0 l 1x7e
 344 76 l 1
 326.667 46.6667 306.333 24.6667 283 10 c 128
 259.667 -4.66667 235.667 -12 211 -12 c 0
 163.667 -12 122.333 11.6667 87 59 c 128
 51.6667 106.333 34 174 34 262 c 0
 34 350.667 51 417.667 85 463 c 128
 119.667 507.667 162.333 530 213 530 c 0xbe
149 271 m 0
 149 223.667 153 188.667 161 166 c 128
 176.771 120 204.771 97 245 97 c 0xbe
 269.667 97 291.333 110.333 310 137 c 128
 328 163.667 337 203.667 337 257 c 0
 337 317 328 360 310 386 c 128
 292.667 412 270.333 425 243 425 c 0
 217 425 194.667 412.333 176 387 c 128
 158 361 149 322.333 149 271 c 0
EndSplineSet
EndChar
StartChar: Hbar
Encoding: 294 294 427
Width: 591
VWidth: 2048
Flags: W
HStem: 0 21G<60 178 411 529> 313 121<178 411> 529 91<2 60 178 411 529 587> 696 20G<60 178 411 529>
VStem: 60 118<0 313 0 529 620 716> 411 118<0 529 620 716>
Fore
60 529 m 1
 2 529 l 1
 2 620 l 1
 60 620 l 1
 60 716 l 1
 178 716 l 1
 178 620 l 1
 411 620 l 1
 411 716 l 1
 529 716 l 1
 529 620 l 1
 587 620 l 1
 587 529 l 1
 529 529 l 1
 529 0 l 1
 411 0 l 1
 411 313 l 1
 178 313 l 1
 178 0 l 1
 60 0 l 1
 60 529 l 1
178 529 m 1
 178 434 l 1
 411 434 l 1
 411 529 l 1
 178 529 l 1
EndSplineSet
EndChar
StartChar: hbar
Encoding: 295 295 428
Width: 500
VWidth: 2048
Flags: W
HStem: 0 21G<57 170 332 445> 425 105<262 302> 588 71<-1 57 170 307> 696 20G<57 170>
VStem: 57 113<0 289 0 588 659 716> 332 113<0 306>
Fore
-1 659 m 1
 57 659 l 1
 57 716 l 1
 170 716 l 1
 170 659 l 1
 307 659 l 1
 307 588 l 1
 170 588 l 1
 170 452 l 1
 207.333 504 251.333 530 302 530 c 0
 333.333 530 361.333 520.333 386 501 c 128
 410.667 482.333 426.667 458.333 434 429 c 128
 441.333 400.333 445 358.667 445 304 c 2
 445 0 l 1
 332 0 l 1
 332 274 l 2
 332 328 328.333 366.667 321 390 c 128
 313 413.333 293.333 425 262 425 c 0
 230 425 206.667 412 192 386 c 128
 177.333 360.667 170 318.667 170 260 c 2
 170 0 l 1
 57 0 l 1
 57 588 l 1
 -1 588 l 1
 -1 659 l 1
EndSplineSet
EndChar
StartChar: dotlessi
Encoding: 305 305 214
Width: 228
VWidth: 2048
Flags: W
HStem: 0 21G<59 172> 499 20G<59 172>
VStem: 59 113<0 519>
Fore
59 0 m 1
 59 519 l 1
 172 519 l 1
 172 0 l 1
 59 0 l 1
EndSplineSet
EndChar
StartChar: jcircumflex
Encoding: 309 309 438
Width: 228
VWidth: 2048
Flags: W
HStem: -210 127<10 41> 499 20G<57 169> 584 144<68 76 69 256>
VStem: 57 112<-19 519>
DStem: 69 728 119 657 -15 584 76 584
Fore
169 519 m 1
 169 16 l 2
 169 -54.6667 165.333 -103 158 -129 c 128
 141.385 -183 102.385 -210 41 -210 c 0
 18.3333 -210 -7.66667 -205.333 -37 -196 c 1
 -18 -79 l 1
 -6.66667 -81.6667 2.66667 -83 10 -83 c 0
 30 -83 43.6667 -75.3333 51 -60 c 0
 55 -51.3333 57 -23.3333 57 24 c 2
 57 519 l 1
 169 519 l 1
76 584 m 1
 -15 584 l 1
 69 728 l 1
 173 728 l 1
 256 584 l 1
 167 584 l 1
 119 657 l 1
 76 584 l 1
EndSplineSet
EndChar
StartChar: Lslash
Encoding: 321 321 225
Width: 500
VWidth: 2048
Flags: W
HStem: 0 121<184 479> 696 20G<66 184>
VStem: 66 118<0 361 357 716>
Fore
66 357 m 1
 66 716 l 1
 184 716 l 1
 184 479 l 1
 267 567 l 1
 267 448 l 1
 184 361 l 1
 184 121 l 1
 479 121 l 1
 479 0 l 1
 66 0 l 1
 66 241 l 1
 4 178 l 1
 4 294 l 1
 66 357 l 1
EndSplineSet
EndChar
StartChar: lslash
Encoding: 322 322 226
Width: 228
VWidth: 2048
Flags: W
HStem: 0 21G<59 172> 696 20G<59 172>
VStem: 59 113<0 375 352 716>
Fore
59 352 m 1
 59 716 l 1
 172 716 l 1
 172 468 l 1
 227 525 l 1
 227 432 l 1
 172 375 l 1
 172 0 l 1
 59 0 l 1
 59 259 l 1
 4 202 l 1
 4 295 l 1
 59 352 l 1
EndSplineSet
EndChar
StartChar: Eng
Encoding: 330 330 446
Width: 592
VWidth: 2048
Flags: W
HStem: -13 122<365 385> 0 21G<62 180> 601 127<317 371> 696 20G<62 180>
VStem: 62 118<0 420 0 716> 430 124<290 388>
Fore
62 716 m 1x5c
 180 716 l 1x5c
 180 614 l 1
 235.333 690 299 728 371 728 c 0
 428.333 728 473 700.333 505 645 c 128
 537.667 589.667 554 492.333 554 353 c 0
 554 199 539.333 99.3333 510 54 c 128
 481.333 9.33333 439.667 -13 385 -13 c 0xac
 341 -13 302.333 -1.66667 269 21 c 1x4c
 304 128 l 1
 328 115.333 349.333 109 368 109 c 0
 389.333 109 405 122 415 148 c 128
 425 174.667 430 234 430 326 c 0
 430 446.667 420 522.667 400 554 c 128
 379.333 585.333 351.667 601 317 601 c 0xac
 289 601 264 591.667 242 573 c 128
 220 554.333 204.333 533.333 195 510 c 128
 185 486 180 446.333 180 391 c 2
 180 0 l 1
 62 0 l 1
 62 716 l 1x5c
EndSplineSet
EndChar
StartChar: eng
Encoding: 331 331 447
Width: 500
VWidth: 2048
Flags: W
HStem: -213 130<293 311> 0 21G<57 170> 426 104<262 303> 499 20G<57 162>
VStem: 57 105<0 519> 57 113<0 284> 331 113<-22 300>
Fore
238 -196 m 1xea
 258 -75 l 1
 272.667 -80.3333 284.333 -83 293 -83 c 0
 305 -83 314.333 -78 321 -68 c 128
 327.667 -57.3333 331 -33.6667 331 3 c 1
 332 265 l 1
 332 330.333 326.667 373.333 316 394 c 128
 305.333 415.333 287.333 426 262 426 c 0
 240 426 221 418 205 402 c 128
 189.667 386.667 180 368.333 176 347 c 128
 172 325.667 170 288.333 170 235 c 2
 170 0 l 1xe6
 57 0 l 1
 57 519 l 1
 162 519 l 1xda
 162 442 l 1
 198 500.667 245 530 303 530 c 0
 339 530 371.667 517 401 491 c 128
 429.667 465 444 408.667 444 322 c 2
 444 26 l 2
 444 -50.6667 440.667 -101.667 434 -127 c 128
 427.333 -153 413.333 -173.667 392 -189 c 128
 370.667 -205 343.667 -213 311 -213 c 0
 290.333 -213 266 -207.333 238 -196 c 1xea
EndSplineSet
EndChar
StartChar: OE
Encoding: 338 338 176
Width: 819
VWidth: 2048
Flags: W
HStem: -32 20G<211.5 317> 0 122<520 794> 314 122<520 761> 595 121<417 783> 605 123<258 281>
VStem: 29 122<339 389>
Fore
794 122 m 1xf4
 794 0 l 1
 417 0 l 1
 417 84 l 1
 386.333 20 335 -12 263 -12 c 0
 194.333 -12 140.667 15 102 69 c 0
 53.3333 136.333 29 232.667 29 358 c 0
 29 482.667 52.6667 578.333 100 645 c 0
 140 700.333 192.667 728 258 728 c 0xec
 290.667 728 321 720 349 704 c 128
 377 688 399.667 665.667 417 637 c 1
 417 716 l 1
 783 716 l 1
 783 595 l 1
 520 595 l 1
 520 436 l 1
 761 436 l 1
 761 314 l 1
 520 314 l 1
 520 122 l 1
 794 122 l 1xf4
281 605 m 0
 194.333 605 151 526.333 151 369 c 0
 151 273.667 164 205 190 163 c 0
 210 131 240.333 115 281 115 c 0
 321.667 115 351.667 131 371 163 c 0
 397 204.333 410 273.333 410 370 c 0
 410 456 398.333 516.667 375 552 c 128
 351 587.333 319.667 605 281 605 c 0
EndSplineSet
EndChar
StartChar: oe
Encoding: 339 339 177
Width: 773
VWidth: 2048
Flags: W
HStem: -12 105<550 552> -12 114<251 260> 219 86<461 740> 417 113<242 260> 429 101<541 552>
VStem: 35 116<243 277>
Fore
252 530 m 0x74
 311.333 530 361 506 401 458 c 1
 437.667 506 485 530 543 530 c 0
 581 530 615 519.333 645 498 c 128
 709.581 451.671 741.247 358.671 740 219 c 1
 460 219 l 1
 462.667 176.333 472.333 144.667 489 124 c 128
 505.667 103.333 526 93 550 93 c 0
 567.333 93 582.333 98.6667 595 110 c 128
 607 120.667 617 139.667 625 167 c 1
 735 145 l 1
 721.667 94.3333 698.667 55.6667 666 29 c 128
 633.333 1.66667 594.667 -12 550 -12 c 0xac
 521.333 -12 494 -5.66667 468 7 c 128
 442 19 419.333 37 400 61 c 1
 357.91 12.3333 308.243 -12 251 -12 c 0
 190.333 -12 139 12.6667 97 62 c 128
 55.6667 111.333 35 177 35 259 c 0
 35 313.667 45 362.333 65 405 c 128
 104.683 488.333 167.016 530 252 530 c 0x74
632 305 m 1
 630 348.333 621 379.667 605 399 c 128
 589 419 569 429 545 429 c 0
 519 429 498 416.333 482 391 c 0
 471.333 373 464.333 344.333 461 305 c 1
 632 305 l 1
151 251 m 0
 151 213.667 160 179.333 178 148 c 128
 196 117.333 220.333 102 251 102 c 0
 278.333 102 301.667 115.333 321 142 c 128
 340.333 168.667 350 209.333 350 264 c 0
 350 313.333 340.333 351 321 377 c 128
 301.667 403.667 278.333 417 251 417 c 0x74
 222.333 417 198.333 403.333 179 376 c 128
 160.333 349.333 151 307.667 151 251 c 0
EndSplineSet
EndChar
StartChar: Tbar
Encoding: 358 358 456
Width: 500
VWidth: 2048
Flags: W
HStem: 0 21G<192 310> 270 91<66 192 310 436> 595 121<17 192 17 484>
VStem: 192 118<0 270 361 595>
Fore
192 270 m 1
 66 270 l 1
 66 361 l 1
 192 361 l 1
 192 595 l 1
 17 595 l 1
 17 716 l 1
 484 716 l 1
 484 595 l 1
 310 595 l 1
 310 361 l 1
 436 361 l 1
 436 270 l 1
 310 270 l 1
 310 0 l 1
 192 0 l 1
 192 270 l 1
EndSplineSet
EndChar
StartChar: tbar
Encoding: 359 359 457
Width: 272
VWidth: 2048
Flags: W
HStem: -12 114<169 203> 211 85<2 59 171 242> 409 110<7 59 171 248>
VStem: 59 112<163 211 296 409 519 702>
Fore
171 296 m 1
 242 296 l 1
 242 211 l 1
 171 211 l 1
 171 199 l 2
 171 153.667 173 126.333 177 117 c 128
 181 107 189.667 102 203 102 c 0
 213.667 102 228.667 106.333 248 115 c 1
 257 9 l 1
 231 -5 201.667 -12 169 -12 c 0
 138.333 -12 114.667 -4.66667 98 10 c 128
 80.6667 24.6667 70 43 66 65 c 128
 61.3333 87 59 126.333 59 183 c 2
 59 211 l 1
 2 211 l 1
 2 296 l 1
 59 296 l 1
 59 409 l 1
 7 409 l 1
 7 519 l 1
 59 519 l 1
 59 622 l 1
 171 702 l 1
 171 519 l 1
 248 519 l 1
 248 409 l 1
 171 409 l 1
 171 296 l 1
EndSplineSet
EndChar
StartChar: longs
Encoding: 383 383 470
Width: 228
VWidth: 2048
Flags: W
HStem: 0 21G<57 169> 623 105<187 214>
VStem: 57 112<0 577>
Fore
282 710 m 1
 267 615 l 1
 248.333 620.333 230.667 623 214 623 c 0
 198 623 186.333 618 179 608 c 128
 172.333 598.667 169 581 169 555 c 2
 169 0 l 1
 57 0 l 1
 57 558 l 2
 57 599.333 60.6667 631.333 68 654 c 128
 75.3333 676.667 89.3333 694.667 110 708 c 128
 131.333 721.333 157 728 187 728 c 0
 219.667 728 251.333 722 282 710 c 1
EndSplineSet
EndChar
StartChar: florin
Encoding: 402 402 166
Width: 456
VWidth: 2048
Flags: W
HStem: -210 116<80 106> 416 103<124 191 319 387> 611 117<350 375>
DStem: 191 416 305 416 132 -11 236 -62
Fore
110 416 m 1
 125 519 l 1
 206 519 l 1
 212 562 l 1
 220 610 226.333 641 231 655 c 0
 239.667 679.667 253.333 698 272 710 c 128
 290.667 722 316.667 728 350 728 c 0
 386 728 422 721.333 458 708 c 1
 436 598 l 1
 410.667 606.667 389.667 611 373 611 c 0
 358.333 611 347.667 607.333 341 600 c 128
 333.667 592 327.667 574 323 546 c 2
 319 519 l 1
 402 519 l 1
 387 416 l 1
 305 416 l 1
 236 -62 l 2
 228.667 -114 217 -150.333 201 -171 c 0
 180.333 -197 148.667 -210 106 -210 c 0
 63.3333 -210 25.3333 -203.667 -8 -191 c 1
 15 -83 l 1
 44.3333 -90.3333 66.6667 -94 82 -94 c 0
 98 -94 109 -88.6667 115 -78 c 128
 121.667 -67.3333 127.333 -45 132 -11 c 1
 191 416 l 1
 110 416 l 1
EndSplineSet
EndChar
StartChar: uni0259
Encoding: 601 601 481
Width: 446
Flags: W
HStem: -12 105<215 235> 215 84<27 307> 428 102<204.96 229>
Fore
145 354 m 1
 33 376 l 0
 47.8524 428.479 71.1857 467.145 103 492 c 0
 134.413 517.333 172.747 530 218 530 c 0
 280.667 530 329 509 363 467 c 0
 403.667 418.399 424 350.065 424 262 c 0
 424 174.911 403.667 105.577 363 54 c 0
 328 10 283.333 -12 229 -12 c 0
 168.926 -12 121.259 10.6667 86 56 c 0
 46 107 26 182.667 26 283 c 0
 27 299 l 0
 309 299 l 0
 308.006 339.751 298.673 371.418 281 394 c 0
 263.261 416.667 241.927 428 217 428 c 0
 181.081 428 157.081 403.333 145 354 c 1
138 215 m 1
 138.981 174.773 147.648 144.44 164 124 c 0
 179.746 103.333 199.079 93 222 93 c 0
 245.746 93 265.746 103.667 282 125 c 0
 298.667 145.588 307 175.588 307 215 c 0
 138 215 l 1
EndSplineSet
EndChar
StartChar: circumflex
Encoding: 710 710 215
Width: 272
VWidth: 2048
Flags: W
HStem: 584 144<84 92 85 272>
DStem: 85 728 135 657 1 584 92 584 135 657 189 728 182 584 272 584
Fore
1 584 m 1
 85 728 l 1
 189 728 l 1
 272 584 l 1
 182 584 l 1
 135 657 l 1
 92 584 l 1
 1 584 l 1
EndSplineSet
EndChar
StartChar: caron
Encoding: 711 711 224
Width: 272
VWidth: 2048
Flags: W
HStem: 584 144<1 189>
DStem: 1 728 92 728 85 584 135 655 182 728 272 728 135 655 189 584
Fore
1 728 m 1
 92 728 l 1
 135 655 l 1
 182 728 l 1
 272 728 l 1
 189 584 l 1
 85 584 l 1
 1 728 l 1
EndSplineSet
EndChar
StartChar: macron
Encoding: 713 713 217
Width: 272
VWidth: 2048
Flags: W
HStem: 604 90<7 265>
Fore
7 604 m 1
 7 694 l 1
 265 694 l 1
 265 604 l 1
 7 604 l 1
EndSplineSet
EndChar
StartChar: breve
Encoding: 728 728 218
Width: 272
VWidth: 2048
Flags: W
HStem: 708 20G<10 65 205 260>
Fore
205 728 m 1
 260 728 l 1
 256.667 682.667 243.667 647.667 221 623 c 128
 198.333 598.333 169.667 586 135 586 c 0
 101 586 72.6667 598.333 50 623 c 128
 26.6667 647.667 13.3333 682.667 10 728 c 1
 65 728 l 1
 69 681.333 92.3333 658 135 658 c 0
 177.667 658 201 681.333 205 728 c 1
EndSplineSet
EndChar
StartChar: dotaccent
Encoding: 729 729 219
Width: 272
VWidth: 2048
Flags: W
HStem: 708 20G<82 193>
VStem: 82 111<598 728>
Fore
82 598 m 1
 82 728 l 1
 193 728 l 1
 193 598 l 1
 82 598 l 1
EndSplineSet
EndChar
StartChar: ring
Encoding: 730 730 220
Width: 272
VWidth: 2048
Flags: W
HStem: 560 52<137 139> 699 52<137 139>
VStem: 58 43<644.56 658> 172 43<644.076 658>
Fore
215 655 m 0
 215 627.667 207.333 605 192 587 c 128
 176 569 157.667 560 137 560 c 0
 115.667 560 97.3333 569 82 587 c 128
 66 605 58 627.667 58 655 c 0
 58 683 66 706 82 724 c 128
 97.3333 742 115.667 751 137 751 c 0
 157.667 751 176 742 192 724 c 128
 207.333 706 215 683 215 655 c 0
172 655 m 0
 172 667.667 168.667 678.333 162 687 c 128
 154.667 695 146.333 699 137 699 c 0
 127.667 699 119.333 695 112 687 c 128
 104.667 678.333 101 667.667 101 655 c 0
 101 643 104.667 632.667 112 624 c 128
 119.333 616 127.667 612 137 612 c 0
 146.333 612 154.667 616 162 624 c 128
 168.667 632.667 172 643 172 655 c 0
EndSplineSet
EndChar
StartChar: ogonek
Encoding: 731 731 223
Width: 272
VWidth: 2048
Flags: W
HStem: -210 75<164 188>
VStem: 64 66<-97 -58>
Fore
79 13 m 1
 139 13 l 1
 133 -5.66667 130 -29.3333 130 -58 c 0
 130 -84.6667 135.333 -104 146 -116 c 128
 156 -128.667 170 -135 188 -135 c 0
 204.667 -135 222.667 -131.333 242 -124 c 1
 242 -189 l 1
 215.333 -203 189.333 -210 164 -210 c 0
 134 -210 110 -200.333 92 -181 c 128
 73.3333 -161 64 -133 64 -97 c 0
 64 -68.3333 69 -31.6667 79 13 c 1
EndSplineSet
EndChar
StartChar: tilde
Encoding: 732 732 216
Width: 272
VWidth: 2048
Flags: W
VStem: -5 51<588 602.737>
Fore
74 631 m 0
 55.3333 631 46 616.667 46 588 c 1
 -5 588 l 1
 -5 604 l 1
 -5 640 1.66667 667 15 685 c 128
 29 703 46.6667 712 68 712 c 0
 84.9333 712 106.6 704.667 133 690 c 0
 157 676.667 175 670 187 670 c 0
 205.667 670 216.667 684.333 220 713 c 1
 271 713 l 1
 271 668.333 264.333 636.667 251 618 c 128
 237.667 599.333 220.667 590 200 590 c 0
 185.167 590 162.167 597.333 131 612 c 0
 104.333 624.667 85.3333 631 74 631 c 0
EndSplineSet
EndChar
StartChar: hungarumlaut
Encoding: 733 733 222
Width: 272
VWidth: 2048
Flags: W
Fore
39 584 m 1
 94 730 l 1
 212 730 l 1
 109 584 l 1
 39 584 l 1
189 584 m 1
 246 730 l 1
 360 730 l 1
 261 584 l 1
 189 584 l 1
EndSplineSet
EndChar
StartChar: uni0314
Encoding: 788 788 223
Width: 153
VWidth: 2048
Flags: W
Fore
128 579 m 1
 96 602.333 77 618.667 71 628 c 0
 65.6667 638 63 660 63 694 c 0
 63 711.333 65.3333 723.333 70 730 c 0
 72 732 75.3333 736 80 742 c 0
 90.6667 754.667 98.6667 761.333 104 762 c 0
 106.667 762.667 111.667 763 119 763 c 0
 129.667 763 137.333 760.667 142 756 c 0
 147 751 l 0
 154.333 738.333 158 729 158 723 c 0
 158 710.333 155.667 702 151 698 c 0
 129 685 l 0
 116.333 674.333 109.667 667.333 109 664 c 0
 109 646 112 633.333 118 626 c 0
 122 622 131.667 613.667 147 601 c 0
 128 579 l 1
EndSplineSet
EndChar
StartChar: tonos
Encoding: 900 900 496
Width: 272
VWidth: 2048
Flags: W
HStem: 708 20G<130 256>
Fore
75 582 m 1
 130 728 l 1
 256 728 l 1
 146 582 l 1
 75 582 l 1
EndSplineSet
EndChar
StartChar: dieresistonos
Encoding: 901 901 497
Width: 272
VWidth: 2048
Flags: W
HStem: 583 117<-59 38 235 332> 708 20G<106 227>
VStem: -59 97<583 700> 235 97<583 700>
Fore
64 583 m 1
 106 728 l 1
 227 728 l 1
 136 583 l 1
 64 583 l 1
332 583 m 1
 235 583 l 1
 235 700 l 1
 332 700 l 1
 332 583 l 1
38 583 m 1
 -59 583 l 1
 -59 700 l 1
 38 700 l 1
 38 583 l 1
EndSplineSet
EndChar
StartChar: anoteleia
Encoding: 903 903 477
Width: 272
VWidth: 2048
Flags: W
HStem: 499 20G<80 193>
VStem: 80 113<381 519>
Fore
80 381 m 1
 80 519 l 1
 193 519 l 1
 193 381 l 1
 80 381 l 1
EndSplineSet
EndChar
StartChar: Gamma
Encoding: 915 915 300
Width: 493
VWidth: 2048
Flags: W
HStem: 0 21G<62 180> 589 121<62 475>
VStem: 62 118<0 589>
Fore
62 0 m 1
 62 710 l 1
 475 710 l 1
 475 589 l 1
 180 589 l 1
 180 0 l 1
 62 0 l 1
EndSplineSet
EndChar
StartChar: Delta
Encoding: 916 916 508
Width: 588
VWidth: 2048
Flags: W
HStem: 0 121<162 589> 696 20G<228 354>
DStem: 228 716 290 549 0 0 162 121
Fore
354 716 m 1
 589 0 l 1
 0 0 l 1
 228 716 l 1
 354 716 l 1
162 121 m 1
 422 121 l 1
 290 549 l 1
 162 121 l 1
EndSplineSet
EndChar
StartChar: Theta
Encoding: 920 920 301
Width: 638
VWidth: 2048
Flags: W
HStem: -12 123<307 341> 298 121<225 416> 605 123<307 327>
VStem: 36 122<323 389> 483 122<339 389>
Fore
325 -12 m 0
 229 -12 156.667 22.3333 108 91 c 128
 60 159.667 36 247.333 36 354 c 0
 36 471.333 61.3333 563 112 629 c 128
 162.667 695 232 728 320 728 c 0
 406.667 728 475.667 695.333 527 630 c 128
 579 564 605 477.333 605 370 c 0
 605 248.667 580.333 154.667 531 88 c 128
 481 21.3333 412.333 -12 325 -12 c 0
321 605 m 0
 269.667 605 229.667 583.667 201 541 c 128
 172.333 498.333 158 437.333 158 358 c 0
 158 280 172.667 219.333 202 176 c 128
 232 132.667 272.667 111 324 111 c 0
 372 111 410.333 133 439 177 c 128
 468.333 220.333 483 281.333 483 360 c 0
 483 438.667 468.667 499.333 440 542 c 128
 412 584 372.333 605 321 605 c 0
416 298 m 1
 225 298 l 1
 225 419 l 1
 416 419 l 1
 416 298 l 1
EndSplineSet
EndChar
StartChar: Lambda
Encoding: 923 923 514
Width: 546
VWidth: 2048
Flags: W
HStem: 0 21G<0 126 418 547> 696 20G<210 337>
Fore
210 716 m 1
 337 716 l 1
 547 0 l 1
 418 0 l 1
 270 530 l 1
 126 0 l 1
 0 0 l 1
 210 716 l 1
EndSplineSet
EndChar
StartChar: Xi
Encoding: 926 926 517
Width: 527
VWidth: 2048
Flags: W
HStem: 0 121<41 487> 317 121<74 454> 595 121<52 476>
Fore
52 595 m 1
 52 716 l 1
 476 716 l 1
 476 595 l 1
 52 595 l 1
74 317 m 1
 74 438 l 1
 454 438 l 1
 454 317 l 1
 74 317 l 1
41 0 m 1
 41 121 l 1
 487 121 l 1
 487 0 l 1
 41 0 l 1
EndSplineSet
EndChar
StartChar: Pi
Encoding: 928 928 519
Width: 591
VWidth: 2048
Flags: W
HStem: 0 21G<61 179 412 530> 595 121<61 412>
VStem: 61 118<0 595> 412 118<0 716>
Fore
179 0 m 1
 61 0 l 1
 61 716 l 1
 530 716 l 1
 530 0 l 1
 412 0 l 1
 412 595 l 1
 179 595 l 1
 179 0 l 1
EndSplineSet
EndChar
StartChar: Sigma
Encoding: 931 931 521
Width: 492
VWidth: 2048
Flags: W
HStem: 0 121<174 462> 595 121<43 450>
DStem: 43 587 190 595 193 374 342 374 193 374 342 374 36 134 174 121
Fore
43 587 m 1
 43 716 l 1
 450 716 l 1
 450 595 l 1
 190 595 l 1
 342 374 l 1
 174 121 l 1
 462 121 l 1
 462 0 l 1
 36 0 l 1
 36 134 l 1
 193 374 l 1
 43 587 l 1
EndSplineSet
EndChar
StartChar: Phi
Encoding: 934 934 302
Width: 670
VWidth: 2048
Flags: W
VStem: 33 122<366 388> 276 118<-29 57 185 548 669 734> 515 122<366 388>
Fore
276 670 m 1
 276 734 l 1
 394 734 l 1
 394 670 l 1
 470 666 529.667 636 573 580 c 128
 615.667 524.667 637 453.333 637 366 c 0
 637 281.333 615.667 210.333 573 153 c 128
 530.333 95.6667 470.667 63.6667 394 57 c 1
 394 -29 l 1
 276 -29 l 1
 276 57 l 1
 199.333 63.6667 139.667 95.6667 97 153 c 128
 54.3333 210.333 33 281.333 33 366 c 0
 33 453.333 54.6667 524.667 98 580 c 128
 140.667 636 200 666 276 670 c 1
276 185 m 1
 276 548 l 1
 237.333 542.667 207.667 523.667 187 491 c 128
 165.667 458.333 155 416.667 155 366 c 0
 155 314.667 165.333 273 186 241 c 128
 207.333 209 237.333 190.333 276 185 c 1
394 548 m 1
 394 185 l 1
 432.667 190.333 462.667 209 484 241 c 128
 504.667 273.667 515 315.333 515 366 c 0
 515 416.667 504.667 458.333 484 491 c 128
 462.667 524.333 432.667 543.333 394 548 c 1
EndSplineSet
EndChar
StartChar: Psi
Encoding: 936 936 525
Width: 663
VWidth: 2048
Flags: W
HStem: 0 21G<273 391> 696 20G<34 152 273 391 511 629>
VStem: 34 118<495 716> 273 118<0 209 331 716> 511 118<495 716>
Fore
34 513 m 2
 34 716 l 1
 152 716 l 1
 152 535 l 2
 152 457.667 161.333 404.333 180 375 c 128
 198.667 345.667 229.667 331 273 331 c 1
 273 716 l 1
 391 716 l 1
 391 331 l 1
 434.333 331 465.333 345.667 484 375 c 128
 502 404.333 511 457.667 511 535 c 2
 511 716 l 1
 629 716 l 1
 629 513 l 2
 629 407 609.667 330.333 571 283 c 128
 533 235.667 473 211 391 209 c 1
 391 0 l 1
 273 0 l 1
 273 209 l 1
 191 211.667 130.667 236.667 92 284 c 128
 53.3333 331.333 34 407.667 34 513 c 2
EndSplineSet
EndChar
StartChar: Ohm
Encoding: 937 937 526
Width: 657
VWidth: 2048
Flags: W
HStem: 0 121<39 308 504 618> 605 123<328 344>
VStem: 49 122<374 409> 487 122<374 409>
Fore
308 0 m 1
 39 0 l 1
 39 121 l 1
 153 121 l 1
 83.6667 211 49 307 49 409 c 0
 49 503 74.6667 579.667 126 639 c 128
 177.333 698.333 244.667 728 328 728 c 0
 412 728 479.667 698.333 531 639 c 128
 583 579 609 502.333 609 409 c 0
 609 306.333 574 210.333 504 121 c 1
 618 121 l 1
 618 0 l 1
 349 0 l 1
 349 115 l 1
 441 160.333 487 246.667 487 374 c 0
 487 442.667 472.333 498.333 443 541 c 128
 413.667 583.667 375.333 605 328 605 c 0
 280.667 605 242.667 583.667 214 541 c 128
 185.333 499 171 443.333 171 374 c 0
 171 246.667 216.667 160.333 308 115 c 1
 308 0 l 1
EndSplineSet
EndChar
StartChar: alpha
Encoding: 945 945 303
Width: 503
VWidth: 2048
Flags: W
HStem: -12 109<216 236> 0 21G<378 473> 422 109<217 236> 498 20G<380 477>
VStem: 31 116<242 277> 324 102<227 277>
Fore
357 86 m 1x5c
 323 20.6667 276 -12 216 -12 c 0
 162 -12 117.667 14.6667 83 68 c 128
 48.3333 122 31 190.333 31 273 c 0
 31 349 48.3333 411 83 459 c 128
 117 507 161.667 531 217 531 c 0xac
 273.667 531 320.333 497 357 429 c 1
 363 459 370.667 488.667 380 518 c 1
 477 518 l 1
 443 430 426 338.667 426 244 c 0
 426 168 441.667 86.6667 473 0 c 1
 378 0 l 1
 366.667 42.6667 359.667 71.3333 357 86 c 1x5c
236 422 m 0
 209.333 422 187.667 407.667 171 379 c 128
 155 350.333 147 311.333 147 262 c 0
 147 211.333 155.333 171 172 141 c 128
 188.667 111.667 210 97 236 97 c 0
 263.333 97 285 111 301 139 c 128
 316.333 167 324 206.667 324 258 c 0
 324 308.667 315.667 348.667 299 378 c 128
 281.667 407.333 260.667 422 236 422 c 0
EndSplineSet
EndChar
StartChar: beta
Encoding: 946 946 534
Width: 500
VWidth: 2048
Flags: W
HStem: -197 21G<58 171> -12 109<278 312> 619 109<249 260>
VStem: 58 113<-197 76 -197 492> 329 110<526 545> 355 116<186 220>
Fore
340 394 m 1xf8
 382 384 414.333 361.667 437 327 c 128
 459.667 292.333 471 250 471 200 c 0xf4
 471 138 456.333 87.3333 427 48 c 128
 397 8 358.667 -12 312 -12 c 0
 254.667 -12 207.667 17.3333 171 76 c 1
 171 -197 l 1
 58 -197 l 1
 58 474 l 2
 58 554.667 76 617.333 112 662 c 128
 148.667 706 197.333 728 258 728 c 0
 309.333 728 352.333 710.667 387 676 c 128
 421.667 641.333 439 597 439 543 c 0
 439 509 430.333 478.333 413 451 c 128
 395 424.333 370.667 405.333 340 394 c 1xf8
171 461 m 2
 171 291 l 2
 171 229 181 181 201 147 c 128
 221 113.667 246.667 97 278 97 c 0
 300.667 97 319 106.667 333 126 c 128
 347.667 145.333 355 170.667 355 202 c 0xf4
 355 246.667 343.667 282.667 321 310 c 128
 297.667 336.667 264.333 350 221 350 c 1
 221 426 l 1
 255.667 428 282.333 438 301 456 c 128
 319.667 474.667 329 498.667 329 528 c 0xf8
 329 554.667 321.667 576.667 307 594 c 128
 292.333 610.667 274 619 252 619 c 0
 198 619 171 566.333 171 461 c 2
EndSplineSet
EndChar
StartChar: gamma
Encoding: 947 947 535
Width: 456
VWidth: 2048
Flags: W
HStem: -197 21G<172 285> 498 20G<6 124 332 448>
VStem: 172 113<-197 0>
DStem: 6 518 124 518 172 0 204 254 332 518 448 518 251 254 285 0
Fore
172 -197 m 1
 172 0 l 1
 6 518 l 1
 124 518 l 1
 204 254 l 1
 227 166 l 1
 251 254 l 1
 332 518 l 1
 448 518 l 1
 285 0 l 1
 285 -197 l 1
 172 -197 l 1
EndSplineSet
EndChar
StartChar: delta
Encoding: 948 948 304
Width: 497
VWidth: 2048
Flags: W
HStem: -12 105<238 256> 602 114<71 430>
VStem: 31 110<243 261> 357 110<227 261>
Fore
71 619 m 1
 71 716 l 1
 430 716 l 1
 430 602 l 1
 229 602 l 1
 249.667 579.333 279.333 552 318 520 c 128
 356.667 488 385.333 462 404 442 c 128
 446 395.333 467 333 467 255 c 0
 467 175 447 110.333 407 61 c 128
 367 12.3333 313.333 -12 246 -12 c 0
 174.667 -12 121 16.3333 85 73 c 128
 49 129.667 31 190.333 31 255 c 0
 31 320.333 45 376.333 73 423 c 128
 101.667 470.333 140.333 499.667 189 511 c 1
 148.179 545.512 108.845 581.512 71 619 c 1
250 407 m 0
 217.333 407 191 392.333 171 363 c 128
 151 333.667 141 294.333 141 245 c 0
 141 198.333 151 161.333 171 134 c 128
 191 106.667 216.667 93 248 93 c 0
 279.333 93 305.333 107.333 326 136 c 128
 346.667 164.667 357 202.667 357 250 c 0
 357 297.333 346.667 335.333 326 364 c 128
 306 392.667 280.667 407 250 407 c 0
EndSplineSet
EndChar
StartChar: epsilon
Encoding: 949 949 305
Width: 389
VWidth: 2048
Flags: W
HStem: -12 109<202 217> 214 106<238 264> 419 112<202 224>
VStem: 31 116<141 155> 48 110<371 384>
Fore
264 214 m 1xe8
 253 214 l 2
 212.333 214 184.667 209 170 199 c 128
 154.667 189 147 173.667 147 153 c 0
 147 136.333 152.333 123 163 113 c 128
 174.333 102.333 188.333 97 205 97 c 0
 233 97 266.333 113 305 145 c 1
 379 56 l 1
 315.667 10.6667 257.333 -12 204 -12 c 0
 152 -12 110 2.33333 78 31 c 128
 46.6667 59.6667 31 96.3333 31 141 c 0xf0
 31 200.333 56.3333 243 107 269 c 1
 67.6667 295.667 48 333.333 48 382 c 0
 48 428 62 464.333 90 491 c 128
 118 517.667 157 531 207 531 c 0
 269.667 531 321.333 513.333 362 478 c 1
 295 391 l 1
 266.333 409.667 240.333 419 217 419 c 0
 177.667 419 158 403.667 158 373 c 0
 158 336.333 193.333 318.667 264 320 c 1
 264 214 l 1xe8
EndSplineSet
EndChar
StartChar: zeta
Encoding: 950 950 536
Width: 376
VWidth: 2048
Flags: W
HStem: -210 122<160 206> 602 114<74 231>
VStem: 31 110<205 223> 248 110<-51 -26>
Fore
74 602 m 1
 74 716 l 1
 370 716 l 1
 370 624 l 1
 290.667 558.667 232.667 489.667 196 417 c 128
 159.333 344.333 141 279 141 221 c 0
 141 187 147 164.333 159 153 c 128
 170.333 141.667 186.333 133.667 207 129 c 0
 243 121 269 113.667 285 107 c 128
 301.667 101 318 87.3333 334 66 c 128
 350 44.6667 358 14 358 -26 c 0
 358 -150 292 -211.333 160 -210 c 1
 188 -87 l 1
 192 -87.6667 198 -88 206 -88 c 0
 218 -88 228 -83.6667 236 -75 c 128
 244 -66.3333 248 -55.6667 248 -43 c 0
 248 -31 243.667 -21.3333 235 -14 c 128
 226.333 -6 208 -1 180 1 c 0
 132.667 5.66667 96 27.6667 70 67 c 128
 44 106.333 31 154 31 210 c 0
 31 330.667 97.6667 461.333 231 602 c 1
 74 602 l 1
EndSplineSet
EndChar
StartChar: eta
Encoding: 951 951 537
Width: 500
VWidth: 2048
Flags: W
HStem: -197 21G<332 445> 0 21G<57 170> 426 105<263 302> 498 20G<57 162>
VStem: 57 105<0 518> 57 113<0 284> 332 113<-197 322>
Fore
162 518 m 1xda
 162 442 l 1xda
 199.333 501.333 246 531 302 531 c 0
 337.333 531 370 518 400 492 c 128
 430 466.667 445 410 445 322 c 2
 445 -197 l 1
 332 -197 l 1
 332 265 l 2
 332 335 326 379.333 314 398 c 128
 302 416.667 285 426 263 426 c 0
 241 426 222.333 418.333 207 403 c 128
 191 387.667 181 368 177 344 c 128
 172.333 320.667 170 284.667 170 236 c 2
 170 0 l 1xe6
 57 0 l 1
 57 518 l 1
 162 518 l 1xda
EndSplineSet
EndChar
StartChar: theta
Encoding: 952 952 538
Width: 442
VWidth: 2048
Flags: W
HStem: -12 112<211.237 225> 301 114<147 296> 616 112<211.237 225>
Fore
31 359 m 0
 31 605 94.6667 728 222 728 c 0
 348.667 728 412 604.667 412 358 c 0
 412 111.333 348.667 -12 222 -12 c 0
 94.6667 -12 31 111.667 31 359 c 0
147 415 m 1
 296 415 l 1
 294 488.333 287.333 540.333 276 571 c 128
 265.333 601 247.333 616 222 616 c 0
 196.667 616 178.333 600.667 167 570 c 128
 155.667 539.333 149 487.667 147 415 c 1
296 301 m 1
 147 301 l 1
 149 228.333 155.667 176.667 167 146 c 128
 178.333 115.333 196.667 100 222 100 c 0
 247.333 100 265.667 115 277 145 c 128
 287.667 175 294 227 296 301 c 1
EndSplineSet
EndChar
StartChar: kappa
Encoding: 954 954 540
Width: 457
VWidth: 2048
Flags: W
HStem: 0 21G<57 170 320 451> 498 20G<57 170 301 438>
VStem: 57 113<0 174 0 518>
DStem: 195 207 267 299 320 0 451 0
Fore
57 0 m 1
 57 518 l 1
 170 518 l 1
 170 339 l 1
 301 518 l 1
 438 518 l 1
 267 299 l 1
 451 0 l 1
 320 0 l 1
 195 207 l 1
 170 174 l 1
 170 0 l 1
 57 0 l 1
EndSplineSet
EndChar
StartChar: lambda
Encoding: 955 955 541
Width: 456
VWidth: 2048
Flags: W
HStem: 0 21G<6 122 332 448> 696 20G<107 218>
DStem: 107 716 218 716 169 518 448 0 169 518 194 238 6 0 122 0 258 236 218 716 332 0 448 0
Fore
218 716 m 1
 448 0 l 1
 332 0 l 1
 258 236 l 2
 249.333 262.667 238.667 301.667 226 353 c 1
 218.667 322.333 208 284 194 238 c 1
 122 0 l 1
 6 0 l 1
 169 518 l 1
 107 716 l 1
 218 716 l 1
EndSplineSet
EndChar
StartChar: mu
Encoding: 956 956 542
Width: 500
VWidth: 2048
Flags: W
HStem: -197 21G<55 168> -12 109<252 264> 0 21G<338 442> 498 20G<55 168 329 442>
VStem: 55 113<-197 63 -197 518> 338 104<0 518>
Fore
338 0 m 1xbc
 338 63 l 1
 316 13 287.333 -12 252 -12 c 0
 215.333 -12 187.333 13 168 63 c 1
 168 -197 l 1
 55 -197 l 1
 55 518 l 1
 168 518 l 1
 168 284 l 2
 168 216 174.667 168 188 140 c 128
 201.333 111.333 222.667 97 252 97 c 0xdc
 276 97 294.667 108.333 308 131 c 128
 322 153 329 183 329 221 c 2
 329 518 l 1
 442 518 l 1
 442 0 l 1
 338 0 l 1xbc
EndSplineSet
EndChar
StartChar: xi
Encoding: 958 958 544
Width: 365
VWidth: 2048
Flags: W
HStem: 384 112<293 315> 611 117<224 288>
VStem: 31 116<205 231> 50 116<550 572> 249 116<-51 -32>
Fore
294 496 m 2xd8
 315 496 l 1
 315 384 l 1
 265.667 384 225.333 368.333 194 337 c 128
 162.667 305.667 147 270.333 147 231 c 0
 147 197.667 153.667 174 167 160 c 128
 179.667 146.667 200.333 134.333 229 123 c 128
 257 111.667 279.667 101 297 91 c 128
 314.333 81 330 65.6667 344 45 c 128
 358 25 365 -1.33333 365 -34 c 0
 365 -82 349 -123.333 317 -158 c 128
 284.333 -192 232.333 -209.333 161 -210 c 1
 187 -87 l 1
 228.333 -85.6667 249 -70.3333 249 -41 c 0
 249 -32.3333 246 -24.6667 240 -18 c 128
 234 -11.3333 217.667 -4 191 4 c 0
 122.333 25.3333 78.3333 54.3333 59 91 c 128
 40.3333 127 31 165 31 205 c 0xe8
 31 292.333 73 364.333 157 421 c 1
 85.6667 447 50 497.333 50 572 c 0
 50 619.333 65.6667 657.333 97 686 c 128
 128.333 714 170.667 728 224 728 c 2
 320 728 l 1
 320 608 l 1
 294 610 278 611 272 611 c 0
 201.333 611 166 590.667 166 550 c 0
 166 525.333 175.333 510.333 194 505 c 128
 213.333 499 246.667 496 294 496 c 2xd8
EndSplineSet
EndChar
StartChar: pi
Encoding: 960 960 653
Width: 627
VWidth: 2048
Flags: W
HStem: 0 21G<132 245 383 496> 404 114<19 132 19 383 19 608>
VStem: 132 113<0 404> 383 113<0 404>
Fore
19 404 m 1
 19 518 l 1
 608 518 l 1
 608 404 l 1
 496 404 l 1
 496 0 l 1
 383 0 l 1
 383 404 l 1
 245 404 l 1
 245 0 l 1
 132 0 l 1
 132 404 l 1
 19 404 l 1
EndSplineSet
EndChar
StartChar: rho
Encoding: 961 961 546
Width: 506
VWidth: 2048
Flags: W
HStem: -197 21G<47 160> -12 112<255 273> 419 112<254 276>
VStem: 47 113<-197 32 227 268> 360 116<234 284>
Fore
47 -197 m 1
 47 227 l 2
 47 429.667 116.667 531 256 531 c 0
 318.667 531 371 504.667 413 452 c 128
 455 400 476 334 476 254 c 0
 476 178.667 456.333 115.333 417 64 c 128
 377 13.3333 329 -12 273 -12 c 0
 233.667 -12 196 2.66667 160 32 c 1
 160 -197 l 1
 47 -197 l 1
261 419 m 0
 230.333 419 205.667 404.667 187 376 c 128
 168.333 348 159 309.333 159 260 c 0
 159 208.667 168 169 186 141 c 128
 203.333 113.667 227.667 100 259 100 c 0
 289 100 313.333 114.667 332 144 c 128
 350.667 172.667 360 211.333 360 260 c 0
 360 310 351.333 349 334 377 c 128
 316.667 405 292.333 419 261 419 c 0
EndSplineSet
EndChar
StartChar: sigma1
Encoding: 962 962 547
Width: 425
VWidth: 2048
Flags: W
HStem: -209 112<222 240> 409 123<286 320>
VStem: 31 103<237 256> 291 110<-50 -43>
Fore
151 -204 m 1
 174 -85 l 1
 198.667 -93 218 -97 232 -97 c 0
 248.667 -97 262.667 -92.3333 274 -83 c 128
 285.333 -73.6667 291 -61.3333 291 -46 c 0
 291 -28 283.333 -14.6667 268 -6 c 128
 252.667 3.33333 230.667 11.3333 202 18 c 0
 150.667 30.6667 109.333 57 78 97 c 128
 46.6667 137.667 31 185 31 239 c 0
 31 317.667 56 386.333 106 445 c 128
 156.667 503 220.333 532 297 532 c 0
 337 532 375.333 523.667 412 507 c 1
 389 392 l 1
 360.333 403.333 332.333 409 305 409 c 0
 257 409 216.333 392.333 183 359 c 128
 150.333 326.333 134 288.333 134 245 c 0
 134 212.333 143 187.667 161 171 c 128
 179 154.333 213 137.667 263 121 c 128
 313.667 105 349.333 82.6667 370 54 c 128
 390.667 25.3333 401 -7.66667 401 -45 c 0
 401 -95.6667 385.333 -135.667 354 -165 c 128
 322.667 -194.333 281.333 -209 230 -209 c 0
 205.333 -209 179 -207.333 151 -204 c 1
EndSplineSet
EndChar
StartChar: sigma
Encoding: 963 963 306
Width: 561
VWidth: 2048
Flags: W
HStem: -12 112<238 256> 404 114<321 542> 419 112<238 256>
VStem: 31 116<243 277> 354 116<243 277>
Fore
321 518 m 1xd8
 542 518 l 1
 542 404 l 1
 439 404 l 1xd8
 459.667 360 470 312.333 470 261 c 0
 470 182.333 449.333 117 408 65 c 128
 366 13.6667 313 -12 249 -12 c 0
 185 -12 132.667 12.6667 92 62 c 128
 51.3333 111.333 31 176.333 31 257 c 0
 31 339 51.3333 405.333 92 456 c 128
 132 506 185.333 531 252 531 c 0xb8
 267.333 531 283 528.667 299 524 c 2
 321 518 l 1xd8
250 419 m 0xb8
 219.333 419 194.667 404.667 176 376 c 128
 156.667 347.333 147 308.333 147 259 c 0
 147 210.333 156.667 171.667 176 143 c 128
 194.667 114.333 219.333 100 250 100 c 0
 280.667 100 305.667 114.333 325 143 c 128
 344.333 172.333 354 212 354 262 c 0
 354 309.333 344.333 347.333 325 376 c 128
 305.667 404.667 280.667 419 250 419 c 0xb8
EndSplineSet
EndChar
StartChar: tau
Encoding: 964 964 307
Width: 366
VWidth: 2048
Flags: W
HStem: 0 21G<130 243> 404 114<19 130 19 346>
VStem: 130 113<0 404>
Fore
19 404 m 1
 19 518 l 1
 346 518 l 1
 346 404 l 1
 243 404 l 1
 243 0 l 1
 130 0 l 1
 130 404 l 1
 19 404 l 1
EndSplineSet
EndChar
StartChar: upsilon
Encoding: 965 965 548
Width: 477
VWidth: 2048
Flags: W
HStem: -12 112<225.439 241> 498 20G<47 160 317 430>
VStem: 47 113<227 517> 317 113<227 517>
Fore
47 263 m 2
 47 518 l 1
 160 518 l 1
 160 242 l 2
 160 147.333 186 100 238 100 c 0
 290.667 100 317 147.333 317 242 c 2
 317 518 l 1
 430 518 l 1
 430 263 l 2
 430 79.6667 366 -12 238 -12 c 0
 110.667 -12 47 79.6667 47 263 c 2
EndSplineSet
EndChar
StartChar: phi
Encoding: 966 966 308
Width: 586
VWidth: 2048
Flags: W
HStem: -197 21G<238 351> 419 112<359 379> 510 20G<210 228>
VStem: 31 116<250 300> 238 113<-197 -14 101 364> 440 116<266 300>
Fore
210 530 m 2xbc
 228 530 l 1xbc
 203 409 l 1
 165.667 391.667 147 347.333 147 276 c 0
 147 187.333 177.333 129 238 101 c 1
 238 346 l 2
 238 412.667 247.667 460 267 488 c 128
 285.667 516.667 316.333 531 359 531 c 0xdc
 416.333 531 463.667 506.333 501 457 c 128
 537.667 407.667 556 346 556 272 c 0
 556 200.667 538 139 502 87 c 128
 466 34.3333 415.667 0.666667 351 -14 c 1
 351 -197 l 1
 238 -197 l 1
 238 -14 l 1
 172 -0.666667 121 31.3333 85 82 c 128
 49 132.667 31 194.667 31 268 c 0
 31 345.333 47.6667 408.333 81 457 c 128
 115 505.667 158 530 210 530 c 2xbc
351 323 m 2
 351 94 l 1
 383 108.667 405.667 129.667 419 157 c 128
 433 183.667 440 228 440 290 c 0
 440 324.667 433.667 355 421 381 c 128
 407.667 406.333 393.667 419 379 419 c 0xdc
 368.333 419 361 413.333 357 402 c 128
 353 390.667 351 364.333 351 323 c 2
EndSplineSet
EndChar
StartChar: chi
Encoding: 967 967 549
Width: 472
VWidth: 2048
Flags: W
HStem: -197 21G<7 129 338 467> 498 20G<17 141 338 456>
DStem: 17 518 141 518 170 164 235 279 170 164 235 49 7 -197 129 -197 338 518 456 518 235 279 303 164
Fore
170 164 m 1
 17 518 l 1
 141 518 l 1
 235 279 l 1
 338 518 l 1
 456 518 l 1
 303 164 l 1
 467 -197 l 1
 338 -197 l 1
 235 49 l 1
 129 -197 l 1
 7 -197 l 1
 170 164 l 1
EndSplineSet
EndChar
StartChar: psi
Encoding: 968 968 550
Width: 618
VWidth: 2048
Flags: W
HStem: -197 21G<252 365> 498 20G<47 160 252 365 458 571>
VStem: 47 113<218 518> 252 113<-197 -15 97 518> 458 113<218 518>
Fore
47 250 m 2
 47 518 l 1
 160 518 l 1
 160 249 l 2
 160 195 167.667 157 183 135 c 128
 197.667 113 220.667 100.333 252 97 c 1
 252 518 l 1
 365 518 l 1
 365 97 l 1
 397 100.333 420.333 113 435 135 c 128
 450.333 157.667 458 195.667 458 249 c 2
 458 518 l 1
 571 518 l 1
 571 250 l 2
 571 162.667 554.333 98.3333 521 57 c 128
 487 15.6667 435 -8.33333 365 -15 c 1
 365 -197 l 1
 252 -197 l 1
 252 -15 l 1
 182 -8.33333 130.333 15.3333 97 56 c 128
 63.6667 96.6667 47 161.333 47 250 c 2
EndSplineSet
EndChar
StartChar: omega
Encoding: 969 969 551
Width: 692
VWidth: 2048
Flags: W
HStem: -12 109<211 227 462 481> 498 20G<92 199 494 601>
VStem: 31 116<227 277> 290 113<216 386> 546 116<227 277>
Fore
290 216 m 2
 290 386 l 1
 403 386 l 1
 403 216 l 2
 403 136.667 424.333 97 467 97 c 0
 519.667 97 546 148.333 546 251 c 0
 546 341 528.667 430 494 518 c 1
 601 518 l 1
 641.667 427.333 662 337.667 662 249 c 0
 662 171 645 108 611 60 c 128
 577.667 12 534.333 -12 481 -12 c 0
 416.333 -12 371.333 24.3333 346 97 c 1
 320.667 24.3333 275.667 -12 211 -12 c 0
 158.333 -12 115 12 81 60 c 128
 47.6667 108 31 171 31 249 c 0
 31 339.667 51.3333 429.333 92 518 c 1
 199 518 l 1
 164.333 428 147 339 147 251 c 0
 147 148.333 173 97 225 97 c 0
 268.333 97 290 136.667 290 216 c 2
EndSplineSet
EndChar
StartChar: afii10051
Encoding: 1026 1026 558
Width: 726
VWidth: 2048
Flags: W
HStem: -5 118<477 500> 0 21G<193 311> 352 131<464 484> 595 121<19 193 19 485>
VStem: 193 118<0 295 0 595> 581 113<218 240>
Fore
193 0 m 1x7c
 193 595 l 1
 19 595 l 1
 19 716 l 1
 485 716 l 1
 485 595 l 1
 311 595 l 1
 311 434 l 1
 372.333 466.667 427.333 483 476 483 c 0
 542 483 594.667 460.667 634 416 c 128
 674 371.333 694 312 694 238 c 0
 694 164.667 675.333 106 638 62 c 128
 600.667 17.3333 554 -5 498 -5 c 0
 471.333 -5 445.333 -0.333333 420 9 c 1
 438 129 l 1
 457.333 118.333 474.333 113 489 113 c 0xbc
 514.333 113 536 124 554 146 c 128
 572 168 581 195.333 581 228 c 0
 581 264 570.667 293.667 550 317 c 128
 528.667 340.333 500.667 352 466 352 c 0
 420.667 352 369 333 311 295 c 1
 311 0 l 1
 193 0 l 1x7c
EndSplineSet
EndChar
StartChar: afii10053
Encoding: 1028 1028 560
Width: 583
VWidth: 2048
Flags: W
HStem: -12 123<290 309> 297 121<161 344> 605 123<290 309>
Fore
161 418 m 1
 344 418 l 1
 344 297 l 1
 161 297 l 1
 167 236.333 182 190 206 158 c 128
 229.333 126.667 259.667 111 297 111 c 0
 332.333 111 361.667 124 385 150 c 128
 409 176.667 423.667 214.333 429 263 c 1
 548 218 l 1
 516.667 64.6667 435 -12 303 -12 c 0
 215.667 -12 149.333 23.3333 104 94 c 128
 58 165.333 35 252 35 354 c 0
 35 469.333 59.6667 560.333 109 627 c 128
 158.333 694.333 224.333 728 307 728 c 0
 369.667 728 422 710 464 674 c 128
 506 638 533.667 586 547 518 c 1
 429 486 l 1
 408.333 565.333 366.667 605 304 605 c 0
 265.333 605 233.333 588.667 208 556 c 128
 182.667 524 167 478 161 418 c 1
EndSplineSet
EndChar
StartChar: afii10058
Encoding: 1033 1033 565
Width: 896
VWidth: 2048
Flags: W
HStem: -24 20G<63 97> 0 121<488 656> 310 121<488 636> 595 121<89 370>
VStem: 89 118<185 595> 370 118<0 310 0 716> 737 122<203 225>
Fore
370 0 m 1
 370 595 l 1
 207 595 l 1
 207 223 l 2
 207 167 203.333 124 196 94 c 128
 188.667 63.3333 174.333 39.3333 153 22 c 128
 131.667 4.66667 105 -4 73 -4 c 0
 59.6667 -4 39 -2.66667 11 0 c 1
 11 120 l 1
 35 116 49.6667 114 55 114 c 0
 68.3333 114 77.3333 118.667 82 128 c 128
 86.6667 137.333 89 157 89 187 c 2
 89 716 l 1
 488 716 l 1
 488 431 l 1
 656 431 l 2
 718.667 431 768 411 804 371 c 128
 840.667 331 859 278 859 212 c 0
 859 155.333 843.667 106 813 64 c 128
 782.333 21.3333 730 -1.73472e-18 656 0 c 2
 370 0 l 1
488 310 m 1
 488 121 l 1
 613 121 l 2
 645.667 121 669 123 683 127 c 128
 697.667 131.667 710.333 142 721 158 c 128
 731.667 174.667 737 193.667 737 215 c 0
 737 278.333 697 310 617 310 c 2
 488 310 l 1
EndSplineSet
EndChar
StartChar: afii10059
Encoding: 1034 1034 566
Width: 872
VWidth: 2048
Flags: W
HStem: 0 121<460 628> 313 121<181 342 460 608> 696 20G<63 181 342 460>
VStem: 63 118<0 313 0 716> 342 118<0 313 434 716> 709 122<207 225>
Fore
460 716 m 1
 460 434 l 1
 627 434 l 2
 689.667 434 739.333 414 776 374 c 128
 812.667 333.333 831 279.667 831 213 c 0
 831 157 816 107.667 786 65 c 128
 756 21.6667 703.333 1.73472e-18 628 0 c 2
 342 0 l 1
 342 313 l 1
 181 313 l 1
 181 0 l 1
 63 0 l 1
 63 716 l 1
 181 716 l 1
 181 434 l 1
 342 434 l 1
 342 716 l 1
 460 716 l 1
460 313 m 1
 460 121 l 1
 584 121 l 2
 616.667 121 640.333 123.333 655 128 c 128
 669 132 681.667 142.333 693 159 c 128
 703.667 175.667 709 194.667 709 216 c 0
 709 280.667 669 313 589 313 c 2
 460 313 l 1
EndSplineSet
EndChar
StartChar: afii10060
Encoding: 1035 1035 567
Width: 716
VWidth: 2048
Flags: W
HStem: 0 21G<196 314 541 659> 361 123<432 459> 595 121<22 196 22 488>
VStem: 196 118<0 324 0 595> 541 118<0 231>
Fore
22 595 m 1
 22 716 l 1
 488 716 l 1
 488 595 l 1
 314 595 l 1
 314 448 l 1
 367.333 472 415.667 484 459 484 c 0
 527 484 580 458.667 618 408 c 129
 636.667 384.667 648 360.333 652 335 c 128
 656.667 309.667 659 275 659 231 c 2
 659 0 l 1
 541 0 l 1
 541 195 l 2
 541 264.333 531.333 309.333 512 330 c 128
 492.667 350.667 466 361 432 361 c 0
 391.333 361 352 348.667 314 324 c 1
 314 0 l 1
 196 0 l 1
 196 595 l 1
 22 595 l 1
EndSplineSet
EndChar
StartChar: afii10145
Encoding: 1039 1039 570
Width: 589
VWidth: 2048
Flags: W
HStem: -197 21G<246 343> 0 121<178 246 179 528> 696 20G<61 179 410 528>
VStem: 61 118<0 716> 246 97<-197 0> 410 118<121 716>
Fore
528 0 m 1
 343 0 l 1
 343 -197 l 1
 246 -197 l 1
 246 0 l 1
 61 0 l 1
 61 716 l 1
 179 716 l 1
 179 121 l 1
 410 121 l 1
 410 716 l 1
 528 716 l 1
 528 0 l 1
EndSplineSet
EndChar
StartChar: afii10018
Encoding: 1041 1041 572
Width: 589
VWidth: 2048
Flags: W
HStem: 0 121<180 348> 310 121<180 319> 595 121<62 501>
VStem: 62 118<0 310 0 595> 430 122<207 225>
Fore
62 0 m 1
 62 716 l 1
 501 716 l 1
 501 595 l 1
 180 595 l 1
 180 431 l 1
 348 431 l 2
 411.333 431 461.333 411.333 498 372 c 128
 534 332 552 279.667 552 215 c 0
 552 158.333 536.667 108.333 506 65 c 128
 474.667 21.6667 422 1.73472e-18 348 0 c 2
 62 0 l 1
180 310 m 1
 180 121 l 1
 305 121 l 2
 337.667 121 361.333 123.333 376 128 c 128
 390 132 402.667 142 414 158 c 128
 424.667 174 430 192.667 430 214 c 0
 430 278 390 310 310 310 c 2
 180 310 l 1
EndSplineSet
EndChar
StartChar: afii10021
Encoding: 1044 1044 575
Width: 583
VWidth: 2048
Flags: W
HStem: 0 121<171 466> 595 121<107 394>
VStem: -2 97<-156 0> 107 112<491.017 594.747> 394 118<121 716> 466 97<-156 121>
Fore
512 121 m 1xf8
 563 121 l 1
 563 -156 l 1
 466 -156 l 1
 466 0 l 1xf4
 95 0 l 1
 95 -156 l 1
 -2 -156 l 1
 -2 121 l 1
 47 121 l 1
 66.3333 171 81 231.667 91 303 c 128
 101.667 373.667 107 479.333 107 620 c 2
 107 716 l 1
 512 716 l 1
 512 121 l 1xf8
394 595 m 1xf8
 219 595 l 1
 219 383.667 203 225.667 171 121 c 1
 394 121 l 1
 394 595 l 1xf8
EndSplineSet
EndChar
StartChar: afii10024
Encoding: 1046 1046 577
Width: 741
VWidth: 2048
Flags: W
HStem: 0 21G<9 148 314 427 593 732> 614 107<696 726> 696 20G<314 427>
VStem: 314 113<0 313 411 716>
DStem: 89 196 219 185 9 0 148 0 522 185 652 196 593 0 732 0
Fore
314 716 m 1xb0
 427 716 l 1xb0
 427 411 l 1
 448.333 413.667 464 423.333 474 440 c 128
 484 456.667 499 497 519 561 c 128
 539 625 561 667.667 585 689 c 128
 609.667 710.333 656.667 721 726 721 c 1
 726 614 l 1
 709 614 l 2
 675.667 614 653 606.333 641 591 c 128
 629.667 575 617 543 603 495 c 128
 589 447 577 416.667 567 404 c 128
 557 390.667 544.333 379 529 369 c 1
 551 359.667 570.667 344 588 322 c 128
 605.333 300 626.667 258 652 196 c 1
 732 0 l 1
 593 0 l 1
 522 185 l 2
 506 227 491.333 259 478 281 c 128
 464 303.667 447 314.333 427 313 c 1
 427 0 l 1
 314 0 l 1
 314 313 l 1
 296 313.667 280.333 305 267 287 c 128
 254.333 269 238.333 235 219 185 c 1
 148 0 l 1
 9 0 l 1
 89 196 l 1
 112.333 252.667 132.333 293 149 317 c 128
 165 341 186 358.333 212 369 c 1
 192 383.667 177.667 398 169 412 c 128
 160.333 426 149.333 456 136 502 c 128
 122.667 548.667 109.333 579.333 96 594 c 128
 83.3333 609.333 56.3333 616 15 614 c 1
 15 721 l 1xd0
 84.3333 721.667 131.333 711 156 689 c 128
 180 666.333 202 623.333 222 560 c 128
 242 496.667 257 456.333 267 439 c 128
 277 422.333 292.667 413 314 411 c 1
 314 716 l 1xb0
EndSplineSet
EndChar
StartChar: afii10025
Encoding: 1047 1047 578
Width: 513
VWidth: 2048
Flags: W
HStem: -12 118<225 259> 610 118<225 246>
VStem: 328 122<518 542> 348 122<195 213>
Fore
230 301 m 2xd0
 204 301 l 1
 204 409 l 1
 286.667 405 328 441.333 328 518 c 0
 328 546 320 568.333 304 585 c 128
 288 601.667 266 610 238 610 c 0
 190 610 158.667 580 144 520 c 1
 29 553 l 1
 52.3333 669.667 122.667 728 240 728 c 0
 303.333 728 354.333 710.667 393 676 c 128
 431 641.333 450 596.667 450 542 c 0xe0
 450 474 417.667 419.333 353 378 c 1
 431 344 470 284 470 198 c 0
 470 132.667 450.333 81.3333 411 44 c 128
 371.667 6.66667 315.667 -12 243 -12 c 0
 181.667 -12 133.667 0 99 24 c 128
 64.3333 48.6667 37.3333 95.6667 18 165 c 1
 127 209 l 1
 137.667 167.667 151.667 140.333 169 127 c 128
 186.333 113 210 106 240 106 c 0
 273.333 106 299.667 115 319 133 c 128
 338.333 150.333 348 173.667 348 203 c 0
 348 233.667 337.667 257.667 317 275 c 128
 296.333 292.333 267.333 301 230 301 c 2xd0
EndSplineSet
EndChar
StartChar: afii10026
Encoding: 1048 1048 579
Width: 589
VWidth: 2048
Flags: W
HStem: 0 21G<60 179 416 529> 696 20G<60 173 410 529>
VStem: 60 113<0 716> 416 113<0 716>
DStem: 410 716 416 467 173 239 179 0
Fore
60 0 m 1
 60 716 l 1
 173 716 l 1
 173 239 l 1
 410 716 l 1
 529 716 l 1
 529 0 l 1
 416 0 l 1
 416 467 l 1
 179 0 l 1
 60 0 l 1
EndSplineSet
EndChar
StartChar: afii10028
Encoding: 1050 1050 581
Width: 500
VWidth: 2048
Flags: W
HStem: 0 21G<62 180 355 494> 696 20G<62 180>
VStem: 62 118<0 313 0 716>
DStem: 284 185 414 196 355 0 494 0
Fore
62 0 m 1
 62 716 l 1
 180 716 l 1
 180 411 l 1
 206.667 414.333 225 423.333 235 438 c 128
 245 452 258.333 486.667 275 542 c 128
 305.117 641.987 341.45 697.653 384 709 c 128
 404 715 438.667 719 488 721 c 1
 488 614 l 1
 471 614 l 2
 437.667 614 415 606.333 403 591 c 128
 391 575 378.667 545 366 501 c 128
 354 457 343.333 427.667 334 413 c 128
 325.333 398.333 311 383.667 291 369 c 1
 317 358.333 338.333 341 355 317 c 128
 371 293 390.667 252.667 414 196 c 2
 494 0 l 1
 355 0 l 1
 284 185 l 2
 266 232.333 250.667 265.333 238 284 c 128
 225.333 302.667 206 312.333 180 313 c 1
 180 0 l 1
 62 0 l 1
EndSplineSet
EndChar
StartChar: afii10029
Encoding: 1051 1051 582
Width: 576
VWidth: 2048
Flags: W
HStem: -5 118<39 88> 0 21G<395 513> 595 121<101 395>
VStem: 101 118<187 595> 395 118<0 716>
Fore
395 0 m 1x78
 395 595 l 1
 219 595 l 1
 219 289 l 2
 219 209 216.667 150 212 112 c 128
 207.333 74 195.667 45 177 25 c 128
 159 5 129.333 -5 88 -5 c 0xb8
 76 -5 51 -3.33333 13 0 c 1x78
 13 113 l 1
 39 113 l 2xb8
 64.3333 113 81 117 89 125 c 128
 97 133.667 101 154.333 101 187 c 2
 101 716 l 1
 513 716 l 1
 513 0 l 1
 395 0 l 1x78
EndSplineSet
EndChar
StartChar: afii10037
Encoding: 1059 1059 590
Width: 509
VWidth: 2048
Flags: W
HStem: -9 114<122 159> 696 20G<0 133 387 510>
Fore
216 202 m 1
 0 716 l 1
 133 716 l 1
 269 344 l 1
 387 716 l 1
 510 716 l 1
 312 172 l 1
 287.333 105.333 263.667 58.6667 241 32 c 128
 218.333 4.66667 191 -9 159 -9 c 0
 128.333 -9 101 -6 77 0 c 1
 77 107 l 1
 96.3333 105.667 111.333 105 122 105 c 0
 150.667 105 170.667 111 182 123 c 128
 193.333 135 204.667 161.333 216 202 c 1
EndSplineSet
EndChar
StartChar: afii10038
Encoding: 1060 1060 591
Width: 699
VWidth: 2048
Flags: W
HStem: 0 21G<290 408> 696 20G<290 408>
VStem: 35 116<351 385> 290 118<0 83 204 524 644 716> 549 116<351 385>
Fore
408 716 m 1
 408 645 l 1
 579.333 636.333 665 542.667 665 364 c 0
 665 185.333 579.333 91.6667 408 83 c 1
 408 0 l 1
 290 0 l 1
 290 83 l 1
 120 91 35 184.667 35 364 c 0
 35 543.333 120 637 290 645 c 1
 290 716 l 1
 408 716 l 1
408 524 m 1
 408 204 l 1
 502 204 549 258 549 366 c 0
 549 471.333 502 524 408 524 c 1
290 204 m 1
 290 524 l 1
 197.333 524 151 470.333 151 363 c 0
 151 257 197.333 204 290 204 c 1
EndSplineSet
EndChar
StartChar: afii10040
Encoding: 1062 1062 593
Width: 599
VWidth: 2048
Flags: W
HStem: 0 121<179 480> 696 20G<62 180 411 529>
VStem: 62 118<0 716> 411 118<121 716> 480 97<-156 121>
Fore
529 121 m 1xf0
 577 121 l 1
 577 -156 l 1
 480 -156 l 1
 480 0 l 1xe8
 62 0 l 1
 62 716 l 1
 180 716 l 1
 180 121 l 1
 411 121 l 1
 411 716 l 1
 529 716 l 1
 529 121 l 1xf0
EndSplineSet
EndChar
StartChar: afii10041
Encoding: 1063 1063 594
Width: 576
VWidth: 2048
Flags: W
HStem: 0 21G<396 514> 250 118<254 278> 696 20G<50 168 396 514>
VStem: 50 118<460 716> 396 118<0 716>
Fore
50 460 m 2
 50 716 l 1
 168 716 l 1
 168 526 l 2
 168 486 169.667 456.333 173 437 c 128
 176.333 417.667 186 401.333 202 388 c 128
 218 374.667 242.667 368 276 368 c 0
 326 368 366 381 396 407 c 1
 396 716 l 1
 514 716 l 1
 514 0 l 1
 396 0 l 1
 396 288 l 1
 349.333 262.667 302.667 250 256 250 c 0
 190.667 250 140 268.333 104 305 c 128
 68 341.667 50 393.333 50 460 c 2
EndSplineSet
EndChar
StartChar: afii10042
Encoding: 1064 1064 595
Width: 824
VWidth: 2048
Flags: W
HStem: 0 121<179 762> 696 20G<62 180 351 469 644 762>
VStem: 62 118<0 716> 351 118<121 716> 644 118<121 716>
Fore
62 0 m 1
 62 716 l 1
 180 716 l 1
 180 121 l 1
 351 121 l 1
 351 716 l 1
 469 716 l 1
 469 121 l 1
 644 121 l 1
 644 716 l 1
 762 716 l 1
 762 0 l 1
 62 0 l 1
EndSplineSet
EndChar
StartChar: afii10043
Encoding: 1065 1065 596
Width: 835
VWidth: 2048
Flags: W
HStem: 0 121<179 717> 696 20G<62 180 351 469 644 762>
VStem: 62 118<0 716> 351 118<121 716> 644 118<121 716> 717 97<-156 121>
Fore
762 121 m 1xf8
 814 121 l 1
 814 -156 l 1
 717 -156 l 1
 717 0 l 1xf4
 62 0 l 1
 62 716 l 1
 180 716 l 1
 180 121 l 1
 351 121 l 1
 351 716 l 1
 469 716 l 1
 469 121 l 1
 644 121 l 1
 644 716 l 1
 762 716 l 1
 762 121 l 1xf8
EndSplineSet
EndChar
StartChar: afii10044
Encoding: 1066 1066 597
Width: 712
VWidth: 2048
Flags: W
HStem: 0 121<304 471> 310 121<304 443> 595 121<10 186>
VStem: 186 118<0 310 0 716> 553 122<207 225>
Fore
10 595 m 1
 10 716 l 1
 304 716 l 1
 304 431 l 1
 471 431 l 2
 533 431 582.667 411 620 371 c 128
 656.667 331 675 278.333 675 213 c 0
 675 159 659.667 110 629 66 c 128
 598.333 22 545.667 0 471 0 c 2
 186 0 l 1
 186 595 l 1
 10 595 l 1
304 310 m 1
 304 121 l 1
 428 121 l 2
 461.333 121 485.333 123.333 500 128 c 128
 514.667 133.333 527.333 143.667 538 159 c 128
 548 175 553 193.333 553 214 c 0
 553 278 513 310 433 310 c 2
 304 310 l 1
EndSplineSet
EndChar
StartChar: afii10046
Encoding: 1068 1068 599
Width: 589
VWidth: 2048
Flags: W
HStem: 0 121<180 349> 310 121<180 319> 696 20G<62 180>
VStem: 62 118<0 310 0 716> 430 122<207 225>
Fore
62 0 m 1
 62 716 l 1
 180 716 l 1
 180 431 l 1
 348 431 l 2
 410.667 431 460.333 411 497 371 c 128
 533.667 331 552 278 552 212 c 0
 552 158 537 109.333 507 66 c 128
 477.667 22 425 0 349 0 c 2
 62 0 l 1
180 310 m 1
 180 121 l 1
 305 121 l 2
 337.667 121 361.333 123.333 376 128 c 128
 390 132 402.667 142.333 414 159 c 128
 424.667 175 430 193.667 430 215 c 0
 430 278.333 390 310 310 310 c 2
 180 310 l 1
EndSplineSet
EndChar
StartChar: afii10047
Encoding: 1069 1069 600
Width: 583
VWidth: 2048
Flags: W
HStem: -12 123<274 292> 297 121<239 423> 605 123<274 292>
Fore
239 297 m 1
 239 418 l 1
 423 418 l 1
 417 478 401.333 524 376 556 c 128
 350.667 588.667 318.667 605 280 605 c 0
 216.667 605 174.667 565.333 154 486 c 1
 37 518 l 1
 50.3333 586 78 638 120 674 c 128
 162 710 214 728 276 728 c 0
 358.667 728 424.667 694.333 474 627 c 128
 523.333 559.667 548 468.667 548 354 c 0
 548 243.333 523.667 154.667 475 88 c 128
 427 21.3333 362.667 -12 282 -12 c 0
 148.667 -12 66.3333 64.6667 35 218 c 1
 154 263 l 1
 160 213.667 174.667 176 198 150 c 128
 221.333 124 250.667 111 286 111 c 0
 364 111 409.667 173 423 297 c 1
 239 297 l 1
EndSplineSet
EndChar
StartChar: afii10048
Encoding: 1070 1070 601
Width: 845
VWidth: 2048
Flags: W
HStem: -11 118<523 557> 0 21G<60 178> 605 123<523 548> 696 20G<60 178>
VStem: 60 118<0 297 0 716> 686 122<324 390>
Fore
178 297 m 1xac
 178 0 l 1
 60 0 l 1
 60 716 l 1
 178 716 l 1x5c
 178 418 l 1
 274 418 l 1
 282.667 518 310.333 594.667 357 648 c 128
 403.667 701.333 465.333 728 542 728 c 0
 625.333 728 690.333 695.333 737 630 c 128
 784.333 565.333 808 475 808 359 c 0
 808 243 784.667 152.333 738 87 c 128
 690.667 21.6667 626.333 -11 545 -11 c 0
 495 -11 452.667 -2.33333 418 15 c 128
 384 33 352.667 67.6667 324 119 c 128
 295.333 170.333 278.667 229.667 274 297 c 1
 178 297 l 1xac
537 605 m 0xac
 441 605 393 520 393 350 c 0
 393 273.333 406 213.667 432 171 c 128
 458 128.333 494 107 540 107 c 0
 637.333 107 686 193 686 365 c 0
 686 441.667 672.667 501 646 543 c 128
 620 584.333 583.667 605 537 605 c 0xac
EndSplineSet
EndChar
StartChar: afii10066
Encoding: 1073 1073 604
Width: 506
VWidth: 2048
Flags: W
HStem: -11 112<244 262> 408 109<252 272>
VStem: 37 77<363 410> 356 116<244 278>
Fore
293 713 m 2
 346 713 l 2
 363.333 713 374 719.333 378 732 c 1
 455 732 l 1
 454.333 694 447 665.667 433 647 c 128
 419.667 628.333 405.333 617.333 390 614 c 128
 374.667 610.667 343.333 608.333 296 607 c 128
 248 605.667 217.333 602.667 204 598 c 128
 190.667 593.333 176 583.667 160 569 c 128
 144.667 554.333 133.333 534.333 126 509 c 128
 118.667 483 114.667 447.667 114 403 c 1
 150 479 202.667 517 272 517 c 0
 326.667 517 373.667 491 413 439 c 128
 452.333 387 472 325 472 253 c 0
 472 178.333 451 115.667 409 65 c 128
 367 14.3333 314.333 -11 251 -11 c 0
 201.667 -11 159.333 4.66667 124 36 c 128
 88 67.3333 64.6667 107.333 54 156 c 128
 42.6667 205.333 37 274.333 37 363 c 0
 37 487.667 55.6667 577.333 93 632 c 128
 130.333 686 197 713 293 713 c 2
253 408 m 0
 224.333 408 200.667 394 182 366 c 128
 162.667 338 153 301 153 255 c 0
 153 208.333 162.333 171 181 143 c 128
 199.667 115 223.333 101 252 101 c 0
 281.333 101 306 115.333 326 144 c 128
 346 173.333 356 210.333 356 255 c 0
 356 299.667 346 336.333 326 365 c 128
 306 393.667 281.667 408 253 408 c 0
EndSplineSet
EndChar
StartChar: afii10067
Encoding: 1074 1074 605
Width: 503
VWidth: 2048
Flags: W
HStem: 0 87<173 337> 220 84<173 273> 431 87<60 273>
VStem: 60 113<0 220 0 431> 346 110<367 383> 355 116<136 155>
Fore
337 0 m 2xf4
 60 0 l 1
 60 518 l 1
 314 518 l 2
 408.667 518 456 473 456 383 c 0xf8
 456 322.333 432.333 283 385 265 c 1
 442.333 245 471 202 471 136 c 0
 471 95.3333 458.667 62.6667 434 38 c 128
 409.333 12.6667 377 -8.67362e-19 337 0 c 2xf4
173 431 m 1
 173 304 l 1
 256 304 l 2
 316 304 346 326 346 370 c 0
 346 410.667 316 431 256 431 c 2
 173 431 l 1
173 220 m 1
 173 87 l 1
 271 87 l 2
 327 87 355 109 355 153 c 0xf4
 355 175 348 191.667 334 203 c 128
 320 214.333 289 220 241 220 c 2
 173 220 l 1
EndSplineSet
EndChar
StartChar: afii10068
Encoding: 1075 1075 606
Width: 341
VWidth: 2048
Flags: W
HStem: 0 21G<55 168> 410 108<55 342>
VStem: 55 113<0 410>
Fore
55 0 m 1
 55 518 l 1
 342 518 l 1
 342 410 l 1
 168 410 l 1
 168 0 l 1
 55 0 l 1
EndSplineSet
EndChar
StartChar: afii10069
Encoding: 1076 1076 607
Width: 520
VWidth: 2048
Flags: W
HStem: 0 114<154 412> 404 114<114 345>
VStem: -1 91<-137 0> 345 113<114 518> 412 91<-137 114>
Fore
458 114 m 1xf0
 503 114 l 1
 503 -137 l 1
 412 -137 l 1
 412 0 l 1xe8
 90 0 l 1
 90 -137 l 1
 -1 -137 l 1
 -1 114 l 1
 44 114 l 1
 88 176 111.333 310.667 114 518 c 1
 458 518 l 1
 458 114 l 1xf0
154 114 m 1
 345 114 l 1
 345 404 l 1xf0
 210 404 l 1
 206 267.333 187.333 170.667 154 114 c 1
EndSplineSet
EndChar
StartChar: afii10072
Encoding: 1078 1078 609
Width: 581
VWidth: 2048
Flags: W
HStem: 0 21G<-1 120 234 347 461 582> 429 93<14 58 522 555> 498 20G<234 347>
VStem: 234 113<0 221 307 518>
DStem: 59 143 173 150 -1 0 120 0 407 150 521 143 461 0 582 0
Fore
347 0 m 1xd0
 234 0 l 1
 234 221 l 1
 210.667 222.333 190.333 198.667 173 150 c 2
 120 0 l 1
 -1 0 l 1
 59 143 l 1
 89.6667 215 121.333 256 154 266 c 1
 136.667 275.333 124.333 287.667 117 303 c 128
 109 317.667 101 340 93 370 c 128
 85 400 76.3333 417.333 67 422 c 128
 57.6667 426.667 40 429 14 429 c 1xd0
 14 518 l 1xb0
 32.6667 520.667 47.3333 522 58 522 c 0xd0
 93.3333 522 118.333 512.333 133 493 c 128
 147.667 473.667 161 443.333 173 402 c 128
 185 360.667 194.333 334.667 201 324 c 128
 207.667 313.333 218.667 307.667 234 307 c 1
 234 518 l 1
 347 518 l 1xb0
 347 307 l 1
 358.333 307 368.333 311.667 377 321 c 128
 385.667 330.333 396 358.667 408 406 c 128
 420.667 452.667 436.333 483.667 455 499 c 128
 474.333 514.333 496.667 522 522 522 c 0xd0
 533.333 522 548.333 520.667 567 518 c 1xb0
 567 429 l 1
 555 429 l 2
 537 429 523.333 426.333 514 421 c 128
 504.667 416.333 496 399 488 369 c 128
 480 339.667 472 317.667 464 303 c 128
 456.667 287.667 444.333 275.333 427 266 c 1
 459 256 490.333 215 521 143 c 2
 582 0 l 1
 461 0 l 1
 407 150 l 2
 389.667 198.667 369.667 222.333 347 221 c 1
 347 0 l 1xd0
EndSplineSet
EndChar
StartChar: afii10073
Encoding: 1079 1079 610
Width: 408
VWidth: 2048
Flags: W
HStem: -12 92<185 203> 213 89<174 192.008> 436 94<185 203>
VStem: 253 105<367 382> 266 110<135 150>
Fore
195 213 m 2xe8
 174 213 l 1
 174 302 l 1
 226.667 302 253 324.667 253 370 c 0
 253 388.667 247.667 404.333 237 417 c 128
 227 429.667 213 436 195 436 c 0
 160.333 436 136.333 413.667 123 369 c 1
 27 394 l 1
 49.6667 484.667 106 530 196 530 c 0
 245.333 530 284.667 516 314 488 c 128
 343.333 460.667 358 424.667 358 380 c 0xf0
 358 331.333 332.667 292.333 282 263 c 1
 344.667 240.333 376 198 376 136 c 0
 376 93.3333 359.667 58 327 30 c 128
 295 2 251.333 -12 196 -12 c 0
 96.6667 -12 34.6667 36.6667 10 134 c 1
 113 156 l 1
 129.667 105.333 157 80 195 80 c 0
 214.333 80 231 86.3333 245 99 c 128
 259 112.333 266 128.667 266 148 c 0
 266 167.333 259.333 183 246 195 c 128
 232.667 207 215.667 213 195 213 c 2xe8
EndSplineSet
EndChar
StartChar: afii10074
Encoding: 1080 1080 611
Width: 503
VWidth: 2048
Flags: W
HStem: 0 21G<56 164 340 448> 498 20G<56 164 337 448>
VStem: 56 108<0 518> 340 108<0 518>
DStem: 337 518 340 332 164 193 164 0
Fore
56 0 m 1
 56 518 l 1
 164 518 l 1
 164 193 l 1
 337 518 l 1
 448 518 l 1
 448 0 l 1
 340 0 l 1
 340 332 l 1
 164 0 l 1
 56 0 l 1
EndSplineSet
EndChar
StartChar: afii10076
Encoding: 1082 1082 613
Width: 410
VWidth: 2048
Flags: W
HStem: 0 21G<54 167 290 410> 429 93<349 381> 498 20G<54 167>
VStem: 54 113<0 221 0 518>
DStem: 233 150 348 143 290 0 410 0
Fore
54 0 m 1xd0
 54 518 l 1
 167 518 l 1xb0
 167 307 l 1
 182.333 309 194 314 202 322 c 128
 210 330.667 220 355.667 232 397 c 128
 244 438.333 257.333 469.667 272 491 c 128
 286.667 511.667 312.333 522 349 522 c 0xd0
 359.667 522 374.333 520.667 393 518 c 1xb0
 393 429 l 1
 381 429 l 2
 363 429 349.333 426.333 340 421 c 128
 330.667 416.333 321.667 399.333 313 370 c 128
 305 340.667 297.333 318.333 290 303 c 128
 282.667 287.667 270.333 275.333 253 266 c 1
 267 260.667 281.333 250.333 296 235 c 128
 310.667 219.667 328 189 348 143 c 2
 410 0 l 1
 290 0 l 1
 233 150 l 2
 221.667 180 212 199.333 204 208 c 128
 195.333 216.667 183 221 167 221 c 1
 167 0 l 1
 54 0 l 1xd0
EndSplineSet
EndChar
StartChar: afii10077
Encoding: 1083 1083 614
Width: 520
VWidth: 2048
Flags: W
HStem: -9 109<56 80> 0 21G<354 467> 410 108<89 354>
VStem: 89 113<150 410> 354 113<0 518>
Fore
354 0 m 1x78
 354 410 l 1
 202 410 l 1
 202 174 l 2
 202 98.9123 190.667 48.2456 168 22 c 128
 155.333 7.33333 143 -1.33333 131 -4 c 128
 118.333 -7.33333 101.333 -9 80 -9 c 0xb8
 67.3333 -9 44 -6 10 0 c 1x78
 10 101 l 1
 18.6667 100.333 34 100 56 100 c 0xb8
 69.3333 100 78.3333 104.667 83 114 c 128
 87 123.333 89 144.333 89 177 c 2
 89 518 l 1
 467 518 l 1
 467 0 l 1
 354 0 l 1x78
EndSplineSet
EndChar
StartChar: afii10078
Encoding: 1084 1084 615
Width: 606
VWidth: 2048
Flags: W
HStem: 0 21G<62 159 257 353 456 553> 498 20G<62 202 414 553>
VStem: 62 97<0 341> 456 97<0 518>
DStem: 159 341 202 518 257 0 307 157 414 518 456 341 307 157 353 0
Fore
62 0 m 1
 62 518 l 1
 202 518 l 1
 307 157 l 1
 414 518 l 1
 553 518 l 1
 553 0 l 1
 456 0 l 1
 456 341 l 1
 353 0 l 1
 257 0 l 1
 159 341 l 1
 159 0 l 1
 62 0 l 1
EndSplineSet
EndChar
StartChar: afii10079
Encoding: 1085 1085 616
Width: 495
VWidth: 2048
Flags: W
HStem: 0 21G<54 167 328 441> 218 111<167 328> 498 20G<54 167 328 441>
VStem: 54 113<0 218 0 518> 328 113<0 518>
Fore
54 0 m 1
 54 518 l 1
 167 518 l 1
 167 329 l 1
 328 329 l 1
 328 518 l 1
 441 518 l 1
 441 0 l 1
 328 0 l 1
 328 218 l 1
 167 218 l 1
 167 0 l 1
 54 0 l 1
EndSplineSet
EndChar
StartChar: afii10081
Encoding: 1087 1087 618
Width: 495
VWidth: 2048
Flags: W
HStem: 0 21G<55 168 320 433> 410 108<55 320>
VStem: 55 113<0 410> 320 113<0 518>
Fore
55 0 m 1
 55 518 l 1
 433 518 l 1
 433 0 l 1
 320 0 l 1
 320 410 l 1
 168 410 l 1
 168 0 l 1
 55 0 l 1
EndSplineSet
EndChar
StartChar: afii10084
Encoding: 1090 1090 621
Width: 401
VWidth: 2048
Flags: W
HStem: 0 21G<145 258> 410 108<9 145 9 394>
VStem: 145 113<0 410>
Fore
9 410 m 1
 9 518 l 1
 394 518 l 1
 394 410 l 1
 258 410 l 1
 258 0 l 1
 145 0 l 1
 145 410 l 1
 9 410 l 1
EndSplineSet
EndChar
StartChar: afii10086
Encoding: 1092 1092 623
Width: 716
VWidth: 2048
Flags: W
HStem: -12 105<192 226 491 520> 425 105<195 228 491 528> 696 20G<303 416>
VStem: 33 116<232 282> 303 113<-199 61 232 282 456 716> 568 116<232 282>
Fore
416 61 m 1
 416 -199 l 1
 303 -199 l 1
 303 61 l 1
 269.667 12.3333 232.667 -12 192 -12 c 0
 146 -12 108 13.6667 78 65 c 128
 48 117 33 182.333 33 261 c 0
 33 337.667 49.6667 401.667 83 453 c 128
 117 504.333 154.333 530 195 530 c 0
 238.333 530 274.333 505.333 303 456 c 1
 303 716 l 1
 416 716 l 1
 416 453 l 1
 444.667 504.333 482 530 528 530 c 0
 572 530 609 504 639 452 c 128
 669 400.667 684 335.333 684 256 c 0
 684 180 667.667 116.333 635 65 c 128
 602.333 13.6667 564 -12 520 -12 c 0
 480.667 -12 446 12.3333 416 61 c 1
304 263 m 0
 304 313 296.333 352.667 281 382 c 128
 266.333 410.667 248.667 425 228 425 c 0
 206.667 425 188.333 409.667 173 379 c 128
 157 348.333 149 308 149 258 c 0
 149 208.667 156.333 168.667 171 138 c 128
 185 108 203.333 93 226 93 c 0
 248.667 93 267.333 108.333 282 139 c 128
 296.667 169.667 304 211 304 263 c 0
568 257 m 0
 568 307 560.667 347.333 546 378 c 128
 531.333 409.333 513 425 491 425 c 0
 469 425 450.667 409 436 377 c 128
 421.333 345.667 414 304.333 414 253 c 0
 414 205 421.333 166.333 436 137 c 128
 450.667 107.667 469 93 491 93 c 0
 511 93 528.667 108.667 544 140 c 128
 560 171.333 568 210.333 568 257 c 0
EndSplineSet
EndChar
StartChar: afii10088
Encoding: 1094 1094 625
Width: 503
VWidth: 2048
Flags: W
HStem: 0 111<167 394> 498 20G<55 168 328 441>
VStem: 55 113<0 518> 328 113<111 518> 394 91<-137 111>
Fore
441 111 m 1xf0
 485 111 l 1
 485 -137 l 1
 394 -137 l 1
 394 0 l 1xe8
 55 0 l 1
 55 518 l 1
 168 518 l 1
 168 111 l 1
 328 111 l 1
 328 518 l 1
 441 518 l 1
 441 111 l 1xf0
EndSplineSet
EndChar
StartChar: afii10089
Encoding: 1095 1095 626
Width: 476
VWidth: 2048
Flags: W
HStem: 0 21G<311 424> 186 95<211 244> 498 20G<47 160 311 424>
VStem: 47 113<367 518> 311 113<0 518>
Fore
47 384 m 2
 47 518 l 1
 160 518 l 1
 160 385 l 2
 160 315.667 188 281 244 281 c 0
 265.333 281 287.667 286.333 311 297 c 1
 311 518 l 1
 424 518 l 1
 424 0 l 1
 311 0 l 1
 311 207 l 1
 269.667 193 236.333 186 211 186 c 0
 159 186 118.667 203 90 237 c 128
 61.3333 271 47 320 47 384 c 2
EndSplineSet
EndChar
StartChar: afii10090
Encoding: 1096 1096 627
Width: 683
VWidth: 2048
Flags: W
HStem: 0 111<168 628> 498 20G<56 169 285 398 515 628>
VStem: 56 113<0 518> 285 113<111 518> 515 113<111 518>
Fore
56 0 m 1
 56 518 l 1
 169 518 l 1
 169 111 l 1
 285 111 l 1
 285 518 l 1
 398 518 l 1
 398 111 l 1
 515 111 l 1
 515 518 l 1
 628 518 l 1
 628 0 l 1
 56 0 l 1
EndSplineSet
EndChar
StartChar: afii10091
Encoding: 1097 1097 628
Width: 691
VWidth: 2048
Flags: W
HStem: 0 111<168 582> 498 20G<56 169 285 398 515 628>
VStem: 56 113<0 518> 285 113<111 518> 515 113<111 518> 582 91<-137 111>
Fore
628 111 m 1xf8
 673 111 l 1
 673 -137 l 1
 582 -137 l 1
 582 0 l 1xf4
 56 0 l 1
 56 518 l 1
 169 518 l 1
 169 111 l 1
 285 111 l 1
 285 518 l 1
 398 518 l 1
 398 111 l 1
 515 111 l 1
 515 518 l 1
 628 518 l 1
 628 111 l 1xf8
EndSplineSet
EndChar
StartChar: afii10092
Encoding: 1098 1098 629
Width: 598
VWidth: 2048
Flags: W
HStem: 0 87<268 404> 219 84<268 365> 410 108<12 155>
VStem: 155 113<0 219 0 518> 450 116<143 161>
Fore
12 410 m 1
 12 518 l 1
 268 518 l 1
 268 303 l 1
 390 303 l 2
 462 303 509.333 287 532 255 c 128
 554.667 223.667 566 189 566 151 c 0
 566 50.3333 512 3.46945e-18 404 0 c 2
 155 0 l 1
 155 410 l 1
 12 410 l 1
268 219 m 1
 268 87 l 1
 383 87 l 2
 427.667 87 450 109 450 153 c 0
 450 175.667 443 192.333 429 203 c 128
 414.333 213.667 388.333 219 351 219 c 2
 268 219 l 1
EndSplineSet
EndChar
StartChar: afii10094
Encoding: 1100 1100 631
Width: 503
VWidth: 2048
Flags: W
HStem: 0 87<174 311> 219 84<174 270> 498 20G<61 174>
VStem: 61 113<0 219 0 518> 356 116<143 161>
Fore
61 0 m 1
 61 518 l 1
 174 518 l 1
 174 303 l 1
 297 303 l 2
 371 303 418.667 286.667 440 254 c 128
 461.333 221.333 472 187 472 151 c 0
 472 50.3333 418.333 3.46945e-18 311 0 c 2
 61 0 l 1
174 219 m 1
 174 87 l 1
 288 87 l 2
 333.333 87 356 109 356 153 c 0
 356 175.667 349 192.333 335 203 c 128
 321 213.667 295 219 257 219 c 2
 174 219 l 1
EndSplineSet
EndChar
StartChar: afii10095
Encoding: 1101 1101 632
Width: 453
VWidth: 2048
Flags: W
HStem: -11 105<198 220> 220 84<184 301> 425 105<209 232>
Fore
184 220 m 1
 184 304 l 1
 304 304 l 1
 297.333 384.667 268.667 425 218 425 c 0
 178 425 153 403.667 143 361 c 1
 32 386 l 1
 60.6667 482 121.667 530 215 530 c 0
 279.667 530 330.333 506.667 367 460 c 128
 403 413.333 421 347 421 261 c 0
 421 173.667 403.333 106.333 368 59 c 128
 332 12.3333 281.333 -11 216 -11 c 0
 116 -11 51.6667 43.6667 23 153 c 1
 134 178 l 1
 143.333 122 169 94 211 94 c 0
 263.667 94 293.667 136 301 220 c 1
 184 220 l 1
EndSplineSet
EndChar
StartChar: afii10096
Encoding: 1102 1102 633
Width: 700
VWidth: 2048
Flags: W
HStem: -12 109<457 475> 0 21G<58 171> 425 105<457 475> 498 20G<58 171>
VStem: 58 113<0 201 0 518> 552 116<227 277>
Fore
171 201 m 1xac
 171 0 l 1
 58 0 l 1
 58 518 l 1
 171 518 l 1x5c
 171 309 l 1
 260 309 l 1
 266.667 379 288.333 433.333 325 472 c 128
 361 510.667 407.333 530 464 530 c 0
 526 530 575.667 505.667 613 457 c 128
 649.667 408.333 668 341.333 668 256 c 0
 668 172 650.333 106.333 615 59 c 128
 579.667 11.6667 530.333 -12 467 -12 c 0
 401 -12 351 9 317 51 c 128
 283.667 93 264.667 143 260 201 c 1
 171 201 l 1xac
552 257 m 0
 552 317.667 545 360.667 531 386 c 128
 517 412 494.333 425 463 425 c 0
 431.667 425 408.667 412 394 386 c 128
 379.333 360 372 318 372 260 c 0
 372 203.333 379.333 162 394 136 c 128
 408 110 432 97 466 97 c 0xac
 523.333 97 552 150.333 552 257 c 0
EndSplineSet
EndChar
StartChar: afii10097
Encoding: 1103 1103 634
Width: 478
VWidth: 2048
Flags: W
HStem: 0 21G<-2 129 311 424> 216 81<229 311> 431 87<193 311>
VStem: 35 116<351 373> 311 113<0 518>
DStem: 78 150 202 145 -2 0 129 0
Fore
193 518 m 2
 424 518 l 1
 424 0 l 1
 311 0 l 1
 311 216 l 1
 292 216 l 2
 271.333 216 254.333 210.667 241 200 c 128
 228.333 189.333 215.333 171 202 145 c 2
 129 0 l 1
 -2 0 l 1
 78 150 l 2
 100.667 192.667 121.667 217.667 141 225 c 1
 107.667 228.333 81.6667 243.333 63 270 c 128
 44.3333 296.667 35 330.333 35 371 c 0
 35 421 47.6667 458 73 482 c 128
 98.3333 506 138.333 518 193 518 c 2
311 297 m 1
 311 431 l 1
 221 431 l 2
 174.333 431 151 408.667 151 364 c 0
 151 319.333 177 297 229 297 c 2
 311 297 l 1
EndSplineSet
EndChar
StartChar: afii10099
Encoding: 1106 1106 636
Width: 500
VWidth: 2048
Flags: W
HStem: -209 105<299 326> 0 21G<57 170> 425 105<262 302> 588 71<-1 57 170 307> 696 20G<57 170>
VStem: 57 113<0 288 0 588 659 716> 332 113<-66 306>
Fore
170 716 m 1
 170 659 l 1
 307 659 l 1
 307 588 l 1
 170 588 l 1
 170 452 l 1
 207.333 504 251.333 530 302 530 c 0
 333.333 530 361.333 520.333 386 501 c 128
 410.667 482.333 426.667 458.333 434 429 c 128
 441.333 400.333 445 358.667 445 304 c 2
 445 -38 l 2
 445 -152 405.333 -209 326 -209 c 0
 300.667 -209 271.667 -204 239 -194 c 1
 255 -93 l 1
 277.667 -100.333 292.333 -104 299 -104 c 0
 321 -104 332 -86.3333 332 -51 c 2
 332 274 l 2
 332 328 328.333 366.667 321 390 c 128
 313 413.333 293.333 425 262 425 c 0
 230 425 206.667 412 192 386 c 128
 177.333 360.667 170 318.667 170 260 c 2
 170 0 l 1
 57 0 l 1
 57 588 l 1
 -1 588 l 1
 -1 659 l 1
 57 659 l 1
 57 716 l 1
 170 716 l 1
EndSplineSet
EndChar
StartChar: afii10101
Encoding: 1108 1108 638
Width: 453
VWidth: 2048
Flags: W
HStem: -11 105<233 243> 220 84<149 269> 425 105<223 244>
Fore
149 304 m 1
 269 304 l 1
 269 220 l 1
 151 220 l 1
 158.333 136 188.333 94 241 94 c 0
 282.333 94 308 122 318 178 c 1
 430 153 l 1
 401.333 43.6667 337 -11 237 -11 c 0
 171.667 -11 121.333 12.3333 86 59 c 128
 50 105.667 32 172 32 258 c 0
 32 345.333 50 412.333 86 459 c 128
 122 506.333 172.667 530 238 530 c 0
 331.333 530 392 482 420 386 c 1
 310 361 l 1
 299.333 403.667 274.333 425 235 425 c 0
 183.667 425 155 384.667 149 304 c 1
EndSplineSet
EndChar
StartChar: afii10106
Encoding: 1113 1113 643
Width: 794
VWidth: 2048
Flags: W
HStem: -29 20G<83 146> 0 87<467 603> 219 84<467 571> 404 114<90 354>
VStem: 90 113<149 404> 354 113<0 219 0 518> 648 116<137.632 167>
Fore
354 0 m 1
 354 404 l 1
 203 404 l 1
 203 165 l 2
 203 49 165 -9 89 -9 c 0
 81 -9 54.6667 -6 10 0 c 1
 10 107 l 1
 34 104.333 50.6667 103 60 103 c 0
 80 103 90 120.333 90 155 c 2
 90 518 l 1
 467 518 l 1
 467 303 l 1
 589 303 l 2
 661.667 303 709 287 731 255 c 128
 753 223 764 188.333 764 151 c 0
 764 50.3333 710.333 3.46945e-18 603 0 c 2
 354 0 l 1
467 219 m 1
 467 87 l 1
 581 87 l 2
 625.667 87 648 109 648 153 c 0
 648 175.667 641 192.333 627 203 c 128
 613.667 213.667 588 219 550 219 c 2
 467 219 l 1
EndSplineSet
EndChar
StartChar: afii10107
Encoding: 1114 1114 644
Width: 743
VWidth: 2048
Flags: W
HStem: 0 87<412 549> 218 111<169 299 412 521> 498 20G<56 169 299 412>
VStem: 56 113<0 218 0 518> 299 113<0 218 329 518> 594 116<143 165>
Fore
549 0 m 2
 299 0 l 1
 299 218 l 1
 169 218 l 1
 169 0 l 1
 56 0 l 1
 56 518 l 1
 169 518 l 1
 169 329 l 1
 299 329 l 1
 299 518 l 1
 412 518 l 1
 412 329 l 1
 535 329 l 2
 597 329 641.667 315.667 669 289 c 128
 696.333 262.333 710 220.333 710 163 c 0
 710 54.3333 656.333 3.46945e-18 549 0 c 2
412 218 m 1
 412 87 l 1
 526 87 l 2
 571.333 87 594 109 594 153 c 0
 594 175.667 587 192 573 202 c 128
 559 212.667 533 218 495 218 c 2
 412 218 l 1
EndSplineSet
EndChar
StartChar: afii10108
Encoding: 1115 1115 645
Width: 500
VWidth: 2048
Flags: W
HStem: 0 21G<57 170 332 445> 425 105<262 302> 588 71<-1 57 170 307> 696 20G<57 170>
VStem: 57 113<0 289 0 588 659 716> 332 113<0 306>
Fore
-1 659 m 1
 57 659 l 1
 57 716 l 1
 170 716 l 1
 170 659 l 1
 307 659 l 1
 307 588 l 1
 170 588 l 1
 170 452 l 1
 207.333 504 251.333 530 302 530 c 0
 333.333 530 361.333 520.333 386 501 c 128
 410.667 482.333 426.667 458.333 434 429 c 128
 441.333 400.333 445 358.667 445 304 c 2
 445 0 l 1
 332 0 l 1
 332 274 l 2
 332 328 328.333 366.667 321 390 c 128
 313 413.333 293.333 425 262 425 c 0
 230 425 206.667 412 192 386 c 128
 177.333 360.667 170 318.667 170 260 c 2
 170 0 l 1
 57 0 l 1
 57 588 l 1
 -1 588 l 1
 -1 659 l 1
EndSplineSet
EndChar
StartChar: afii10193
Encoding: 1119 1119 648
Width: 495
VWidth: 2048
Flags: W
HStem: 0 111<167 203 168 442> 498 20G<55 168 329 442>
VStem: 55 113<0 518> 203 91<-199 0> 329 113<111 518>
Fore
442 0 m 1
 294 0 l 1
 294 -199 l 1
 203 -199 l 1
 203 0 l 1
 55 0 l 1
 55 518 l 1
 168 518 l 1
 168 111 l 1
 329 111 l 1
 329 518 l 1
 442 518 l 1
 442 0 l 1
EndSplineSet
EndChar
StartChar: afii10050
Encoding: 1168 1168 649
Width: 453
VWidth: 2048
Flags: W
HStem: 0 21G<60 178> 595 121<60 450>
VStem: 60 118<0 595> 353 97<716 872>
Fore
60 716 m 1
 353 716 l 1
 353 872 l 1
 450 872 l 1
 450 595 l 1
 178 595 l 1
 178 0 l 1
 60 0 l 1
 60 716 l 1
EndSplineSet
EndChar
StartChar: afii10098
Encoding: 1169 1169 650
Width: 341
VWidth: 2048
Flags: W
HStem: 0 21G<55 168> 410 108<55 342>
VStem: 55 113<0 410> 251 91<518 655>
Fore
55 518 m 1
 251 518 l 1
 251 655 l 1
 342 655 l 1
 342 410 l 1
 168 410 l 1
 168 0 l 1
 55 0 l 1
 55 518 l 1
EndSplineSet
EndChar
StartChar: uni0531
Encoding: 1329 1329 651
Width: 610
Flags: W
HStem: -12 85<326 346> 696 20G<73 159 503 590>
VStem: 73 86<262 716> 503 87<262 716>
DStem: 533 60 590 120 616 -41 671 27
Fore
533 60 m 1
 515.667 39.3333 485.667 21.6667 443 7 c 0
 406.333 -5.66667 369.667 -12 333 -12 c 0
 219.667 -12 144 26.6667 106 104 c 0
 93.3333 130.667 84 163 78 201 c 0
 74.6667 231 73 264.667 73 302 c 0
 73 716 l 0
 159 716 l 0
 159 303 l 0
 159 225 167.667 171.333 185 142 c 0
 195 124.667 210.333 110 231 98 c 0
 257 82.6667 288.667 74.3333 326 73 c 0
 388 73 433 88.6667 461 120 c 0
 489 150.667 503 211.667 503 303 c 0
 503 716 l 0
 590 716 l 0
 590 120 l 0
 671 27 l 0
 616 -41 l 0
 533 60 l 1
EndSplineSet
EndChar
StartChar: uni0532
Encoding: 1330 1330 652
Width: 596
Flags: W
HStem: -2 21G<73 159> 150 93<159 588> 641 85<312 346>
VStem: 73 86<-2 150 -2 431> 503 87<330 447>
Fore
590 330 m 1
 503 330 l 0
 503 411 l 0
 503 501 489.333 561.667 462 593 c 0
 435.333 623.667 390 639.667 326 641 c 0
 253.333 641 204.667 614.333 180 561 c 0
 175 549 l 0
 164.333 518.333 159 459 159 371 c 0
 160 243 l 0
 588 243 l 0
 588 150 l 0
 160 150 l 0
 159 -2 l 0
 73 -2 l 0
 73 412 l 0
 73 518 90.3333 594 125 640 c 0
 167.045 697.333 236.378 726 333 726 c 0
 397 726 448.333 713 487 687 c 0
 525.667 660.333 552.667 625.667 568 583 c 0
 570 577.667 574.333 559.333 581 528 c 0
 587.667 491.333 590.667 452.667 590 412 c 0
 590 330 l 1
EndSplineSet
EndChar
StartChar: uni0533
Encoding: 1331 1331 653
Width: 655
Flags: W
HStem: -1 21G<498 585> 134 95<315 498 582 684> 641 85<315 341>
VStem: 76 83<412 447> 497 84<230 512> 498 87<-1 134>
DStem: 497 340 497 340 497 230 499 338
Fore
684 134 m 1xf8
 585 134 l 0
 585 -1 l 0
 498 -1 l 0
 498 134 l 0xf4
 300 134 l 0
 256.667 134 217.333 145.667 182 169 c 0
 135.333 203.667 103 254.667 85 322 c 0
 76 412 l 0
 76 510.667 90.3333 581.667 119 625 c 1
 161.324 692.333 232.991 726 334 726 c 0
 454 726 532.333 681 569 591 c 0
 577.667 571.667 582 535 582 481 c 0
 581 453 l 1
 582 230 l 1
 684 230 l 0
 684 134 l 1xf8
499 338 m 1
 498 507 l 1xf4
 498 523 495.667 537 491 549 c 0
 469 607.667 419 638.333 341 641 c 0
 269.667 641 218.333 620.667 187 580 c 0
 176.333 566 169.333 550 166 532 c 0
 162.667 504 160.333 475.667 159 447 c 0
 159 409.667 161.667 383 167 367 c 0
 170.333 353.667 175 338 181 320 c 0
 199.667 272.667 236.333 243.667 291 233 c 0
 303.667 230.333 317 229 331 229 c 0
 497 230 l 0
 497 340 l 0xf8
 499 338 l 1
EndSplineSet
EndChar
StartChar: uni0534
Encoding: 1332 1332 654
Width: 637
Flags: W
HStem: 1 21G<506 593> 644 85<314 340>
VStem: 75 87<333 450> 506 87<1 145 1 450> 506 163<1 239>
Fore
506 414 m 2xf0
 506 448 504.667 475.333 502 496 c 0
 494 592 440 641.333 340 644 c 0
 277.333 644 232 628 204 596 c 0
 176.667 565.333 162.667 504.667 162 414 c 0
 162 333 l 0
 75 333 l 0
 75 415 l 0
 75 514.333 89.6667 586 119 630 c 0
 133.667 652 153.333 671.333 178 688 c 0
 217.333 715.333 269 729 333 729 c 0
 453 729 531.667 684 569 594 c 1
 585 552 593 492.333 593 415 c 2
 593 239 l 0xf0
 669 239 l 0
 669 145 l 0xe8
 593 145 l 0
 593 1 l 0
 506 1 l 0
 506 414 l 2xf0
EndSplineSet
EndChar
StartChar: uni0535
Encoding: 1333 1333 655
Width: 610
Flags: W
HStem: 5 86<312 346> 488 93<159 588>
VStem: 73 86<320 488 320 733> 503 87<320 401>
Fore
590 320 m 2
 590 220.667 575 148.333 545 103 c 1
 500.861 39.6707 430.195 7.00402 333 5 c 1
 211 5 132.667 50 98 140 c 0
 81.3333 184 73 244 73 320 c 0
 73 733 l 0
 159 733 l 0
 160 581 l 0
 588 581 l 0
 588 488 l 0
 160 488 l 0
 159 320 l 0
 159 243.333 167.333 190.667 184 162 c 0
 194 144 209.667 128.333 231 115 c 0
 257.667 99 289.333 91 326 91 c 0
 388.667 91 433.667 106.667 461 138 c 0
 489 168.667 503 229.333 503 320 c 0
 503 401 l 0
 590 401 l 0
 590 320 l 2
EndSplineSet
EndChar
StartChar: uni0536
Encoding: 1334 1334 656
Width: 634
Flags: W
HStem: -2 21G<42 125> 52 77<125 514> 359 79<115 288> 660 73<316 347> 660 75<290 334>
VStem: 42 83<-2 52 -2 184> 517 67<420 469> 578 76<-6 7.94538>
Fore
517 420 m 0xf6
 517 467.333 514.667 498.333 510 513 c 0
 505.333 534.333 493.667 559.333 475 588 c 0
 465.667 602 447.333 616.667 420 632 c 0
 383.333 650.667 348.667 660 316 660 c 0xf6
 295.444 659.223 276.777 656.556 260 652 c 0
 187.694 631.443 142.361 584.443 124 511 c 1
 117 471 l 0
 115.667 459 115 448 115 438 c 0
 288 440 l 0
 288 359 l 0
 29 359 l 0
 29 426 l 0
 32.3333 489.333 42 540.667 58 580 c 0
 95.7613 674.403 173.095 726.07 290 735 c 1
 324 735 l 0xee
 332.667 735 340.333 734.333 347 733 c 0
 354.333 733 360 732.333 364 731 c 0
 393.333 726.333 420 718.667 444 708 c 0
 466 700 494 678.333 528 643 c 0
 532.667 638.333 536.333 634.333 539 631 c 0
 547 621.667 557 599 569 563 c 0
 579 531 584 499.667 584 469 c 0xf6
 584 354.573 550.333 260.239 483 186 c 0
 462.333 162.667 440 144.333 416 131 c 0
 529 131 l 0
 572.333 131 605.667 115.667 629 85 c 0
 645 63 653.333 32.6667 654 -6 c 0
 578 -5 l 0xf5
 578 31.6667 556.667 50.6667 514 52 c 0
 125 52 l 0
 125 -2 l 0
 42 -2 l 0
 42 184 l 0
 125 184 l 0
 125 129 l 0
 242 129 l 0
 271.333 129 311 143.667 361 173 c 0
 438 217 486 277 505 353 c 0
 509.667 374.333 513.667 396.667 517 420 c 0xf6
EndSplineSet
EndChar
StartChar: uni0537
Encoding: 1335 1335 657
Width: 410
Flags: W
HStem: 0 79<165 307> 411 77<165 395> 701 20G<77 165>
VStem: 77 88<0 411 0 721>
Fore
307 79 m 1
 307 0 l 0
 77 0 l 0
 77 721 l 0
 165 721 l 0
 165 488 l 0
 395 488 l 0
 395 411 l 0
 165 411 l 0
 165 79 l 0
 307 79 l 1
EndSplineSet
EndChar
StartChar: uni0538
Encoding: 1336 1336 658
Width: 610
Flags: W
HStem: 0 87<154 586> 644 85<307 341>
VStem: 68 86<1 433> 499 87<274 449>
Fore
586 274 m 1
 499 274 l 0
 499 414 l 0
 499 503.333 485 564 457 596 c 0
 429.667 627.333 384.333 643.333 321 644 c 0
 255 644 208.667 621.333 182 576 c 0
 171 552 l 0
 161 524.667 155.333 478.667 154 414 c 0
 154 88 l 0
 588 87 l 0
 586 0 l 0
 68 1 l 0
 68 415 l 0
 68 521.667 85.6667 598 121 644 c 0
 163.989 700.667 232.989 729 328 729 c 0
 392.667 729 444 715.667 482 689 c 0
 529.333 657 559.667 611.667 573 553 c 0
 581 512 l 0
 584.333 484 586 451.667 586 415 c 0
 586 274 l 1
EndSplineSet
EndChar
StartChar: uni0539
Encoding: 1337 1337 659
Width: 661
Flags: W
HStem: -2 21G<425 452> 0 76<392 443> 368 80<406 583 669 720> 651 77<249 277 277 447>
VStem: 58 87<0 527> 227 86<189 255> 583 87<204 367 447 527>
Fore
313 218 m 0x7e
 313 166 318.667 131.333 330 114 c 0
 339.333 101.333 353.333 91.3333 372 84 c 0
 392 79.3333 415.667 76.6667 443 76 c 0
 535.667 76 582.333 121.667 583 213 c 0
 583 368 l 0
 419 368 l 0
 375.667 368 347.667 359.333 335 342 c 0
 320.333 320.564 313 279.231 313 218 c 0x7e
282 650 m 1
 259 651 l 2
 184.333 651 146.333 605.333 145 514 c 0
 145 0 l 0
 58 0 l 0x7e
 58 523 l 0
 58 549.667 62 576 70 602 c 1
 103 686 172 728 277 728 c 2
 453 728 l 0
 531 728 590.333 701.333 631 648 c 0
 657.667 613.333 670.667 571.667 670 523 c 0
 670 448 l 0
 720 448 l 0
 720 370 l 0
 670 370 l 0
 670 206 l 0
 670 126 638.333 67 575 29 c 0
 542.333 8.33333 501.333 -2 452 -2 c 0
 425 -2 l 0xbe
 417.667 -2 412 -1.66667 408 -1 c 0
 400.667 -1 395.333 -0.666667 392 0 c 0
 380 0 364.333 3 345 9 c 0
 290.333 25 255.333 58.3333 240 109 c 0
 231.333 136.333 227 172 227 216 c 0
 227 308.667 243 371.333 275 404 c 0
 303.667 433.333 351.333 448 418 448 c 0
 583 448 l 0
 583 514 l 0
 583 570 569.667 606.667 543 624 c 0
 517 640 485 648.667 447 650 c 0
 282 650 l 1
EndSplineSet
EndChar
StartChar: uni053A
Encoding: 1338 1338 660
Width: 553
Flags: W
HStem: 451 75<266 411 496 587> 698 20G<411 496>
VStem: 62 87<181 327> 411 87<181 451 525 718>
Fore
280 -10 m 0
 198.667 -10 138 17.3333 98 72 c 0
 74 106 62 147 62 195 c 0
 62 321 l 0
 62 355 69.3333 387.333 84 418 c 0
 116.667 484.667 177.667 520.667 267 526 c 1
 411 526 l 1
 411 718 l 0
 496 718 l 0
 496 526 l 0
 587 526 l 0
 587 451 l 0
 498 451 l 0
 498 195 l 0
 498 119 466.333 61 403 21 c 0
 372.333 1.66667 331.333 -8.66667 280 -10 c 0
411 451 m 1
 260 453 l 2
 234 453 209 443 185 423 c 0
 161.667 405 149.667 367 149 309 c 0
 149 202 l 0
 149 162 156 132.333 170 113 c 0
 198.667 82.3333 235.333 66.3333 280 65 c 0
 324 65 356 75 376 95 c 0
 398.533 117.533 410.2 153.2 411 202 c 1
 411 451 l 1
EndSplineSet
EndChar
StartChar: uni053B
Encoding: 1339 1339 661
Width: 591
Flags: W
HStem: 0 21G<58 144> 486 89<297 331>
VStem: 58 86<0 286> 58 90<0 732> 489 86<186 288>
Fore
323 486 m 0xd8
 243 486 190 463.333 164 418 c 0
 157.333 406.667 153 394.333 151 381 c 0
 147.667 361.667 145.333 330 144 286 c 0
 144 0 l 0
 58 0 l 0xe8
 58 732 l 0
 148 732 l 0
 148 518 l 0
 156 538.667 190 555.333 250 568 c 0
 274 572.667 294.667 575 312 575 c 0
 374 575 425.333 562.333 466 537 c 0
 504 515.667 532 482.333 550 437 c 0
 556 423 562.333 397 569 359 c 0
 573 331 575 297 575 257 c 0
 575 186 l 0
 489 186 l 0
 489 257 l 0
 489 335.667 479.333 390.333 460 421 c 0
 449.177 438.137 434.843 451.804 417 462 c 0
 390.333 478 359 486 323 486 c 0xd8
EndSplineSet
EndChar
StartChar: uni053C
Encoding: 1340 1340 662
Width: 352
Flags: W
HStem: 0 93<173 344> 696 20G<86 173>
VStem: 86 87<0 716>
Fore
86 0 m 1
 86 716 l 0
 173 716 l 0
 173 94 l 0
 344 93 l 0
 344 0 l 0
 86 0 l 1
EndSplineSet
EndChar
StartChar: uni053D
Encoding: 1341 1341 663
Width: 721
Flags: W
HStem: -12 85<500 526> 0 21G<61 148> 448 79<148 247> 703 20G<61 148>
VStem: 61 87<0 448 0 723> 247 87<275 448> 633 87<302 527>
Fore
631 237 m 1xbe
 633 303 l 1
 633 527 l 0
 720 527 l 0
 720 302 l 2
 720 161.333 687.333 67.6667 622 21 c 0x7e
 604.667 9 587.667 0 571 -6 c 0
 558.333 -10 537.333 -12 508 -12 c 0xbe
 386 -12 307.333 33 272 123 c 0
 264 147.667 258 173.667 254 201 c 0
 249.333 233 247 277.667 247 335 c 0
 247 449 l 0
 148 448 l 0
 148 0 l 0
 61 0 l 0x7e
 61 723 l 0
 148 723 l 0
 148 528 l 0
 334 527 l 0
 334 303 l 0
 334 225 343 171.333 361 142 c 0
 371 124.667 386 110 406 98 c 0
 432 82.6667 463.333 74.3333 500 73 c 0
 530.667 73 551.333 76 562 82 c 0
 568.667 84 580.333 95 597 115 c 0
 611 131.667 621.333 161.667 628 205 c 0
 628 211 629 221.667 631 237 c 1xbe
EndSplineSet
EndChar
StartChar: uni053E
Encoding: 1342 1342 664
Width: 668
Flags: W
HStem: -4 74<335 355> 627 80<197 593> 631 76<175 221>
VStem: 43 76<310 332> 577 78<299 342>
Fore
707 646 m 1xd8
 647 583 l 0
 643 605 632.333 619 615 625 c 0
 607.667 626.333 599.667 627 591 627 c 0xd8
 475 628 l 0
 482.333 628 498 619 522 601 c 0
 601.333 545.667 645.333 459.333 654 342 c 0
 654.667 332 655 322 655 312 c 0
 655 222.667 624 147.667 562 87 c 0
 502 26.3333 429.667 -4 345 -4 c 0
 261 -4 190 28.3333 132 93 c 0
 72.6667 159 43 238 43 330 c 0
 43 419.333 74.6667 497.667 138 565 c 0
 149.333 577.667 161.667 589.333 175 600 c 0
 200.333 620 215.667 630.333 221 631 c 0xb8
 146 632 l 0
 76.6667 632 39 655 33 701 c 0
 32 721 l 0
 109 762 l 0
 109.667 748.667 112 739.333 116 734 c 0
 130 716 157 707 197 707 c 0
 579 707 l 0
 635.667 707 675.333 692 698 662 c 0
 707 646 l 1xd8
577 316 m 0
 577 388.667 556 450.667 514 502 c 0
 470 555.333 416.333 582 353 582 c 0
 289.667 582 235 554.667 189 500 c 0
 143 445.333 119.667 382.667 119 312 c 0
 119 248 141.667 191.667 187 143 c 0
 231 95.6667 282.667 71.3333 342 70 c 0
 404 70 458.667 94.6667 506 144 c 0
 552 191.333 575.667 248.667 577 316 c 0
EndSplineSet
EndChar
StartChar: uni053F
Encoding: 1343 1343 665
Width: 601
Flags: W
HStem: 1 21G<496 585> 159 88<321 341>
VStem: 68 86<448 733> 496 89<1 553> 499 86<432 553>
Fore
585 1 m 1xf0
 496 1 l 0
 496 216 l 0xf0
 488.667 199.333 467 184.667 431 172 c 0
 397.667 163.333 364.333 159 331 159 c 0
 269.667 159 218.333 171.333 177 196 c 0
 118.333 230.667 83.6667 293.667 73 385 c 0
 69.6667 411.667 68 442 68 476 c 0
 68 733 l 0
 154 733 l 0
 154 477 l 0
 154 399.667 162.667 346.333 180 317 c 0
 205.537 272.735 252.537 249.402 321 247 c 1
 387 247 435.667 264.333 467 299 c 0
 488.333 321.667 499 381 499 477 c 2
 499 553 l 0xe8
 586 553 l 0
 585 1 l 1xf0
EndSplineSet
EndChar
StartChar: uni0540
Encoding: 1344 1344 666
Width: 496
Flags: W
HStem: 639 86<462 473>
DStem: 21 229 154 265 369 59 507 89 363 669 403 593 21 229 154 265
Fore
464 725 m 0
 490.667 725 510 720 522 710 c 0
 522 607 l 0
 510 623 l 0
 499.333 632.333 487 637.667 473 639 c 0
 449.667 639 426.333 623.667 403 593 c 0
 154 265 l 0
 507 89 l 0
 507 -74 l 0
 477 -74 l 0
 472.333 -44 462 -19.3333 446 0 c 0
 428 22.6667 402.333 42.3333 369 59 c 0
 21 229 l 0
 363 669 l 0
 390.333 706.333 424 725 464 725 c 0
EndSplineSet
EndChar
StartChar: uni0541
Encoding: 1345 1345 667
Width: 560
Flags: W
HStem: -11 75<183 185> 161 76<160 176> 653 75<305 313>
VStem: 459 86<405 497>
Fore
47 106 m 1
 47 189.567 84.6667 233.233 160 237 c 1
 176.667 237 193.333 234.333 210 229 c 0
 221 226 l 0
 231 223.333 242.667 217.667 256 209 c 0
 282.667 194.333 305 170.667 323 138 c 0
 363.667 166 398.667 212.667 428 278 c 0
 448.667 321.333 459 371.667 459 429 c 0
 459 473 l 0
 459 554.333 427.333 609 364 637 c 0
 340 647.667 320.333 653 305 653 c 0
 296.333 653 284.333 651 269 647 c 0
 235 643 206.333 622.333 183 585 c 1
 167 563.667 159 533.667 159 495 c 2
 159 434 l 0
 72 436 l 0
 72 502 l 0
 72 572 100.667 630.333 158 677 c 0
 199.555 711 248.555 728 305 728 c 0
 391.667 728 456.667 696 500 632 c 0
 528.667 590.667 543.667 540.667 545 482 c 0
 545 419 l 0
 545 357 532.333 300.667 507 250 c 0
 482.333 200.667 456.667 162.667 430 136 c 0
 405.333 111.333 386.333 94 373 84 c 1
 384.333 73.3333 409 42.6667 447 -8 c 1
 380 -42 l 0
 351.333 -15.3333 328.333 10.6667 311 36 c 0
 266.333 10.6667 230 -4.66667 202 -10 c 0
 184 -11 l 0
 144 -11 114.333 -2.33333 95 15 c 0
 74.3333 33 61.3333 50.3333 56 67 c 1
 47 106 l 1
126 103 m 0
 126 81.6667 145 68.6667 183 64 c 0
 200.333 64 215 68.3333 227 77 c 0
 241 86.3333 250.333 93.6667 255 99 c 0
 242.333 121.667 224.333 139 201 151 c 0
 188.333 157.667 176.333 161 165 161 c 0
 153 161 142.667 156 134 146 c 0
 129.333 134.667 126.667 120.333 126 103 c 0
EndSplineSet
EndChar
StartChar: uni0542
Encoding: 1346 1346 668
Width: 562
Flags: W
HStem: 0 75<507 598> 728 21G<276 355>
VStem: 73 87<313 529> 421 87<0 529>
Fore
598 0 m 1
 421 0 l 0
 421 517 l 0
 421 572.333 408 609 382 627 c 0
 357.333 643 327 651.667 291 653 c 0
 249 653 217.667 643.333 197 624 c 0
 192.333 619.333 187.333 613.667 182 607 c 0
 167.333 586.333 160 556.333 160 517 c 0
 160 313 l 0
 73 313 l 0
 73 523 l 0
 73 556.333 80.6667 588.667 96 620 c 0
 121.333 674 167 708 233 722 c 0
 251.667 726 271 728 291 728 c 0
 376.333 728 437.667 698.333 475 639 c 0
 479 633.667 482.333 628 485 622 c 0
 501 590.667 508.667 557.667 508 523 c 0
 508 75 l 0
 598 75 l 0
 598 0 l 1
EndSplineSet
EndChar
StartChar: uni0543
Encoding: 1347 1347 669
Width: 562
Flags: W
HStem: 0 96<138 575>
Fore
575 0 m 1
 43 0 l 0
 43 146 75.3333 279.333 140 400 c 0
 154 426.667 169.333 451.333 186 474 c 0
 214 514.667 230.667 535.333 236 536 c 0
 220.667 547.333 198.333 559.333 169 572 c 0
 224 643 l 0
 260.667 629.667 281.667 621.333 287 618 c 0
 293 614.667 299.333 610.667 306 606 c 0
 344 642.667 404.667 682 488 724 c 0
 548 657 l 0
 473.333 620.333 416.333 587 377 557 c 0
 382.333 557 399.667 535 429 491 c 0
 497 391.667 541.667 275.333 563 142 c 0
 571 94 575 46.6667 575 0 c 1
494 96 m 1
 478 165 l 0
 440.667 305 386.333 415.333 315 496 c 0
 313 496 300.333 478.333 277 443 c 0
 204.999 333.361 158.665 217.695 138 96 c 1
 494 96 l 1
EndSplineSet
EndChar
StartChar: uni0544
Encoding: 1348 1348 670
Width: 639
Flags: W
HStem: 0 85<280 330> 635 94<473 657> 708 20G<41 128>
VStem: 41 87<314 728> 473 86<314 635> 473 183<314 729>
Fore
657 636 m 1xd4
 559 635 l 0xd8
 559 314 l 0
 559 206.667 541.667 130 507 84 c 0
 499.667 74.6667 491.667 66 483 58 c 0
 455 36 l 0
 451 34 l 0
 411.667 11.3333 361 8.67362e-19 299 0 c 0
 235 0 183.667 13 145 39 c 0
 106.333 65.6667 79.3333 100.333 64 143 c 0
 48.6667 191.667 41 248.667 41 314 c 0
 41 728 l 0
 128 728 l 0
 128 314 l 0
 128 224.667 142 164 170 132 c 0
 198 100.667 243.333 85 306 85 c 0
 382.667 85 432.667 115.333 456 176 c 0
 467.333 205.333 473 251.333 473 314 c 0xb8
 473 729 l 0
 656 729 l 0
 657 636 l 1xd4
EndSplineSet
EndChar
StartChar: uni0545
Encoding: 1349 1349 671
Width: 527
Flags: W
HStem: -12 75<277 290.977> 352 77<69 298> 653 75<268 286>
VStem: 73 88<556 566> 404 86<541 558> 423 86<192 229>
Fore
509 203 m 0xf4
 509 124.333 478.333 65.3333 417 26 c 0
 376.333 0.666667 328.667 -12 274 -12 c 0
 257.333 -12 247.333 -11.6667 244 -11 c 0
 199.333 -11 156.333 6.33333 115 41 c 0
 94.0199 58.4835 75.6865 84.1501 60 118 c 1
 50 147.333 45 172.667 45 194 c 0
 131 194 l 0
 131 146 149 113 185 95 c 0
 221.667 76.3333 252.333 65.6667 277 63 c 0
 300.333 63 330.667 72.3333 368 91 c 0
 404.667 109 423 148.333 423 209 c 0xf4
 423 267 407 305.333 375 324 c 0
 343 342.667 312 352 282 352 c 0
 69 352 l 0
 69 429 l 0
 282 429 l 0
 312 429 339.667 436.667 365 452 c 0
 389.667 466.667 402.667 497.333 404 544 c 0
 404 605.333 368 641 296 651 c 0
 286.667 652.333 279.667 653 275 653 c 0
 268.333 653 258.667 652 246 650 c 0
 202.667 637.333 176.333 617.667 167 591 c 0
 161 566 l 0
 161 556 l 0
 73 556 l 0
 73 582.667 79.3333 609.333 92 636 c 0
 104.667 662 126.333 684 157 702 c 0
 188.333 719.333 228 728 276 728 c 0
 348.667 728 403.667 709 441 671 c 0
 473 635.667 489.333 592.333 490 541 c 0xf8
 490 488.333 480 451 460 429 c 0
 442 407 425.667 392.667 411 386 c 0
 418.333 385.333 429 380.333 443 371 c 0
 456.333 363 471 344.667 487 316 c 0
 501.667 289.333 509 251.667 509 203 c 0xf4
EndSplineSet
EndChar
StartChar: uni0546
Encoding: 1350 1350 672
Width: 654
Flags: W
HStem: 0 85<391 425> 635 94<8 150>
VStem: 150 87<314 635> 581 87<314 454>
Fore
8 729 m 1
 237 729 l 0
 237 314 l 0
 237 238 245.333 185.667 262 157 c 0
 272 138.333 287.333 122.333 308 109 c 0
 334.667 93 366.333 85 403 85 c 0
 465.667 85 511 100.667 539 132 c 0
 567 162.667 581 223.333 581 314 c 0
 581 454 l 0
 668 454 l 0
 668 314 l 0
 668 212 651.667 138 619 92 c 1
 573 30.6667 503.333 -2.54313e-06 410 0 c 0
 288 0 209.667 44.6667 175 134 c 0
 167 158 160.667 184.333 156 213 c 0
 152.667 239.667 150.667 273.333 150 314 c 0
 150 635 l 0
 8 636 l 0
 8 729 l 1
EndSplineSet
EndChar
StartChar: uni0547
Encoding: 1351 1351 673
Width: 509
Flags: W
HStem: -12 75<277 286>
VStem: 37 90<215 357> 423 88<211 285>
DStem: 85 655 85 739 213 625 473 642
Fore
85 739 m 1
 473 642 l 0
 473 559 l 0
 368 585 l 1
 331 588 l 2
 320.333 588 305.667 586.333 287 583 c 0
 281.667 583 274.333 581.333 265 578 c 0
 242 569 l 0
 212.667 557.667 186 532.667 162 494 c 0
 138.667 455.333 127 401.667 127 333 c 0
 127 242 l 0
 127 196.667 136.333 160 155 132 c 0
 173.667 105.333 195.333 87 220 77 c 0
 251 66 l 1
 277 63 l 1
 305 63 336.333 74.3333 371 97 c 0
 405 118.333 422.333 159.667 423 221 c 0
 423 285 l 0
 511 285 l 0
 511 215 l 0
 511 163 491.667 112.667 453 64 c 0
 408.333 16 352.667 -9.33333 286 -12 c 2
 277 -12 l 2
 201.667 -12 140.333 16 93 72 c 0
 55.6667 115.307 37 162.973 37 215 c 2
 37 333 l 0
 37 401 50 456.667 76 500 c 0
 102 543.333 128 573.667 154 591 c 0
 178 607.667 197.667 619 213 625 c 0
 85 655 l 0
 85 739 l 1
EndSplineSet
EndChar
StartChar: uni0548
Encoding: 1352 1352 674
Width: 610
Flags: W
HStem: 1 21G<68 154 499 586> 644 85<307 341>
VStem: 68 86<1 434> 499 87<1 450>
Fore
586 1 m 1
 499 1 l 0
 499 414 l 0
 499 503.333 485 564 457 596 c 0
 429.667 627.333 384.333 643.333 321 644 c 0
 255 644 208.667 621.333 182 576 c 0
 171 552 l 0
 161 524.667 155.333 478.667 154 414 c 0
 154 1 l 0
 68 1 l 0
 68 415 l 0
 68 521.667 85.6667 598 121 644 c 0
 163.989 700.667 232.989 729 328 729 c 0
 392.667 729 444 715.667 482 689 c 0
 529.333 657 559.667 611.667 573 553 c 0
 581 512 l 0
 584.333 484 586 451.667 586 415 c 0
 586 1 l 1
EndSplineSet
EndChar
StartChar: uni0549
Encoding: 1353 1353 675
Width: 548
Flags: W
HStem: 728 21G<241.5 374>
VStem: 447 89<384 502>
DStem: 79 91 308 108 449 -14 447 68
Fore
449 -14 m 1
 79 91 l 0
 79 176 l 0
 200 139 l 1
 247.731 143.546 291.065 156.546 330 178 c 1
 360 193.333 387.333 219.667 412 257 c 0
 435.333 293.667 447 342 447 402 c 0
 447 487 l 0
 447 531.667 437.667 566.333 419 591 c 0
 393.667 622.333 361 641.667 321 649 c 0
 317 649.667 308 651 294 653 c 0
 246.667 653 207.667 634 177 596 c 0
 159 573.333 149.333 539.667 148 495 c 0
 148 431 l 0
 61 430 l 0
 61 502 l 0
 61 557.333 80.6667 607.667 120 653 c 0
 166 703 224 728 294 728 c 0
 400.667 728 475.667 679 519 581 c 0
 529 553 534.333 526.667 535 502 c 0
 536 386 l 0
 536 334 525.333 289 504 251 c 0
 481.333 211 452.667 179.333 418 156 c 0
 390 139 l 0
 364.667 125 337.333 114.667 308 108 c 0
 447 68 l 0
 449 -14 l 1
EndSplineSet
EndChar
StartChar: uni054A
Encoding: 1354 1354 676
Width: 610
Flags: W
HStem: 1 21G<499 586> 644 85<276 328>
VStem: 276 89<223 643> 499 87<1 450>
Fore
363 223 m 2
 276 223 l 0
 276 644 l 0
 259.333 644 248.667 643 244 641 c 0
 221 627 l 0
 202.333 615 186.667 592.333 174 559 c 0
 173.333 557 172.333 554.667 171 552 c 0
 161 524.667 155.333 478.667 154 414 c 0
 154 372 l 0
 68 372 l 0
 68 415 l 0
 68 521.667 85.6667 598 121 644 c 0
 163.989 700.667 232.989 729 328 729 c 0
 392.667 729 444 715.667 482 689 c 0
 529.333 657 559.667 611.667 573 553 c 0
 581 512 l 0
 584.333 484 586 451.667 586 415 c 0
 586 1 l 0
 499 1 l 0
 499 414 l 0
 499 502.667 485.333 563.333 458 596 c 0
 439.333 616.667 408.333 633 365 645 c 0
 365 245 l 0
 365 231 364.333 223.667 363 223 c 2
EndSplineSet
EndChar
StartChar: uni054B
Encoding: 1355 1355 677
Width: 634
Flags: W
HStem: -2 21G<42 125> 52 77<125 514> 355 79<132 179.597> 660 73<316 347> 660 75<303 328>
VStem: 42 83<-2 52 -2 184> 517 67<438 469> 578 76<-8 7.94538>
Fore
303 660 m 1xee
 248.333 653.333 206.333 633.333 177 600 c 0
 165 585 l 2
 134.133 544.636 116.467 494.303 112 434 c 1
 132 434 l 0
 241.333 434 326.667 417.667 388 385 c 0
 434.667 360.333 464.333 325.667 477 281 c 0
 501.667 338.333 515 390.667 517 438 c 0
 517 487.333 506.333 531.667 485 571 c 0
 481.667 576.333 478.333 582 475 588 c 0
 465.667 602 447.333 616.667 420 632 c 0
 383.333 650.667 348.667 660 316 660 c 0xf6
 303 660 l 1xee
654 -8 m 1xf5
 578 -5 l 0
 578 31.6667 556.667 50.6667 514 52 c 0
 125 52 l 0
 125 -2 l 0
 42 -2 l 0
 42 184 l 0
 125 184 l 0
 125 129 l 0
 242 129 l 0
 297.333 129 340.667 143 372 171 c 0
 392.667 189.667 403 211.667 403 237 c 0
 403 250 l 0
 401 258 l 0
 393.667 292.667 361.667 318.667 305 336 c 0
 262.333 348.667 209.333 355 146 355 c 0
 73 357 l 0
 61.6667 357 54 357.333 50 358 c 0
 46 358 42.3333 358.667 39 360 c 0
 39 449 l 0
 39 494.333 43.6667 528.667 53 552 c 0
 57.6667 566 70 592.333 90 631 c 0
 134.667 700.333 206.333 735 305 735 c 0
 324 735 l 0xed
 332.667 735 340.333 734.333 347 733 c 0
 354.333 733 360 732.333 364 731 c 0
 393.333 726.333 420 718.667 444 708 c 0
 466 700 494 678.333 528 643 c 0
 532.667 638.333 536.333 634.333 539 631 c 0
 547 621.667 557 599 569 563 c 0
 579 531 584 499.667 584 469 c 0xf6
 584 354.573 550.333 260.239 483 186 c 0
 462.333 162.667 440 144.333 416 131 c 0
 529 131 l 0
 599.667 131 640.667 95 652 23 c 0
 653.333 13 654 2.66667 654 -8 c 1xf5
EndSplineSet
EndChar
StartChar: uni054C
Encoding: 1356 1356 678
Width: 634
Flags: W
HStem: 1 21G<68 154> 644 85<307 341>
VStem: 68 86<1 434> 499 85<1 169 1 450> 499 156<1 250>
Fore
586 250 m 1xf0
 655 250 l 0xe8
 656 170 l 0
 584 169 l 0
 584 2 l 0
 499 1 l 0
 499 414 l 0
 499 503.333 485 564 457 596 c 0
 429.667 627.333 384.333 643.333 321 644 c 0
 255 644 208.667 621.333 182 576 c 0
 171 552 l 0
 161 524.667 155.333 478.667 154 414 c 0
 154 1 l 0
 68 1 l 0
 68 415 l 0
 68 521.667 85.6667 598 121 644 c 0
 163.989 700.667 232.989 729 328 729 c 0
 392.667 729 444 715.667 482 689 c 0
 529.333 657 559.667 611.667 573 553 c 0
 581 512 l 0
 584.333 484 586 451.667 586 415 c 0
 586 250 l 1xf0
EndSplineSet
EndChar
StartChar: uni054D
Encoding: 1357 1357 679
Width: 610
Flags: W
HStem: -12 85<326 346> 696 20G<73 159 503 590>
VStem: 73 86<259 716> 503 87<275 716>
Fore
503 716 m 1
 590 716 l 0
 590 302 l 0
 590 204 575 132 545 86 c 1
 500.083 20.6667 429.417 -12 333 -12 c 0
 219.667 -12 144 26.6667 106 104 c 0
 93.3333 130.667 84 163 78 201 c 0
 74.6667 231 73 264.667 73 302 c 0
 73 716 l 0
 159 716 l 0
 159 303 l 0
 159 225 167.667 171.333 185 142 c 0
 195 124.667 210.333 110 231 98 c 0
 257 82.6667 288.667 74.3333 326 73 c 0
 388 73 433 88.6667 461 120 c 0
 489 150.667 503 211.667 503 303 c 0
 503 716 l 1
EndSplineSet
EndChar
StartChar: uni054E
Encoding: 1358 1358 680
Width: 632
Flags: W
HStem: 1 21G<496 669> 159 88<321 341> 709 20G<499 586>
VStem: 68 86<448 577> 496 90<1 729> 499 87<432 729>
Fore
496 1 m 1xf8
 496 216 l 0xf8
 488.667 199.333 467 184.667 431 172 c 0
 397.667 163.333 364.333 159 331 159 c 0
 269.667 159 218.333 171.333 177 196 c 0
 118.333 230.667 83.6667 293.667 73 385 c 0
 69.6667 411.667 68 442 68 476 c 0
 68 577 l 0
 154 577 l 0
 154 477 l 0
 154 399.667 162.667 346.333 180 317 c 0
 205.537 272.735 252.537 249.402 321 247 c 1
 387 247 435.667 264.333 467 299 c 0
 488.333 321.667 499 381 499 477 c 2
 499 729 l 0xf4
 586 729 l 0
 586 95 l 0
 669 95 l 0
 669 1 l 0
 496 1 l 1xf8
EndSplineSet
EndChar
StartChar: uni054F
Encoding: 1359 1359 681
Width: 563
Flags: W
HStem: -12 85<318 330> 645 83<280 322>
VStem: 66 85<530 549> 481 85<192 202>
Fore
302 645 m 0
 228 645 180.667 623.667 160 581 c 0
 154 567.667 151 553 151 537 c 0
 151 511 159.333 490 176 474 c 0
 193.333 456.667 237 439.667 307 423 c 0
 378.333 406.333 427.333 391 454 377 c 0
 518.476 344.762 555.143 295.429 564 229 c 1
 566 202 l 0
 566 166 556 130.667 536 96 c 0
 507.333 46.6667 460.333 13.6667 395 -3 c 0
 371.667 -9 347.333 -12 322 -12 c 0
 175.333 -12 85 46.3333 51 163 c 0
 44.3333 183.667 41 206 41 230 c 0
 123 238 l 0
 131 143.333 186.333 88.6667 289 74 c 0
 318 73 l 0
 378.667 73 424.333 90 455 124 c 0
 472.333 143.333 481 166.667 481 194 c 0
 481 241.333 455.333 275 404 295 c 0
 211 353 l 1
 153.287 373.411 112.953 402.744 90 441 c 0
 76 463 68 493 66 531 c 0
 66 603 97 657 159 693 c 0
 198.333 716.333 244.667 728 298 728 c 0
 398.667 728 469.333 696 510 632 c 0
 513 627 l 0
 523.667 607.667 532.667 586.333 540 563 c 0
 546 525 l 0
 546 514 l 0
 462 507 l 0
 454.667 597 401.333 643 302 645 c 0
EndSplineSet
EndChar
StartChar: uni0550
Encoding: 1360 1360 682
Width: 591
Flags: W
HStem: 1 21G<68 154> 644 85<307 341>
VStem: 68 86<1 434> 499 87<294 450>
Fore
586 294 m 1
 499 294 l 0
 499 414 l 0
 499 503.333 485 564 457 596 c 0
 429.667 627.333 384.333 643.333 321 644 c 0
 255 644 208.667 621.333 182 576 c 0
 171 552 l 0
 161 524.667 155.333 478.667 154 414 c 0
 154 1 l 0
 68 1 l 0
 68 415 l 0
 68 521.667 85.6667 598 121 644 c 0
 163.989 700.667 232.989 729 328 729 c 0
 392.667 729 444 715.667 482 689 c 0
 529.333 657 559.667 611.667 573 553 c 0
 581 512 l 0
 584.333 484 586 451.667 586 415 c 0
 586 294 l 1
EndSplineSet
EndChar
StartChar: uni0551
Encoding: 1361 1361 683
Width: 527
Flags: W
HStem: -12 75<288 303.477> 359 73<269 289> 652 76<268 296>
VStem: 73 84<544 549> 416 86<544 549> 437 86<211 229>
Fore
502 544 m 1xf8
 502 476.923 475 430.923 421 406 c 1
 456.373 396.567 485.373 363.567 508 307 c 0
 517.333 282.333 522.333 250.333 523 211 c 0
 523 171.667 514 134.667 496 100 c 0
 467.333 44.6667 418.667 9.33333 350 -6 c 0
 330 -10 309.333 -12 288 -12 c 0
 214.667 -12 156.667 9 114 51 c 0
 76.6667 87.6667 57 138.333 55 203 c 0
 141 203 l 0
 141 165.667 151.667 136.667 173 116 c 0
 193 96.6667 214.667 82.3333 238 73 c 0
 270 65 l 0
 288 63 l 0
 302 63 320.333 66 343 72 c 0
 366.333 78 387.667 91.6667 407 113 c 0
 427 135 437 167.667 437 211 c 0xf4
 437 251.667 428 283.333 410 306 c 0
 392 328.667 372 343 350 349 c 0
 318 356 l 1
 289 359 l 1
 225 359 182.333 341.333 161 306 c 0
 63 307 l 0
 71.6667 336.333 85.3333 358.667 104 374 c 0
 124.667 389.333 140.333 399.333 151 404 c 0
 137.667 409.333 121.333 422.333 102 443 c 0
 83.3333 463 73.6667 496.667 73 544 c 0
 73 568 77.3333 594 86 622 c 0
 96 649.333 117 673.667 149 695 c 0
 182.333 717 228.333 728 287 728 c 0
 428.333 728 500 666.667 502 544 c 1xf8
287 432 m 0
 346.333 432 385.667 452 405 492 c 0
 412.333 507.333 416 524.667 416 544 c 0xf8
 416 574.667 407.333 598.333 390 615 c 0
 372.667 631.667 353.333 642 332 646 c 0
 310.667 650 295.333 652 286 652 c 0
 250 652 217 640 187 616 c 0
 166.333 600 156.333 576 157 544 c 0
 157 520.667 163.667 499.667 177 481 c 1
 207.852 448.333 244.519 432 287 432 c 0
EndSplineSet
EndChar
StartChar: uni0552
Encoding: 1362 1362 684
Width: 352
Flags: W
HStem: 0 21G<70 157> 395 80<157 323> 703 20G<70 157>
VStem: 70 87<0 395 0 723>
Fore
70 723 m 1
 157 723 l 0
 157 475 l 0
 323 475 l 0
 323 395 l 0
 157 395 l 0
 157 0 l 0
 70 0 l 0
 70 723 l 1
EndSplineSet
EndChar
StartChar: uni0553
Encoding: 1363 1363 685
Width: 664
Flags: W
HStem: 1 21G<317 403> 705 20G<317 403>
VStem: 39 87<336 370> 317 86<1 48 126 591 669 725> 596 85<352 386>
Fore
39 362 m 0
 39 444.667 59.3333 509.333 100 556 c 0
 140 600.667 181.333 630.667 224 646 c 0
 261.333 658.667 292.333 666.667 317 670 c 0
 317 725 l 0
 403 725 l 0
 403 670 l 0
 411 670 l 1
 441 665 l 1
 457.667 661 476.333 655 497 647 c 0
 536.333 635 577 605.667 619 559 c 0
 660.333 512.333 681 446.667 681 362 c 0
 681 278 660.667 212.333 620 165 c 0
 579.333 119 538.333 88.3333 497 73 c 0
 457 58.3333 425.667 50 403 48 c 0
 403 1 l 0
 317 1 l 0
 317 48 l 0
 271.667 54 228.333 68 187 90 c 0
 177 95.3333 168.667 100.667 162 106 c 0
 131.333 130.667 110.667 150.333 100 165 c 0
 59.3333 210.333 39 276 39 362 c 0
126 360 m 0
 126 231.333 189.667 153.333 317 126 c 0
 317 591 l 0
 242.333 582.333 187.667 544.667 153 478 c 0
 135.667 445.333 126.667 406 126 360 c 0
403 126 m 1
 487 142.667 544.667 185.333 576 254 c 1
 588.663 287.767 595.329 323.1 596 360 c 0
 596 465.333 555 536 473 572 c 0
 452.333 580.667 429 587 403 591 c 0
 403 126 l 1
EndSplineSet
EndChar
StartChar: uni0554
Encoding: 1364 1364 686
Width: 539
Flags: W
HStem: 0 21G<113 199> 121 78<33 113 200 550> 275 77<330 354> 728 21G<295.5 408.5>
VStem: 113 86<0 121 199 335 199 529> 460 86<495 521>
Fore
341 275 m 0
 301.667 275 270 282 246 296 c 0
 222 311.333 206.667 324.333 200 335 c 0
 200 199 l 0
 550 199 l 0
 550 121 l 0
 199 121 l 0
 199 0 l 0
 113 0 l 0
 113 121 l 0
 33 121 l 0
 33 199 l 0
 113 199 l 0
 113 523 l 0
 113 554.333 117.667 578.667 127 596 c 0
 139.667 638.667 167.333 673 210 699 c 0
 242.667 718.333 283.333 728 332 728 c 0
 434 728 501.333 684 534 596 c 0
 541.333 569.333 545.333 544.333 546 521 c 0
 546 407.667 510.667 333 440 297 c 0
 412 282.333 379 275 341 275 c 0
201 472 m 2
 201 430.667 221 398 261 374 c 0
 285.667 359.333 312.667 352 342 352 c 0
 420.667 352 460 405 460 511 c 0
 460 565.667 445.333 603 416 623 c 0
 388 641.667 360 651.667 332 653 c 0
 294 653 260.667 638.667 232 610 c 0
 211.333 589.333 201 558.667 201 518 c 2
 201 472 l 2
EndSplineSet
EndChar
StartChar: uni0555
Encoding: 1365 1365 687
Width: 657
Flags: W
HStem: -12 81<347 381> 647 82<347 381>
VStem: 44 90<323 373> 584 90<357 373>
Fore
360 -12 m 0
 259.333 -12 179.667 27.6667 121 107 c 0
 71 173 45.3333 253.667 44 349 c 0
 44 466.333 73.3333 559 132 627 c 0
 190 693.667 266 727.667 360 729 c 0
 456 729 534 691.667 594 617 c 1
 646.373 549.352 673.039 462.685 674 357 c 0
 674 285.667 660.667 221.333 634 164 c 0
 602 94.6667 551.667 44.6667 483 14 c 0
 444.333 -3.33333 403.333 -12 360 -12 c 0
134 347 m 0
 134 261 155.333 193.333 198 144 c 0
 241.333 94 295 69 359 69 c 0
 424.333 69 478.333 94 521 144 c 0
 563 194 584 265 584 357 c 0
 584 477 548.667 561.333 478 610 c 0
 442.667 634.667 403.667 647 361 647 c 0
 299 647 245.667 624 201 578 c 0
 156.333 532 134 455 134 347 c 0
EndSplineSet
EndChar
StartChar: uni0556
Encoding: 1366 1366 688
Width: 605
Flags: W
HStem: -9 75<252 275 359 401> 435 71<227 243 359 405> 654 71<232 271>
VStem: 79 63<566 584> 275 84<66 433 507 725> 532 87<198 298>
Fore
401 433 m 2
 359 433 l 0
 359 67 l 0
 401 67 l 0
 444.333 67 479 84.3333 505 119 c 0
 523 141.667 532 174.667 532 218 c 0
 532 273 l 0
 532 319 523.667 353.667 507 377 c 0
 481.667 414.333 446.333 433 401 433 c 2
142 578 m 0
 142 530 175.667 506 243 506 c 0
 274 507 l 0
 274 653 l 1
 236 654 l 2
 173.333 654 142 628.667 142 578 c 0
134 463 m 0
 97.3333 483.953 79 521.619 79 576 c 0
 79 618.667 88 650.667 106 672 c 0
 130.667 703.333 172.667 720.667 232 724 c 0
 243.333 724.667 256.333 725 271 725 c 0
 359 725 l 0
 359 508 l 0
 401 508 l 0
 503 508 571.333 463.333 606 374 c 0
 614 346.667 618.333 321.333 619 298 c 0
 619 212 l 0
 619 144.667 595 88.6667 547 44 c 0
 523 25 l 0
 491.667 4.33333 451 -6.66667 401 -8 c 2
 254 -9 l 2
 225.333 -9 193.333 -3.66667 158 7 c 0
 124.667 18.3333 96.6667 37.3333 74 64 c 0
 66.6667 72.6667 57.3333 88.6667 46 112 c 0
 39.3333 139.333 36 160.333 36 175 c 0
 122 175 l 0
 122 153.667 125.333 137 132 125 c 0
 136.667 112.333 151.333 98.6667 176 84 c 0
 198.667 72 231.667 66 275 66 c 0
 275 434 l 0
 234 435 l 0
 224 435 212 436.667 198 440 c 0
 177.333 443.333 156 451 134 463 c 0
EndSplineSet
EndChar
StartChar: uni055A
Encoding: 1370 1370 692
Width: 187
Flags: W
HStem: 703 20G<56 142>
VStem: 56 86<620 723>
Fore
56 621 m 1
 56 723 l 0
 142 723 l 0
 142 643 l 0
 142 599.667 137.667 568 129 548 c 0
 116.333 524 96 504.333 68 489 c 0
 49 523 l 0
 81 536.333 97.3333 569 98 621 c 0
 56 621 l 1
EndSplineSet
EndChar
StartChar: uni055B
Encoding: 1371 1371 693
Width: 112
Flags: W
HStem: 698 20G<103 141>
Fore
22 588 m 1
 103 718 l 0
 141 718 l 0
 45 588 l 0
 22 588 l 1
EndSplineSet
EndChar
StartChar: uni055C
Encoding: 1372 1372 694
Width: 275
Flags: W
HStem: 639 46<107 107 107 199> 640 42<193 201>
Fore
107 639 m 2x80
 79.6667 639 57.6667 627 41 603 c 0
 39 601 35 595 29 585 c 0
 21 632 l 1
 30.2453 646.793 45.2453 660.793 66 674 c 1
 79.3333 681.333 93 685 107 685 c 2x80
 155 684 l 1
 193 682 l 0x40
 220.333 682 248.667 698 278 730 c 0
 278 685 l 1x80
 251.947 655 225.614 640 199 640 c 2
 127 640 l 0x40
 107 639 l 2x80
EndSplineSet
EndChar
StartChar: uni055D
Encoding: 1373 1373 695
Width: 281
Flags: W
HStem: 583 137<40 209>
Fore
209 583 m 1
 144 583 l 0
 40 720 l 0
 148 720 l 0
 209 583 l 1
EndSplineSet
EndChar
StartChar: uni055E
Encoding: 1374 1374 696
Width: 290
Flags: W
HStem: 595 41<190 202.754> 739 43<162 186>
VStem: 19 43<609 628.875> 235 41<683 698.286>
Fore
235 684 m 0
 235 712.667 224.667 729.333 204 734 c 0
 199.333 735.333 186 737 164 739 c 0
 122.667 739 95 726 81 700 c 0
 69 674.667 62.6667 644.333 62 609 c 0
 19 609 l 0
 19 639 l 0
 26.3333 687.667 41.3333 722 64 742 c 0
 93.0907 768.667 133.757 782 186 782 c 0
 231.333 782 259 766 269 734 c 0
 273.667 720.667 276 703.667 276 683 c 0
 276 637.667 256.667 609.667 218 599 c 0
 208.667 596.333 198.667 595 188 595 c 0
 132.667 595 105 625 105 685 c 0
 145 685 l 0
 145 659.667 153.667 644.333 171 639 c 0
 175.667 637.667 182 636.667 190 636 c 0
 212.667 636 226.333 644 231 660 c 0
 233 666.667 234.333 674.667 235 684 c 0
EndSplineSet
EndChar
StartChar: uni0561
Encoding: 1377 1377 699
Width: 704
Flags: W
HStem: -10 76<208 227 489 508> 1 21G<634 707> 500 20G<60 141 342 423 626 707>
VStem: 60 81<162 519> 342 81<192 520> 634 73<1 520>
Fore
208 -10 m 0xbc
 110.667 -10 61.3333 48 60 164 c 0
 60 520 l 0
 141 520 l 0
 141 193 l 0
 141 147 145.667 116.667 155 102 c 0
 159.667 94.6667 167 87.3333 177 80 c 0
 191 70.6667 207 66 225 66 c 0
 258.333 66 286 78 308 102 c 0
 330.667 126 342 165 342 219 c 0
 342 520 l 0
 423 520 l 0
 423 183 l 0
 423 113 445 74.3333 489 67 c 0
 495 66.3333 501.333 66 508 66 c 0xbc
 528.667 66 549 72 569 84 c 1
 607 111.039 626 166.705 626 251 c 2
 626 520 l 0
 707 520 l 0
 707 1 l 0
 634 1 l 0x7c
 634 74 l 0
 614 36 582 10.3333 538 -3 c 0
 522 -7.66667 505.667 -10 489 -10 c 0
 418.333 -10 373.667 20.3333 355 81 c 0
 317.667 20.3333 268.667 -10 208 -10 c 0xbc
EndSplineSet
EndChar
StartChar: uni0562
Encoding: 1378 1378 700
Width: 470
Flags: W
HStem: 0 96<149 454> 454 75<274 292> 498 20G<68 141>
VStem: 68 73<-211 518> 68 81<-211 0 -211 277> 374 81<189 334>
Fore
455 189 m 1xd4
 374 189 l 0
 374 287 l 0
 374 335.667 372.333 366.333 369 379 c 0
 361.667 415.667 341.333 439 308 449 c 0
 298 452.333 287.333 454 276 454 c 0
 232.667 454 199 436 175 400 c 0
 163 378 l 0
 155 357.333 150.333 323.667 149 277 c 0
 150 96 l 0
 454 96 l 0
 454 0 l 0
 150 0 l 0
 149 -211 l 0xcc
 68 -211 l 0
 68 518 l 0
 141 518 l 0xb4
 141 441 l 0
 177.667 499.667 228 529 292 529 c 0
 339.333 529 379.333 513.333 412 482 c 0
 425 468 l 0
 445 438.667 455 389.333 455 320 c 0
 455 189 l 1xd4
EndSplineSet
EndChar
StartChar: uni0563
Encoding: 1379 1379 701
Width: 483
Flags: W
HStem: -12 73<232 246> 0 21G<445 516> 461 69<232 248> 499 20G<373 446>
VStem: 32 83<238 288> 365 151<-208 79> 373 72<238 519>
Fore
234 530 m 0xac
 285.333 530 325.667 511.667 355 475 c 0
 361 467.667 367 459.667 373 451 c 0
 373 519 l 0
 446 519 l 0
 445 79 l 0x1a
 516 79 l 0
 516 0 l 0x5c
 445 0 l 0
 445 -209 l 0x5a
 365 -208 l 0
 365 54 l 0
 334.333 12 292.667 -10 240 -12 c 0
 204.667 -12 169.333 -0.666667 134 22 c 0
 83.3333 56.6667 51.3333 114 38 194 c 0
 34 216 32 239 32 263 c 0
 32 371.667 63.6667 449.333 127 496 c 0
 157.667 518.667 193.333 530 234 530 c 0xac
373 256 m 0
 373 323.333 359.667 374.333 333 409 c 0
 306.333 443.667 276 461 242 461 c 0
 208 461 178.333 444.667 153 412 c 0
 127.667 378.667 115 329.333 115 264 c 0
 115 195.333 127.667 144.333 153 111 c 0
 179 77.6667 210 61 246 61 c 0xaa
 280.667 61 310.667 76.6667 336 108 c 0
 360.667 139.333 373 188.667 373 256 c 0
EndSplineSet
EndChar
StartChar: uni0564
Encoding: 1380 1380 702
Width: 491
Flags: W
HStem: 0 62<430 522> 440 75<275 295>
VStem: 67 76<0 505> 67 79<0 270> 351 79<-209 0 -209 385> 351 171<-209 62>
Fore
295 515 m 0xe0
 349.667 515 389 493.333 413 450 c 0
 421 432 l 0
 425.667 417.333 428.667 401.667 430 385 c 0
 430 62 l 0xe8
 522 62 l 0
 522 0 l 0xc4
 430 0 l 0
 430 -209 l 0
 351 -209 l 0
 351 347 l 0
 351 407.667 326.333 438.667 277 440 c 1
 193.323 440 149.656 383.333 146 270 c 1
 146 0 l 0xd8
 67 0 l 0
 67 505 l 0
 143 505 l 0
 143 425 l 0
 154.333 441.667 166.667 458 180 474 c 0
 196.667 494 225.667 507 267 513 c 0
 277 514.333 286.333 515 295 515 c 0xe0
EndSplineSet
EndChar
StartChar: uni0565
Encoding: 1381 1381 703
Width: 465
Flags: W
HStem: -11 76<218 238> 0 21G<370 442> 427 92<136 447>
VStem: 55 81<200 427 200 721> 370 72<0 333>
Fore
442 0 m 1x78
 370 0 l 0x78
 370 74 l 0
 334.667 17.3333 284 -11 218 -11 c 0
 162 -11 119.667 6.33333 91 41 c 1
 77.9302 58.4263 67.5969 83.093 60 115 c 1
 58 134.333 56.3333 162.667 55 200 c 0
 55 719 l 0
 137 721 l 0
 137 520 l 0
 447 519 l 0
 447 427 l 0
 137 427 l 0
 136 204 l 0
 136 152.667 144.333 117.333 161 98 c 1
 178.111 76 203.111 65 236 65 c 0xb8
 269.333 65 299 76.6667 325 100 c 0
 349.667 124 362 169.333 362 236 c 0
 362 333 l 0
 442 333 l 0
 442 0 l 1x78
EndSplineSet
EndChar
